<svg width="57" height="50" viewBox="0 0 57 50" fill="none" xmlns="http://www.w3.org/2000/svg">
<path d="M43.7695 1.21262C44.6581 0.622292 45.4993 -0.194352 46.6337 0.0417225C48.1841 0.356554 49.4794 1.20241 50.3681 2.58957C50.6233 2.98308 50.9167 3.25838 51.3232 3.40598C52.3821 3.78971 53.1759 4.44973 53.6865 5.52219C53.9606 6.10261 54.4145 6.5847 54.7831 7.11594C55.0289 7.47012 55.0768 7.76526 54.8027 8.17844C54.5758 8.52273 54.4616 8.98493 54.3955 9.40793C54.3104 9.90973 54.5002 10.235 55.0107 10.5105C56.3436 11.219 57.1182 12.8033 56.3808 14.407C56.258 14.6724 56.1449 14.9383 56.041 15.2136C55.5493 16.5319 54.6128 16.9944 53.3271 16.532C53.2422 16.5025 53.1481 16.4725 53.082 16.4431C52.8456 16.7875 52.6087 17.1221 52.3535 17.4763C52.2687 17.3685 52.2122 17.329 52.2119 17.2995C52.2875 16.4536 51.7962 15.9516 51.248 15.4402C48.6859 13.0394 45.5465 13.4718 43.4003 14.8591C44.0999 14.7115 44.7808 14.525 45.4804 14.4167C48.2033 14.0232 50.5667 15.2923 51.8242 17.8308C52.6939 19.5821 53.3084 21.4124 53.1572 23.4392C53.1288 23.8425 53.101 24.2853 52.9404 24.6394C52.392 25.8594 52.5617 27.0893 52.8642 28.2995C53.1667 29.5195 53.4604 30.7886 54.0371 31.8708C56.1264 35.7769 56.2957 39.9981 56.1445 44.2781C56.0783 46.118 55.5116 47.7516 54.0556 48.9421C53.2426 49.6111 52.3723 50.0736 51.2851 49.9851C50.7841 49.9457 50.2734 49.9359 49.7724 49.9851C48.8272 50.0932 48.1749 49.6005 47.6171 48.9118C47.0122 48.174 46.738 47.3183 46.9081 46.3542C46.9554 46.0985 47.1349 45.784 47.3427 45.6657C47.6451 45.4986 47.8533 45.793 48.08 46.0193C48.3731 46.3144 48.7611 46.5314 49.1298 46.738C49.4512 46.9151 49.6213 46.7671 49.6591 46.3933C49.6969 45.9506 49.5645 45.577 49.2431 45.2917C47.4374 43.688 46.3032 41.5921 45.2822 39.4177C44.4975 37.7352 43.996 35.9737 43.8164 34.1042C43.6841 32.6975 43.9205 31.33 44.1757 29.9626C44.2986 29.3428 44.4211 28.7125 44.4589 28.073C44.544 26.8038 44.1187 25.7313 43.0693 25.0525C41.7741 24.2162 40.6207 23.2122 39.6943 21.9529C39.7037 21.9824 39.6566 22.0122 39.6093 22.0417C40.1293 23.1535 40.6495 24.2655 41.1884 25.4265C40.7441 25.7905 40.2806 26.1942 39.789 26.5681C38.4749 27.5618 37.1982 28.6043 35.8369 29.5193C32.3482 31.8708 28.5003 32.8258 24.3593 32.4519C23.348 32.3633 22.28 31.999 21.8544 31.6941C22.1002 29.9231 22.3359 28.201 22.5722 26.4792C22.5158 26.4597 22.45 26.4499 22.3935 26.4304C22.0721 27.1092 21.7595 27.7878 21.4287 28.4568C20.6439 30.0704 20.1899 31.8121 19.6415 33.5241C18.8852 35.8558 17.5335 37.6465 15.2363 38.5222C15.1228 38.5714 15.0277 38.7682 14.9804 38.9157C14.763 39.634 14.6025 40.3724 14.3662 41.0808C13.8462 42.6548 12.8725 43.8747 11.5585 44.8093C10.9724 45.2225 10.3859 45.6458 9.82807 46.0984C9.34605 46.482 9.36517 46.6492 9.83784 47.0329C10.2255 47.3478 10.6228 47.6427 10.9726 47.987C11.4075 48.42 11.606 48.9716 11.4453 49.6013C11.4074 49.7488 11.1899 49.9448 11.0576 49.945C7.95662 49.9647 4.84601 49.9646 1.74506 49.9548C1.63167 49.9548 1.47048 49.9163 1.40424 49.8376C0.969457 49.2868 0.487747 48.7453 0.147406 48.1355C-0.0227124 47.8306 -0.0420868 47.3187 0.0712345 46.9743C1.16789 43.5013 2.57688 40.2051 5.23334 37.6765C5.34672 37.5683 5.41327 37.332 5.4228 37.1648C5.48898 34.6656 5.77213 32.1857 6.38666 29.7751C6.91605 27.6894 7.48333 25.6037 8.4853 23.6853C10.3289 20.1826 12.7122 17.2595 16.371 15.6853C19.5192 14.3375 22.5919 14.5445 25.5888 16.1384C26.1938 16.4631 26.7138 16.9646 27.2431 17.3581C26.9027 16.5907 26.3069 15.9611 25.664 15.3806C28.9446 14.0818 32.2922 13.0098 35.1757 11.0027C35.412 11.8585 35.6389 12.7346 35.8847 13.6101C35.9226 13.7279 35.9983 13.8361 36.0927 13.9343C35.9036 12.7143 35.9033 11.4944 36.3476 10.3728C36.7636 9.31015 37.2643 8.23711 37.9072 7.31223C39.486 5.06893 41.3871 3.12083 43.5048 1.41868C43.5898 1.34989 43.6751 1.28141 43.7695 1.21262ZM23.707 34.0056C23.5652 35.6979 23.272 37.3416 21.7783 38.5027C22.6384 39.5652 23.2431 40.7755 23.2431 42.1823C23.2431 43.1563 23.073 44.14 22.9785 45.114C22.9596 45.3108 22.9313 45.508 22.9218 45.7048C22.8841 46.2555 23.092 46.6492 23.5644 46.9148C24.1222 47.2198 24.6997 47.5048 25.2197 47.8689C25.6545 48.1739 26.0606 48.5583 26.4199 48.9616C26.6372 49.2076 26.7231 49.5808 26.9121 49.9841H26.3251C23.6592 49.9841 21.0028 49.994 18.3369 49.9743C18.0912 49.9743 17.8264 49.8667 17.5996 49.7488C16.9094 49.3847 16.2376 49.0007 15.5664 48.6072C15.3867 48.4989 15.1882 48.3214 15.122 48.1345C14.7533 47.0621 14.4128 45.9697 14.082 44.8777C14.0539 44.7694 14.1197 44.5921 14.1953 44.4939C15.2446 43.2148 15.8128 41.7 16.2665 40.1159C16.3233 39.929 16.4268 39.7025 16.5781 39.614C18.4783 38.5121 19.7075 36.8004 20.6435 34.8327C20.8893 34.3212 21.0973 33.7896 21.3242 33.2781C22.1277 33.524 22.8845 33.7596 23.707 34.0056ZM42.3789 26.5105C42.927 26.9728 43.125 27.5038 43.0117 28.1628C42.8131 29.373 42.5584 30.5737 42.4072 31.7937C42.0857 34.46 42.6811 36.9787 43.6738 39.4089C43.8534 39.8517 43.8726 40.2064 43.6835 40.6491C42.8232 42.6759 41.8868 44.6531 40.6767 46.4929C39.1074 48.8738 36.9143 49.9762 34.1728 49.9763C33.634 49.9763 33.1042 50.0059 32.5654 49.9665C32.3764 49.9567 32.1402 49.8289 32.0361 49.6716C31.1568 48.4319 31.3077 45.8637 32.3193 44.7322C32.4327 44.6042 32.6882 44.4867 32.83 44.5359C32.9622 44.5853 33.0477 44.8306 33.1328 45.0075C33.2367 45.2239 33.2648 45.4995 33.416 45.6667C33.5861 45.8733 33.8792 46.1688 34.0683 46.1296C34.2668 46.0903 34.4656 45.7262 34.5507 45.4704C34.6358 45.2245 34.6068 44.9186 34.5595 44.6628C34.3704 43.6693 34.0499 42.6954 33.9648 41.7019C33.7095 38.8585 33.955 36.0642 35.1367 33.4372C35.4108 32.837 35.7233 32.2262 36.1298 31.7146C36.5552 31.1638 37.0843 30.6815 37.623 30.2488C38.5494 29.4912 39.5234 28.803 40.4687 28.0652C41.1021 27.5634 41.7265 27.0418 42.3789 26.5105Z" fill="#F58021"/>
</svg>
