<svg width="57" height="50" viewBox="0 0 57 50" fill="none" xmlns="http://www.w3.org/2000/svg">
<path fill-rule="evenodd" clip-rule="evenodd" d="M39.6094 22.042L39.6112 22.0458L39.6118 22.0472C40.131 23.1573 40.6502 24.2674 41.1883 25.4266C41.052 25.5383 40.914 25.6536 40.7739 25.7707L40.7736 25.7709L40.7736 25.7709C40.4569 26.0355 40.1298 26.3088 39.789 26.568C39.4103 26.8544 39.0346 27.1449 38.6592 27.4352C37.7321 28.1523 36.8062 28.8684 35.8371 29.5197C32.3485 31.8713 28.5006 32.8257 24.3596 32.4518C23.348 32.3632 22.2797 31.9992 21.8542 31.6942C22.0997 29.9256 22.3357 28.2061 22.5717 26.4867L22.5727 26.4794C22.5444 26.4696 22.5137 26.4622 22.4829 26.4548C22.4522 26.4475 22.4215 26.4401 22.3931 26.4302C22.301 26.6248 22.2096 26.8194 22.1184 27.0138C21.8912 27.4975 21.6648 27.9798 21.4288 28.4571C20.8157 29.7178 20.4046 31.0567 19.9925 32.3985L19.9924 32.399C19.8771 32.7744 19.7618 33.15 19.6419 33.5242C18.8856 35.8561 17.5336 37.6468 15.2362 38.5225C15.1228 38.5717 15.0282 38.7685 14.9809 38.9161C14.8883 39.222 14.806 39.5316 14.7237 39.8409C14.6128 40.2577 14.5021 40.674 14.3664 41.0807C13.8464 42.6549 12.8726 43.875 11.5585 44.8097C10.9723 45.2229 10.3861 45.646 9.82835 46.0986C9.34618 46.4823 9.36509 46.6496 9.8378 47.0333C9.93028 47.1084 10.0233 47.1824 10.1161 47.2562L10.1162 47.2563C10.4123 47.4919 10.706 47.7255 10.9723 47.9877C11.4072 48.4206 11.6058 48.9716 11.445 49.6013C11.4072 49.7489 11.1898 49.9457 11.0574 49.9457C7.95639 49.9654 4.84593 49.9654 1.74492 49.9555C1.63147 49.9555 1.47074 49.9162 1.40456 49.8375C1.30956 49.7171 1.21231 49.5972 1.11476 49.477C0.765778 49.0468 0.413149 48.6121 0.147144 48.1353C-0.0230336 47.8303 -0.0419425 47.3187 0.0715091 46.9743C1.16821 43.5011 2.5769 40.205 5.23356 37.6763C5.34701 37.5681 5.41319 37.332 5.42264 37.1647C5.48882 34.6656 5.77245 32.1861 6.38698 29.7755C6.91642 27.6896 7.48368 25.6037 8.48583 23.6851C10.3294 20.1824 12.7119 17.2602 16.3707 15.6859C19.519 14.338 22.5917 14.5446 25.5887 16.1385C26.0001 16.3593 26.3722 16.662 26.7347 16.9568L26.7347 16.9569C26.9053 17.0956 27.0738 17.2326 27.2432 17.3586C26.9028 16.5911 26.3072 15.9614 25.6643 15.3809C26.2697 15.1412 26.8774 14.9092 27.484 14.6777L27.4841 14.6777C30.1645 13.6545 32.8239 12.6393 35.1753 11.0025C35.2789 11.3775 35.3806 11.7563 35.4829 12.1372L35.4831 12.138C35.6143 12.6263 35.7463 13.1181 35.8844 13.6099C35.9222 13.7279 35.9978 13.8362 36.0924 13.9346C35.9033 12.7145 35.9033 11.4945 36.3477 10.3728C36.7636 9.31018 37.2647 8.23772 37.9076 7.31284C39.4865 5.06953 41.3868 3.12138 43.5046 1.41922C43.5896 1.35034 43.6747 1.28147 43.7693 1.2126C43.9211 1.11174 44.0716 1.00427 44.2223 0.896577C44.9541 0.373933 45.6932 -0.154052 46.6339 0.0417429C48.1844 0.356594 49.4797 1.20276 50.3684 2.59007C50.6236 2.98364 50.9167 3.25913 51.3233 3.40672C52.3821 3.79044 53.1763 4.44966 53.6868 5.52213C53.8719 5.91397 54.1388 6.26098 54.4062 6.60855C54.5349 6.7759 54.6637 6.94338 54.7835 7.11606C55.0294 7.47027 55.0766 7.76544 54.8024 8.17869C54.5755 8.52306 54.4621 8.98549 54.3959 9.40858C54.3108 9.91037 54.4999 10.2351 55.0104 10.5106C56.3435 11.219 57.1188 12.8031 56.3813 14.4068C56.2584 14.6725 56.145 14.9382 56.041 15.2136C55.5493 16.5321 54.6134 16.9945 53.3276 16.5321C53.3063 16.5247 53.2845 16.5173 53.2626 16.51C53.197 16.4878 53.1314 16.4657 53.0818 16.4435C52.8454 16.7879 52.6091 17.1224 52.3538 17.4766C52.3175 17.4305 52.2864 17.3969 52.2626 17.3712L52.2626 17.3712C52.2306 17.3366 52.212 17.3165 52.212 17.2995C52.2876 16.4534 51.796 15.9516 51.2476 15.4399C48.6855 13.0392 45.5467 13.4721 43.4006 14.8594C43.6418 14.8086 43.8807 14.753 44.119 14.6976L44.1192 14.6975C44.572 14.5923 45.0222 14.4876 45.4805 14.4167C48.2033 14.0231 50.5669 15.2924 51.8243 17.8308C52.6941 19.5822 53.3087 21.4123 53.1574 23.4391L53.1557 23.4628C53.1279 23.8598 53.0975 24.2922 52.94 24.6395C52.3916 25.8596 52.5618 27.0895 52.8643 28.2997L52.9201 28.5252C53.204 29.6751 53.4954 30.8555 54.0366 31.8713C56.126 35.7774 56.2962 39.9984 56.145 44.2784C56.0788 46.1183 55.5115 47.7516 54.0556 48.9421C53.2425 49.6112 52.3727 50.0736 51.2854 49.9851C50.7844 49.9457 50.2738 49.9359 49.7728 49.9851C48.8273 50.0933 48.175 49.6013 47.6172 48.9126C47.0121 48.1747 46.7379 47.3187 46.9081 46.3544C46.9554 46.0986 47.135 45.7838 47.343 45.6657C47.6043 45.5212 47.795 45.7217 47.9883 45.9248L47.9886 45.925C48.0191 45.957 48.0496 45.9891 48.0804 46.0199C48.3718 46.3134 48.7567 46.529 49.1235 46.7346L49.1299 46.7381C49.4513 46.9152 49.6215 46.7677 49.6593 46.3938C49.6971 45.951 49.5648 45.5771 49.2433 45.2918C47.4375 43.688 46.303 41.5923 45.282 39.4179C44.4973 37.7354 43.9962 35.9742 43.8166 34.1047C43.6842 32.6977 43.9205 31.3301 44.1758 29.9625C44.2987 29.3426 44.4216 28.7129 44.4594 28.0734C44.5445 26.8041 44.1191 25.7317 43.0697 25.0528C41.7744 24.2164 40.621 23.2128 39.6945 21.9534C39.7039 21.983 39.6567 22.0125 39.6094 22.042ZM42.3787 26.5104C42.9271 26.9729 43.1256 27.5042 43.0122 28.1634C42.9422 28.5897 42.8653 29.0148 42.7883 29.44L42.7882 29.4401C42.6467 30.2218 42.5051 31.0038 42.4071 31.794C42.0857 34.4604 42.6813 36.9792 43.674 39.4095C43.8536 39.8522 43.8725 40.2065 43.6834 40.6492C42.8231 42.6761 41.8871 44.6537 40.677 46.4936C39.1076 48.8747 36.9142 49.9767 34.1724 49.9767C34.0104 49.9767 33.8492 49.9794 33.6884 49.982H33.6883C33.3142 49.9882 32.942 49.9944 32.5652 49.9669C32.3761 49.957 32.1397 49.8291 32.0358 49.6717C31.1565 48.4319 31.3078 45.8639 32.3194 44.7324C32.4328 44.6045 32.6881 44.4865 32.8299 44.5357C32.9377 44.5757 33.0142 44.7463 33.0848 44.9039C33.1009 44.9398 33.1167 44.9751 33.1324 45.0079C33.1714 45.0891 33.1998 45.1786 33.228 45.2676C33.275 45.4158 33.3215 45.5626 33.4161 45.6672C33.5863 45.8738 33.8793 46.169 34.0684 46.1296C34.267 46.0902 34.4655 45.7262 34.5506 45.4704C34.6357 45.2244 34.6073 44.9194 34.56 44.6636C34.4915 44.3033 34.4056 43.9457 34.3198 43.5888L34.3198 43.5887C34.169 42.961 34.0187 42.3355 33.9644 41.702C33.7092 38.8585 33.955 36.0642 35.1368 33.4371C35.4109 32.837 35.7229 32.2269 36.1295 31.7153C36.5549 31.1643 37.0843 30.6822 37.6232 30.2493C38.1762 29.7971 38.746 29.3695 39.3165 28.9413L39.3167 28.9412C39.7021 28.652 40.0878 28.3625 40.469 28.065C40.8939 27.7284 41.3146 27.3829 41.7424 27.0316L41.7428 27.0313L41.7433 27.0309C41.9529 26.8587 42.1643 26.6851 42.3787 26.5104ZM22.0593 33.5039C21.8166 33.4291 21.5726 33.354 21.3242 33.278C21.24 33.4679 21.1584 33.6605 21.0765 33.8539C20.9377 34.1814 20.7981 34.5109 20.6435 34.8326C19.7075 36.8004 18.4785 38.5124 16.5782 39.6144C16.4269 39.7029 16.3229 39.9292 16.2662 40.1162C15.8124 41.7003 15.2451 43.2155 14.1957 44.4946C14.12 44.593 14.0539 44.7701 14.0822 44.8783C14.4131 45.9704 14.7535 47.0626 15.1222 48.135C15.1884 48.322 15.3869 48.4991 15.5665 48.6073C16.2378 49.0009 16.9091 49.3846 17.5992 49.7487C17.8261 49.8667 18.0908 49.975 18.3367 49.975C20.3359 49.9897 22.3298 49.9879 24.3264 49.986C24.9924 49.9854 25.6587 49.9848 26.3255 49.9848H26.9117C26.8481 49.8492 26.7963 49.7168 26.7473 49.5916C26.6504 49.3444 26.5644 49.1248 26.4201 48.9615C26.0608 48.5581 25.6543 48.1744 25.2194 47.8694C24.811 47.5835 24.3676 47.3461 23.9258 47.1096C23.8052 47.045 23.6846 46.9805 23.5649 46.915C23.0922 46.6493 22.8842 46.2558 22.922 45.7048C22.9283 45.5736 22.943 45.4424 22.9577 45.3112C22.9651 45.2456 22.9724 45.18 22.9787 45.1144C23.0076 44.8166 23.0436 44.5177 23.0796 44.2186C23.1614 43.5395 23.2434 42.8586 23.2434 42.1824C23.2434 40.7754 22.6384 39.5652 21.778 38.5026C23.2718 37.3416 23.5649 35.6984 23.7067 34.0061C23.1384 33.8362 22.6018 33.6709 22.0593 33.5039Z" fill="#F58021"/>
</svg>
