<svg width="49" height="47" viewBox="0 0 49 47" fill="none" xmlns="http://www.w3.org/2000/svg">
<path d="M14.4412 42.0879C17.7028 41.3165 19.7649 39.1512 21.854 36.8506C21.5709 36.7694 21.3553 36.7017 21.1397 36.6476C18.2689 35.9168 15.6273 34.6718 13.2013 32.9801C11.7053 31.9381 10.4788 30.6254 9.54882 29.0285C9.42752 28.8255 9.33318 28.609 9.23883 28.3924C9.21188 28.3383 9.21188 28.2706 9.18492 28.0812C10.1014 28.3654 10.964 28.636 11.8131 28.9067C11.84 28.8796 11.8535 28.8661 11.8805 28.839C11.7861 28.7578 11.7053 28.6766 11.6109 28.609C10.5057 27.8917 9.42752 27.1474 8.30887 26.4707C7.02849 25.6858 5.68071 25.0092 4.44076 24.1972C2.783 23.101 1.61044 21.5582 0.761346 19.7718C0.720913 19.6906 0.707435 19.6094 0.693957 19.5282C0.680479 19.4876 0.693957 19.4335 0.693957 19.3117C2.06868 19.9072 3.34907 20.7462 4.93944 20.5974C1.81261 18.7975 -0.128183 16.2803 0.0065946 12.491C1.34089 13.9661 2.64823 15.4277 3.95557 16.8893C3.98252 16.8622 4.02296 16.8216 4.04991 16.7946C3.5108 15.739 2.87735 14.7105 2.47302 13.6008C2.06869 12.491 1.79913 11.2866 1.66435 10.1092C1.52958 8.93184 1.6374 7.72739 1.6374 6.53648C1.70479 6.52295 1.77218 6.52295 1.82609 6.50942C2.45954 7.94392 3.09299 9.37843 3.72644 10.8265C3.79383 10.8265 3.86122 10.8129 3.92861 10.8129C3.90165 8.20105 4.18469 5.6433 5.3842 3.30207C5.43812 3.30207 5.49203 3.30207 5.54594 3.31561C5.54594 3.89753 5.57289 4.46592 5.54594 5.04784C5.39768 7.90332 6.48938 10.3393 8.12018 12.5587C9.21188 14.0338 10.5596 15.2653 12.0152 16.375C13.9291 17.8366 16.072 18.9057 18.215 19.9613C20.2097 20.9357 21.9618 22.2619 23.6061 23.7506C24.6034 24.6573 25.6412 25.5099 26.6655 26.3895C26.9486 26.6331 27.2316 26.9038 27.5551 27.2015C28.0807 25.9835 28.5659 24.8468 29.0511 23.6964C30.2236 20.9628 31.9892 18.6621 34.1726 16.6728C35.9112 15.0894 37.6768 13.5602 39.4155 11.9903C41.7741 9.85209 43.2431 7.1996 43.7148 4.03286C43.8901 2.90961 43.8092 1.73223 43.8496 0.595455C43.8496 0.405992 43.8496 0.202996 43.917 0C44.7661 1.94877 45.0087 4.00579 45.2109 6.14402C46.0465 4.43885 46.8686 2.73368 47.7043 1.01498C47.7716 1.02851 47.839 1.04205 47.8929 1.05558C47.7986 2.80135 47.7851 4.54712 47.583 6.27935C47.3808 7.99806 46.9899 9.68969 46.6799 11.3272C47.0978 10.6776 47.583 9.93329 48.149 9.08071C48.1894 10.7453 48.1355 12.2474 47.4347 13.6684C46.7473 15.0759 45.6422 16.1314 44.4426 17.1735C45.1031 17.3088 45.6287 17.0788 46.1408 16.8216C46.6395 16.578 47.0978 16.2803 47.6773 15.942C47.6234 16.1991 47.5964 16.375 47.5425 16.5374C46.8147 18.5133 45.6826 20.2184 43.9844 21.477C42.9466 22.2619 41.8414 22.9521 40.8171 23.737C40.1702 24.2378 39.712 24.549 39.685 25.2392C40.1163 25.0904 40.5341 24.955 41.0328 24.7926C40.1972 27.6616 37.9868 29.4209 36.0595 31.478C36.2482 31.5592 36.3964 31.6133 36.5447 31.681C37.5016 32.0734 38.3103 32.6689 38.8629 33.5621C39.2807 34.2252 39.375 34.9289 39.1998 35.7003C39.1459 35.9304 39.2807 36.2416 39.4289 36.4446C39.8872 37.1483 39.9546 37.8656 39.5502 38.5964C39.1594 39.3136 38.5124 39.6655 37.6634 39.7196C38.3372 38.5016 38.3103 38.231 37.3938 37.5814C37.2995 38.0821 37.2051 38.5558 37.1108 39.0565C36.5043 38.5558 35.9786 37.9603 35.3182 37.6085C34.6443 37.2566 33.8492 37.1619 33.0405 36.9318C33.0809 37.1077 33.0809 37.216 33.1214 37.3107C33.7144 38.8129 34.267 40.3421 34.9408 41.8173C35.1834 42.3586 35.6686 42.8187 36.1134 43.2247C36.5312 43.6036 36.8277 43.4683 36.9895 42.9134C37.0973 42.521 37.1377 42.115 37.2051 41.7225C37.2725 41.3707 37.4612 41.2218 37.7038 41.3301C37.7577 41.6549 37.8251 41.912 37.8386 42.1691C37.852 42.4398 37.852 42.724 37.7981 42.9811C37.7442 43.2112 37.596 43.4277 37.4881 43.6442C37.5151 43.6848 37.5555 43.7119 37.5825 43.7525C37.9464 43.5089 38.3238 43.2653 38.6742 43.0082C38.8494 42.8728 38.9842 42.6969 39.1459 42.548C39.7794 41.9661 40.0893 42.0067 40.5341 42.7781C40.2915 42.751 40.0759 42.7104 39.8467 42.6834C39.8063 43.6848 38.755 43.6713 38.3238 44.3479C38.8359 44.3209 39.2942 44.2803 39.7524 44.2803C40.4532 44.2803 40.7363 44.6051 40.6015 45.3223C40.3993 44.8351 40.0624 44.9028 39.7389 45.0381C39.0516 45.3223 38.3507 45.2276 37.6499 45.1329C36.8816 45.0246 36.1943 45.1329 35.5339 45.593C35.1026 45.9042 34.6578 46.202 34.0378 46.0666C33.9031 46.0396 33.6605 46.4862 33.4853 46.7027C33.2022 46.3238 33.2157 45.9584 33.6874 45.6606C33.9839 45.4712 34.3344 45.3765 34.6578 45.2411C34.86 45.1599 35.0756 45.0923 35.2508 44.9569C35.6417 44.6592 35.6417 44.4697 35.2643 44.172C34.3344 43.4142 33.4044 42.6698 32.4744 41.912C32.3936 41.8443 32.2992 41.7902 32.2183 41.7766C30.9919 41.6684 30.318 40.8564 29.8058 39.8685C29.698 39.652 29.6171 39.3542 29.3206 39.5437C29.1589 39.652 28.9837 39.9768 29.0376 40.1391C29.3206 41.2083 29.9406 42.0473 30.8975 42.5886C31.3153 42.521 31.3962 41.4925 31.9892 42.115C31.9353 42.345 31.8949 42.4804 31.8679 42.6157C32.0297 42.6428 32.2049 42.7104 32.3666 42.6969C32.6362 42.6969 32.9057 42.6428 33.1753 42.6157C33.1887 42.6698 33.2022 42.7375 33.2157 42.7916C33.027 42.8864 32.8383 42.9811 32.5822 43.1164C33.8761 43.1841 33.8761 43.1841 33.93 43.8743C33.5122 43.4683 33.1079 43.7931 32.7035 43.8472C31.7871 43.9555 31.1536 44.3885 30.8167 45.2953C30.7088 45.5794 30.4123 45.7824 30.1428 46.0937C30.1563 46.1343 30.1967 46.2696 30.2236 46.4185C29.6441 46.2155 29.5093 45.9313 29.7924 45.4171C30.008 45.0246 30.291 44.6592 30.5471 44.2803C30.7762 43.9419 30.7762 43.6577 30.3449 43.4683C29.6441 43.157 29.0511 42.6563 28.2289 42.5751C27.919 42.548 27.6494 42.1285 27.3394 41.8578C27.1912 42.1014 26.989 42.3856 26.8273 42.7104C26.3555 43.6713 25.5604 44.2532 24.563 44.5239C21.4227 45.39 18.4576 44.9028 15.6947 43.1841C15.2364 42.9134 14.8995 42.4939 14.4412 42.0879Z" fill="#20113D"/>
</svg>
