<svg width="159" height="203" viewBox="0 0 159 203" fill="none" xmlns="http://www.w3.org/2000/svg">
<g filter="url(#filter0_d_37780_9283)">
<path d="M79.1744 27.5C52.8217 27.5 31.5 47.4154 31.5 71.9569C31.5 96.4984 79.1744 166.83 79.1744 166.83C79.1744 166.83 126.849 96.4984 126.849 71.9569C126.849 47.4154 105.527 27.5 79.1744 27.5Z" stroke="white" stroke-width="3" stroke-miterlimit="10" stroke-linejoin="round"/>
</g>
<g filter="url(#filter1_d_37780_9283)">
<path d="M78.7866 33.7271C56.5047 33.7271 38.4766 50.9723 38.4766 72.2233C38.4766 93.4743 78.7866 154.376 78.7866 154.376C78.7866 154.376 119.097 93.4743 119.097 72.2233C119.097 50.9723 101.069 33.7271 78.7866 33.7271Z" fill="white"/>
</g>
<defs>
<filter id="filter0_d_37780_9283" x="0" y="0" width="158.349" height="202.33" filterUnits="userSpaceOnUse" color-interpolation-filters="sRGB">
<feFlood flood-opacity="0" result="BackgroundImageFix"/>
<feColorMatrix in="SourceAlpha" type="matrix" values="0 0 0 0 0 0 0 0 0 0 0 0 0 0 0 0 0 0 127 0" result="hardAlpha"/>
<feOffset dy="4"/>
<feGaussianBlur stdDeviation="15"/>
<feColorMatrix type="matrix" values="0 0 0 0 0 0 0 0 0 0 0 0 0 0 0 0 0 0 0.5 0"/>
<feBlend mode="normal" in2="BackgroundImageFix" result="effect1_dropShadow_37780_9283"/>
<feBlend mode="normal" in="SourceGraphic" in2="effect1_dropShadow_37780_9283" result="shape"/>
</filter>
<filter id="filter1_d_37780_9283" x="8.47656" y="7.72705" width="140.62" height="180.648" filterUnits="userSpaceOnUse" color-interpolation-filters="sRGB">
<feFlood flood-opacity="0" result="BackgroundImageFix"/>
<feColorMatrix in="SourceAlpha" type="matrix" values="0 0 0 0 0 0 0 0 0 0 0 0 0 0 0 0 0 0 127 0" result="hardAlpha"/>
<feOffset dy="4"/>
<feGaussianBlur stdDeviation="15"/>
<feColorMatrix type="matrix" values="0 0 0 0 1 0 0 0 0 1 0 0 0 0 1 0 0 0 0.5 0"/>
<feBlend mode="normal" in2="BackgroundImageFix" result="effect1_dropShadow_37780_9283"/>
<feBlend mode="normal" in="SourceGraphic" in2="effect1_dropShadow_37780_9283" result="shape"/>
</filter>
</defs>
</svg>
