<svg width="30" height="50" viewBox="0 0 30 50" fill="none" xmlns="http://www.w3.org/2000/svg">
<path fill-rule="evenodd" clip-rule="evenodd" d="M14.4941 0.00717715C15.2784 -0.0367242 16.0264 0.124247 16.7961 0.394972C16.7707 0.467555 16.7471 0.538893 16.7239 0.608984C16.6677 0.779127 16.6139 0.94193 16.5419 1.09739C16.3205 1.5765 16.0955 2.0556 15.8704 2.53471L15.8704 2.53476L15.8704 2.5348L15.8704 2.53484L15.8703 2.53489L15.8703 2.53493L15.8703 2.53498L15.8703 2.53502L15.8703 2.53507L15.8702 2.53511L15.8702 2.53515C15.6451 3.01441 15.42 3.49367 15.1985 3.97293L15.1979 3.97428C15.0787 4.23279 15.0206 4.35867 14.923 4.41174C14.8303 4.46211 14.702 4.4469 14.4519 4.41725L14.407 4.41194C14.1529 4.38267 14.0004 4.27292 13.964 4.02415C13.9486 3.91929 13.9291 3.81391 13.9096 3.70843C13.8555 3.41646 13.8013 3.12369 13.8333 2.83881C13.9135 2.13491 14.0433 1.43555 14.173 0.737159L14.173 0.736907L14.1731 0.736673L14.1731 0.736459L14.1732 0.736245L14.1732 0.736027L14.1732 0.735807L14.1733 0.735587L14.1733 0.735367L14.1734 0.735143L14.1736 0.733849C14.2082 0.547676 14.2427 0.361571 14.2763 0.175466C14.2908 0.109614 14.4143 0.014494 14.4941 0.00717715ZM9.12094 1.66109C9.28283 1.90215 9.44249 2.14141 9.60103 2.37899C10.0825 3.10051 10.5536 3.80648 11.0453 4.50004C11.2268 4.76345 11.4737 4.99759 11.8731 4.83662C12.4831 4.60248 12.6356 4.44151 12.454 3.79762C12.2368 3.01498 12.3716 2.26239 12.5069 1.50717L12.507 1.50676C12.5209 1.42898 12.5349 1.35117 12.5484 1.2733C12.5993 0.995255 12.592 0.687946 12.5266 0.409905C12.4976 0.278201 12.2362 0.0806451 12.1345 0.102596C11.0235 0.380637 10.0504 0.929404 9.12094 1.66109ZM6.74827 7.95816C7.25701 8.33243 7.76725 8.7078 8.28652 9.08772C8.11224 9.92916 7.66203 10.4048 6.78337 10.4999C5.57068 10.6243 4.54679 10.1267 3.62456 9.3804C3.57373 9.33649 3.55194 9.17552 3.58825 9.10235C3.64221 8.98138 3.69592 8.86015 3.74966 8.73886C3.98519 8.20724 4.22128 7.67438 4.48143 7.15606C4.55127 7.0103 4.66566 6.8887 4.77516 6.7723C4.82505 6.71926 4.87394 6.66729 4.91713 6.61461C5.53398 7.06483 6.14006 7.51071 6.74827 7.95816ZM7.07298 12.4298C5.70053 12.0859 4.37165 11.7494 2.94111 11.3835C2.91047 11.5533 2.87624 11.7286 2.84125 11.9077L2.84124 11.9077C2.77674 12.2379 2.7097 12.5811 2.65791 12.9274C2.60819 13.2553 2.57535 13.586 2.54188 13.9232C2.52158 14.1276 2.50104 14.3345 2.47637 14.5444C3.6237 15.1224 4.80009 15.2834 5.96195 14.6103C6.78977 14.142 7.11655 13.3664 7.07298 12.4298ZM2.52736 16.3089C2.30951 17.465 2.48379 18.5552 2.89044 19.6162C2.92675 19.704 3.02115 19.7991 3.10829 19.8284C4.82204 20.4064 6.75363 19.2503 7.02231 17.6918C7.05862 17.4796 7.07314 17.2528 7.05862 17.0406C6.97148 16.1114 6.7972 15.9797 5.89676 16.1114L5.63734 16.1493H5.63733H5.63731H5.63729H5.63728H5.63726H5.63724H5.63722H5.63721H5.63719H5.63717H5.63716H5.63714H5.63712H5.6371H5.63709H5.63707H5.63705C5.01914 16.24 4.40055 16.3308 3.77636 16.3821C3.50219 16.4022 3.22116 16.374 2.93095 16.3449L2.93081 16.3449L2.93079 16.3449L2.93074 16.3449L2.93071 16.3449C2.79825 16.3316 2.66387 16.3181 2.52736 16.3089ZM7.40702 23.171C7.98795 21.9271 7.80641 21.0345 6.82609 20.2589C5.80947 21.0345 4.63308 21.3198 3.36956 21.3637C3.28242 21.3637 3.13719 21.4881 3.1154 21.5832C2.91934 22.5125 3.19528 23.3393 3.71085 24.1002C3.75213 24.1603 3.83107 24.1912 3.92023 24.2261L3.92025 24.2261C3.97224 24.2465 4.02771 24.2682 4.0812 24.2978L4.04807 24.3203L4.0072 24.3483L4.00717 24.3483C3.94732 24.3895 3.88902 24.4297 3.82704 24.4661C2.50543 25.2636 1.43797 26.3099 0.806204 27.7367C-0.0216217 29.6172 -0.319345 31.5562 0.428602 33.5537C0.563223 33.9127 0.68705 34.2783 0.810677 34.6433C0.91378 34.9477 1.01674 35.2517 1.12572 35.5512C1.4888 36.5609 1.51785 37.5999 1.22738 38.6096C0.370508 41.5583 1.17655 44.2656 2.31663 46.9362C2.41667 47.1595 2.58001 47.3614 2.73744 47.5561L2.74506 47.5655C2.96291 47.8362 3.24611 47.924 3.58741 47.8069C3.92871 47.6826 4.1756 47.4557 4.16108 47.0972C4.14655 46.6362 4.08846 46.1753 3.97953 45.729C3.89609 45.3743 3.79449 45.0234 3.69289 44.6724L3.69288 44.6724L3.69287 44.6723L3.69286 44.6723L3.69284 44.6722L3.69283 44.6722L3.69282 44.6721L3.69281 44.6721L3.6928 44.6721L3.69279 44.672L3.69278 44.672L3.69276 44.6719L3.69275 44.6719L3.69274 44.6718L3.69273 44.6718L3.69272 44.6717L3.69271 44.6717L3.6927 44.6716C3.59104 44.3204 3.48938 43.9692 3.40587 43.6144C3.1735 42.612 3.47122 41.7852 4.28452 41.1632C4.31933 41.1375 4.35339 41.111 4.38719 41.0848C4.45916 41.0289 4.52992 40.9739 4.60404 40.9291C5.83125 40.2193 6.58646 39.1072 7.21096 37.8706C7.38536 37.5192 7.61104 37.1918 7.8364 36.865C7.93946 36.7155 8.04246 36.5661 8.14045 36.4146L8.22759 36.4585C8.27116 36.6633 8.31564 36.8682 8.36012 37.0731C8.49355 37.6877 8.62698 38.3023 8.7359 38.9169C9.22243 41.5876 10.7909 43.5997 12.6063 45.4729C12.7854 45.6605 13.021 45.7983 13.2434 45.9284L13.2526 45.9338C13.5576 46.1168 13.8699 46.1168 14.1603 45.8753C14.4581 45.6265 14.567 45.3119 14.4363 44.9607C14.3056 44.6241 14.1386 44.2948 13.9352 43.9949C13.7244 43.688 13.4967 43.3937 13.2692 43.0997L13.2691 43.0996L13.2688 43.0993C13.0734 42.8467 12.878 42.5942 12.6935 42.3339C11.8294 41.1193 11.793 40.2632 12.6427 39.0486C13.318 38.0755 13.7827 37.0145 14.1966 35.8658C14.3121 35.9199 14.4255 35.97 14.5366 36.019L14.537 36.0192C14.7263 36.1028 14.9088 36.1834 15.0826 36.2755C16.8689 37.256 17.9654 38.7999 18.619 40.6949C18.8844 41.4508 19.1132 42.2205 19.3417 42.9894L19.342 42.9905C19.4009 43.1888 19.4599 43.3871 19.5194 43.5851C19.73 44.2875 20.0713 44.9095 20.536 45.4655C20.7129 45.6758 20.8895 45.886 21.066 46.0961L21.0673 46.0977C21.8981 47.0865 22.7273 48.0736 23.5714 49.0508C23.811 49.3289 24.1015 49.5923 24.4138 49.7898C24.9802 50.1484 25.532 50.0386 26.0549 49.5337C26.4325 49.1679 26.4978 48.7142 26.1565 48.1362C25.9608 47.8033 25.7083 47.5015 25.4599 47.2047L25.4597 47.2045L25.4593 47.204C25.4131 47.1488 25.367 47.0937 25.3215 47.0387C25.1762 46.8631 25.0092 46.6948 24.8349 46.5484C23.3608 45.2826 22.9977 43.6071 23.0631 41.7705C23.0736 41.4622 23.111 41.1538 23.1474 40.8538C23.1611 40.741 23.1746 40.6293 23.1865 40.5193C23.414 40.4756 23.6388 40.4318 23.8586 40.389C24.2634 40.3101 24.6516 40.2345 25.0092 40.1681C25.1446 40.4687 25.2713 40.7758 25.3982 41.0836L25.3982 41.0837C25.6729 41.7497 25.9488 42.4185 26.3163 43.029C26.8569 43.929 27.4974 44.7667 28.1377 45.6042C28.2886 45.8016 28.4396 45.999 28.5892 46.1972C28.8433 46.5338 29.1846 46.8045 29.6494 46.6948C29.8963 46.6362 30.0851 45.9631 29.9616 45.4875C29.8455 45.0412 29.7075 44.5875 29.4824 44.1924C28.4803 42.4144 28.0954 40.4608 27.8267 38.4779C27.6887 37.4682 27.0933 37.0145 26.0912 37.2121C24.2177 37.5853 22.3369 37.7682 20.4271 37.5999C20.2964 37.5853 20.1657 37.556 20.035 37.5267C18.6843 37.2048 18.147 35.9463 18.8441 34.7244C18.8659 34.6805 18.8877 34.6366 18.924 34.6C19.5732 33.9404 19.9251 33.1211 20.2784 32.2984C20.4033 32.0076 20.5283 31.7165 20.6668 31.4318C20.9427 30.8757 21.4655 30.4074 21.9666 29.9977C22.5838 29.5001 23.339 29.2513 24.116 29.083C24.225 29.0611 24.3847 28.9587 24.4065 28.8709C24.4283 28.7684 24.3411 28.5782 24.254 28.5343C24.1985 28.5079 24.1428 28.4808 24.0867 28.4535C23.7537 28.2916 23.4101 28.1245 23.0558 28.0806C22.4749 28.0075 21.8722 28.0221 21.284 28.0806C20.6304 28.1465 20.0495 27.9416 19.5049 27.6782C18.924 27.4002 18.3721 27.0197 17.8492 26.6392C16.4187 25.5929 14.9736 24.5758 13.3325 23.8807C11.5752 23.1271 9.75253 22.8783 7.86451 23.1564C7.72653 23.1417 7.57404 23.1491 7.40702 23.171ZM15.3724 21.7624C14.7915 22.1283 14.1597 22.2893 13.4771 22.2893C12.8236 22.2673 12.1991 22.1356 11.669 21.7259C11.0808 21.2795 10.8557 20.621 11.197 19.9844C11.4148 19.5838 11.7184 19.2326 12.0221 18.8814C12.1233 18.7644 12.2245 18.6473 12.3225 18.5284C12.3733 18.4699 12.4968 18.4479 12.5839 18.4552C14.1597 18.6089 15.3796 19.6991 15.6629 21.0747C15.7355 21.4112 15.6411 21.5942 15.3724 21.7624ZM7.48653 2.94272C8.31435 3.57197 9.47622 5.00608 10.2677 6.35971L10.1861 6.46378L10.1861 6.46383C9.99876 6.70251 9.82186 6.92795 9.65049 7.16456C9.498 7.37675 9.31646 7.42797 9.05504 7.34749C7.71164 6.91579 6.78941 5.94996 5.81635 4.91096C6.38276 4.24513 6.93464 3.59392 7.48653 2.94272ZM18.815 7.43573C19.4134 6.9164 20.1422 6.82562 20.8754 6.73431C21.0409 6.7137 21.2066 6.69306 21.3711 6.66746C21.7487 6.60892 22.1263 6.49917 22.4894 6.3821C22.5693 6.35283 22.6854 6.2065 22.6709 6.13333C22.562 5.40896 22.3369 4.72849 21.7342 4.26021C21.6325 4.17972 21.4655 4.1285 21.3493 4.14314C20.4634 4.28216 19.6428 4.58947 18.9094 5.10896C18.8223 5.17482 18.7351 5.24067 18.6552 5.31384C17.9 6.01626 17.9509 6.8138 18.815 7.43573ZM19.0983 19.4406C18.3649 18.1236 15.1698 16.8651 14.342 17.5748C14.342 17.5968 14.342 17.6333 14.3565 17.6407C15.3441 18.504 16.0557 19.5943 16.7456 20.6991C16.9126 20.9698 17.0796 20.9845 17.341 20.8967C17.951 20.6918 18.6481 20.1211 19.0983 19.4406ZM23.9774 33.6417C23.8685 34.2051 23.6434 34.3734 23.0624 34.3881C22.9604 34.3689 22.8583 34.3537 22.7567 34.3386C22.5476 34.3074 22.3406 34.2765 22.1402 34.2125C21.4866 34.0149 21.2034 33.5539 21.3269 32.8735C21.3705 32.6247 21.4649 32.3832 21.5738 32.1564C21.9659 31.3589 22.6122 30.7955 23.3529 30.3418C23.607 30.1882 23.912 30.0931 24.2025 30.0418C24.3367 30.0158 24.4857 30.0527 24.6336 30.0893C24.6938 30.1042 24.7537 30.1191 24.8125 30.1296C24.8002 30.1833 24.7908 30.24 24.7813 30.2969C24.7573 30.4415 24.7329 30.588 24.66 30.693C24.2388 31.3003 24.1154 31.9808 24.0791 32.6979C24.0645 33.0125 24.0355 33.3344 23.9774 33.6417ZM22.634 32.5735C22.3145 32.5735 22.0313 32.8588 22.0385 33.1808C22.0406 33.2738 22.0641 33.3616 22.1042 33.4396C22.0646 33.362 22.0414 33.2748 22.0393 33.1823C22.0393 32.8604 22.3153 32.575 22.6348 32.575C22.8604 32.575 23.0583 32.7041 23.1569 32.8948C23.0586 32.7032 22.8602 32.5735 22.634 32.5735ZM19.033 9.4669L19.8766 9.53707L19.8768 9.53709L19.877 9.53711L19.8775 9.53715C20.9832 9.62892 22.0668 9.71885 23.1503 9.81811C23.4698 9.84738 23.5715 9.72299 23.6005 9.423C23.6586 8.77911 23.4408 8.27425 22.9034 7.92304C21.9957 7.33769 20.3764 7.44012 19.5486 8.14254C19.1274 8.49375 18.9458 8.94008 19.033 9.4669ZM18.3795 1.04493C19.2509 1.52052 20.0787 2.00344 20.6596 2.83025C19.3235 3.62047 18.0309 4.38874 16.7383 5.16433C16.4987 4.78385 16.4697 4.52776 16.6439 3.99363C16.9753 2.96487 17.6025 2.10739 18.2384 1.23808L18.3795 1.04493ZM16.4044 16.2444C17.3101 16.5547 18.0379 17.1155 18.7798 17.687L18.7798 17.687C19.2275 18.032 19.6803 18.3808 20.1804 18.681C20.2489 18.5723 20.3171 18.4646 20.3848 18.3575L20.3849 18.3575C20.6549 17.9307 20.9184 17.5143 21.168 17.0932C21.2043 17.0347 21.1825 16.8664 21.1244 16.8225C20.1804 16.0761 19.1638 15.4762 17.9221 15.4176C17.3048 15.403 16.7529 15.564 16.4044 16.2444ZM23.3101 11.3865C23.2956 11.9859 23.2808 12.5999 22.8963 13.1042C22.7454 13.0542 22.5962 13.0037 22.4479 12.9535L22.4479 12.9535L22.4478 12.9534C22.0539 12.82 21.6673 12.6891 21.2769 12.5774C20.5871 12.3945 19.8972 12.2262 19.2001 12.0726C18.9387 12.014 18.8806 11.8823 18.9169 11.6335C19.0113 10.9458 19.4833 10.5214 20.2821 10.4921C21.306 10.4482 22.25 10.7921 23.1722 11.2019C23.2376 11.2311 23.3102 11.3262 23.3102 11.3848L23.3101 11.3865ZM20.7457 33.6562C20.5907 33.8471 20.452 34.015 20.3226 34.1715C20.1794 34.3449 20.0476 34.5044 19.9179 34.6659C19.8733 34.7215 19.8269 34.7758 19.7807 34.8299L19.7807 34.83C19.6685 34.9612 19.5572 35.0916 19.4749 35.2366C19.2062 35.7049 19.337 36.2171 19.8307 36.4293C20.2229 36.5975 20.6586 36.7073 21.0797 36.7512C22.2053 36.8756 23.3163 36.7658 24.4056 36.4366C24.333 35.9244 24.1006 35.6903 23.5923 35.639C23.3386 35.6162 23.082 35.6076 22.8262 35.5991H22.8262H22.8261H22.8261C22.6719 35.5939 22.518 35.5888 22.3651 35.5805C21.3775 35.522 21.2177 35.3683 21.0217 34.4025C20.9876 34.2406 20.9208 34.0819 20.8499 33.9133C20.815 33.8305 20.7792 33.7453 20.7457 33.6562ZM21.6616 15.7672C20.4997 15.1599 19.3161 14.6331 18.0017 14.3697C18.1905 13.4331 18.8077 13.016 19.7808 13.1404C20.7611 13.2575 21.6325 13.6672 22.4313 14.2306C22.5112 14.2892 22.6128 14.4209 22.5911 14.4794C22.4313 14.8892 22.2643 15.3062 22.0537 15.694C22.0101 15.7672 21.756 15.8184 21.6616 15.7672ZM24.8496 32.1061C24.8496 32.867 24.9731 32.9914 25.554 32.8817C25.7937 32.8378 26.0478 32.7353 26.2439 32.589C26.9991 32.0256 27.2097 30.6646 26.6868 29.911C26.5634 29.7354 26.4545 29.6622 26.2511 29.8086C25.4088 30.4305 24.886 31.2134 24.8496 32.1061Z" fill="#F58021"/>
</svg>
