<svg width="23" height="20" viewBox="0 0 23 20" fill="none" xmlns="http://www.w3.org/2000/svg">
<mask id="path-1-outside-1_37010_2736" maskUnits="userSpaceOnUse" x="-0.90625" y="-0.90625" width="20" height="21" fill="black">
<rect fill="white" x="-0.90625" y="-0.90625" width="20" height="21"/>
<path fill-rule="evenodd" clip-rule="evenodd" d="M6.89908 2.1875C6.89908 1.58344 7.38877 1.09375 7.99283 1.09375H10.1803C10.7844 1.09375 11.2741 1.58344 11.2741 2.1875V2.88115C11.2741 3.34467 11.5706 3.74984 11.9863 3.95493C12.0739 3.99816 12.1605 4.0433 12.2458 4.09028C12.6522 4.31393 13.1547 4.32467 13.5346 4.0586L14.1035 3.66026C14.5983 3.31379 15.2803 3.43404 15.6268 3.92886L16.8815 5.72074C17.228 6.21557 17.1077 6.89758 16.6129 7.24405L16.0442 7.64221C15.6647 7.90798 15.5028 8.38307 15.573 8.84109C15.6231 9.16795 15.6491 9.5028 15.6491 9.84375C15.6491 10.1846 15.6231 10.5194 15.573 10.8462C15.5028 11.3042 15.6647 11.7792 16.0442 12.045L16.613 12.4432C17.1078 12.7897 17.2281 13.4717 16.8816 13.9665L15.6269 15.7583C15.2804 16.2532 14.5984 16.3734 14.1036 16.0269L13.5349 15.6287C13.1549 15.3626 12.6524 15.3733 12.246 15.597C12.1606 15.6441 12.074 15.6892 11.9863 15.7325C11.5706 15.9377 11.2741 16.3428 11.2741 16.8064V17.5C11.2741 18.1041 10.7844 18.5937 10.1803 18.5937H7.99283C7.38877 18.5937 6.89908 18.1041 6.89908 17.5V16.8064C6.89908 16.3428 6.60253 15.9377 6.18687 15.7325C6.09917 15.6892 6.01258 15.6441 5.92715 15.597C5.52075 15.3733 5.01831 15.3626 4.63831 15.6287L4.06966 16.0269C3.57484 16.3734 2.89281 16.2532 2.54632 15.7583L1.29165 13.9665C0.945171 13.4717 1.06543 12.7897 1.56024 12.4432L2.12895 12.045C2.50847 11.7792 2.67035 11.3042 2.60016 10.8462C2.55007 10.5194 2.52408 10.1846 2.52408 9.84375C2.52408 9.50279 2.55009 9.16795 2.6002 8.84108C2.67043 8.38307 2.50856 7.90798 2.12899 7.64221L1.56033 7.24405C1.06551 6.89758 0.945243 6.21557 1.29172 5.72074L2.54641 3.92887C2.89289 3.43405 3.5749 3.3138 4.06972 3.66029L4.63852 4.05858C5.01851 4.32466 5.52094 4.31393 5.92736 4.09027C6.01272 4.04329 6.09925 3.99816 6.18688 3.95493C6.60255 3.74984 6.89908 3.34467 6.89908 2.88115V2.1875ZM9.08638 12.0312C10.2945 12.0312 11.2739 11.0519 11.2739 9.84375C11.2739 8.63563 10.2945 7.65625 9.08638 7.65625C7.87826 7.65625 6.89888 8.63563 6.89888 9.84375C6.89888 11.0519 7.87826 12.0312 9.08638 12.0312Z"/>
</mask>
<path fill-rule="evenodd" clip-rule="evenodd" d="M6.89908 2.1875C6.89908 1.58344 7.38877 1.09375 7.99283 1.09375H10.1803C10.7844 1.09375 11.2741 1.58344 11.2741 2.1875V2.88115C11.2741 3.34467 11.5706 3.74984 11.9863 3.95493C12.0739 3.99816 12.1605 4.0433 12.2458 4.09028C12.6522 4.31393 13.1547 4.32467 13.5346 4.0586L14.1035 3.66026C14.5983 3.31379 15.2803 3.43404 15.6268 3.92886L16.8815 5.72074C17.228 6.21557 17.1077 6.89758 16.6129 7.24405L16.0442 7.64221C15.6647 7.90798 15.5028 8.38307 15.573 8.84109C15.6231 9.16795 15.6491 9.5028 15.6491 9.84375C15.6491 10.1846 15.6231 10.5194 15.573 10.8462C15.5028 11.3042 15.6647 11.7792 16.0442 12.045L16.613 12.4432C17.1078 12.7897 17.2281 13.4717 16.8816 13.9665L15.6269 15.7583C15.2804 16.2532 14.5984 16.3734 14.1036 16.0269L13.5349 15.6287C13.1549 15.3626 12.6524 15.3733 12.246 15.597C12.1606 15.6441 12.074 15.6892 11.9863 15.7325C11.5706 15.9377 11.2741 16.3428 11.2741 16.8064V17.5C11.2741 18.1041 10.7844 18.5937 10.1803 18.5937H7.99283C7.38877 18.5937 6.89908 18.1041 6.89908 17.5V16.8064C6.89908 16.3428 6.60253 15.9377 6.18687 15.7325C6.09917 15.6892 6.01258 15.6441 5.92715 15.597C5.52075 15.3733 5.01831 15.3626 4.63831 15.6287L4.06966 16.0269C3.57484 16.3734 2.89281 16.2532 2.54632 15.7583L1.29165 13.9665C0.945171 13.4717 1.06543 12.7897 1.56024 12.4432L2.12895 12.045C2.50847 11.7792 2.67035 11.3042 2.60016 10.8462C2.55007 10.5194 2.52408 10.1846 2.52408 9.84375C2.52408 9.50279 2.55009 9.16795 2.6002 8.84108C2.67043 8.38307 2.50856 7.90798 2.12899 7.64221L1.56033 7.24405C1.06551 6.89758 0.945243 6.21557 1.29172 5.72074L2.54641 3.92887C2.89289 3.43405 3.5749 3.3138 4.06972 3.66029L4.63852 4.05858C5.01851 4.32466 5.52094 4.31393 5.92736 4.09027C6.01272 4.04329 6.09925 3.99816 6.18688 3.95493C6.60255 3.74984 6.89908 3.34467 6.89908 2.88115V2.1875ZM9.08638 12.0312C10.2945 12.0312 11.2739 11.0519 11.2739 9.84375C11.2739 8.63563 10.2945 7.65625 9.08638 7.65625C7.87826 7.65625 6.89888 8.63563 6.89888 9.84375C6.89888 11.0519 7.87826 12.0312 9.08638 12.0312Z" fill="#EAEAEA"/>
<path d="M1.56033 7.24405L2.18767 6.34809L1.56033 7.24405ZM2.12899 7.64221L2.75632 6.74626L2.12899 7.64221ZM2.60016 10.8462L1.51904 11.0119L2.60016 10.8462ZM1.29165 13.9665L0.3957 14.5938L1.29165 13.9665ZM1.56024 12.4432L0.932896 11.5472L1.56024 12.4432ZM4.06966 16.0269L3.44227 15.131L4.06966 16.0269ZM2.54632 15.7583L1.65037 16.3857L2.54632 15.7583ZM6.18687 15.7325L6.67092 14.7517L6.18687 15.7325ZM11.9863 15.7325L12.4703 16.7133L11.9863 15.7325ZM15.6269 15.7583L14.731 15.131L15.6269 15.7583ZM14.1036 16.0269L13.4762 16.9228L14.1036 16.0269ZM16.613 12.4432L17.2403 11.5472L16.613 12.4432ZM16.8816 13.9665L15.9856 13.3391L16.8816 13.9665ZM15.573 10.8462L14.4919 10.6805L15.573 10.8462ZM15.573 8.84109L14.4919 9.00679L15.573 8.84109ZM16.8815 5.72074L17.7775 5.09339L16.8815 5.72074ZM16.6129 7.24405L17.2402 8.14001L16.6129 7.24405ZM14.1035 3.66026L13.4762 2.76432L14.1035 3.66026ZM13.5346 4.0586L14.162 4.95454L13.5346 4.0586ZM11.9863 3.95493L11.5024 4.93579L11.9863 3.95493ZM12.246 15.597L12.7735 16.5552L12.246 15.597ZM2.54641 3.92887L1.65046 3.30152L2.54641 3.92887ZM4.06972 3.66029L3.44235 4.55622L4.06972 3.66029ZM10.1803 1.09375V1.19209e-07H7.99283V1.09375V2.1875H10.1803V1.09375ZM11.2741 2.88115H12.3678V2.1875H11.2741H10.1803V2.88115H11.2741ZM12.2458 4.09028L12.7731 3.13204C12.6735 3.07721 12.5725 3.02454 12.4702 2.97407L11.9863 3.95493L11.5024 4.93579C11.5753 4.97179 11.6474 5.00938 11.7185 5.04851L12.2458 4.09028ZM14.1035 3.66026L13.4762 2.76432L12.9073 3.16265L13.5346 4.0586L14.162 4.95454L14.7309 4.55621L14.1035 3.66026ZM16.8815 5.72074L17.7775 5.09339L16.5228 3.30151L15.6268 3.92886L14.7309 4.55621L15.9856 6.34809L16.8815 5.72074ZM16.0442 7.64221L16.6716 8.53817L17.2402 8.14001L16.6129 7.24405L15.9856 6.34809L15.4169 6.74626L16.0442 7.64221ZM15.6491 9.84375H16.7428C16.7428 9.44715 16.7126 9.05691 16.6541 8.67538L15.573 8.84109L14.4919 9.00679C14.5336 9.27899 14.5553 9.55844 14.5553 9.84375H15.6491ZM15.573 10.8462L16.6541 11.0119C16.7126 10.6304 16.7428 10.2402 16.7428 9.84375H15.6491H14.5553C14.5553 10.1289 14.5336 10.4083 14.4919 10.6805L15.573 10.8462ZM16.613 12.4432L17.2403 11.5472L16.6716 11.149L16.0442 12.045L15.4169 12.9409L15.9856 13.3391L16.613 12.4432ZM15.6269 15.7583L16.5229 16.3857L17.7775 14.5938L16.8816 13.9665L15.9856 13.3391L14.731 15.131L15.6269 15.7583ZM13.5349 15.6287L12.9075 16.5246L13.4762 16.9228L14.1036 16.0269L14.731 15.131L14.1622 14.7327L13.5349 15.6287ZM11.9863 15.7325L12.4703 16.7133C12.5727 16.6628 12.6738 16.6101 12.7735 16.5552L12.246 15.597L11.7186 14.6389C11.6474 14.678 11.5753 14.7157 11.5023 14.7517L11.9863 15.7325ZM11.2741 17.5H12.3678V16.8064H11.2741H10.1803V17.5H11.2741ZM7.99283 18.5937V19.6875H10.1803V18.5937V17.5H7.99283V18.5937ZM6.89908 16.8064H5.80533V17.5H6.89908H7.99283V16.8064H6.89908ZM5.92715 15.597L5.39969 16.5552C5.49938 16.6101 5.60045 16.6628 5.70282 16.7133L6.18687 15.7325L6.67092 14.7517C6.59789 14.7157 6.52577 14.678 6.4546 14.6389L5.92715 15.597ZM4.06966 16.0269L4.69705 16.9228L5.2657 16.5246L4.63831 15.6287L4.01092 14.7328L3.44227 15.131L4.06966 16.0269ZM1.29165 13.9665L0.3957 14.5938L1.65037 16.3857L2.54632 15.7583L3.44227 15.131L2.18759 13.3391L1.29165 13.9665ZM2.12895 12.045L1.5016 11.149L0.932896 11.5472L1.56024 12.4432L2.18759 13.3391L2.75629 12.9409L2.12895 12.045ZM2.52408 9.84375H1.43033C1.43033 10.2402 1.46057 10.6304 1.51904 11.0119L2.60016 10.8462L3.68129 10.6805C3.63957 10.4083 3.61783 10.1289 3.61783 9.84375H2.52408ZM2.6002 8.84108L1.51909 8.67531C1.46059 9.05684 1.43033 9.44711 1.43033 9.84375H2.52408H3.61783C3.61783 9.55848 3.63958 9.27905 3.68132 9.00685L2.6002 8.84108ZM1.56033 7.24405L0.932999 8.14001L1.50165 8.53817L2.12899 7.64221L2.75632 6.74626L2.18767 6.34809L1.56033 7.24405ZM2.54641 3.92887L1.65046 3.30152L0.395776 5.09339L1.29172 5.72074L2.18767 6.34809L3.44235 4.55622L2.54641 3.92887ZM4.63852 4.05858L5.26588 3.16264L4.69708 2.76435L4.06972 3.66029L3.44235 4.55622L4.01115 4.95452L4.63852 4.05858ZM6.18688 3.95493L5.70294 2.97407C5.60065 3.02453 5.49966 3.07721 5.40003 3.13203L5.92736 4.09027L6.45468 5.04851C6.52579 5.00938 6.59785 4.97179 6.67082 4.93579L6.18688 3.95493ZM6.89908 2.1875H5.80533V2.88115H6.89908H7.99283V2.1875H6.89908ZM11.2739 9.84375H10.1801C10.1801 10.4478 9.69044 10.9375 9.08638 10.9375V12.0312V13.125C10.8986 13.125 12.3676 11.6559 12.3676 9.84375H11.2739ZM9.08638 7.65625V8.75C9.69044 8.75 10.1801 9.23969 10.1801 9.84375H11.2739H12.3676C12.3676 8.03157 10.8986 6.5625 9.08638 6.5625V7.65625ZM6.89888 9.84375H7.99263C7.99263 9.23969 8.48232 8.75 9.08638 8.75V7.65625V6.5625C7.2742 6.5625 5.80513 8.03156 5.80513 9.84375H6.89888ZM9.08638 12.0312V10.9375C8.48232 10.9375 7.99263 10.4478 7.99263 9.84375H6.89888H5.80513C5.80513 11.6559 7.2742 13.125 9.08638 13.125V12.0312ZM6.18688 3.95493L6.67082 4.93579C7.39246 4.57975 7.99283 3.83128 7.99283 2.88115H6.89908H5.80533C5.80533 2.87421 5.80852 2.87923 5.79528 2.89865C5.78016 2.92081 5.74968 2.951 5.70294 2.97407L6.18688 3.95493ZM1.56033 7.24405L2.18767 6.34809H2.18767L1.29172 5.72074L0.395776 5.09339C-0.297183 6.08304 -0.0566593 7.44707 0.932999 8.14001L1.56033 7.24405ZM2.6002 8.84108L3.68132 9.00685C3.80324 8.21168 3.53434 7.29101 2.75632 6.74626L2.12899 7.64221L1.50165 8.53817C1.49598 8.5342 1.50192 8.53448 1.51024 8.55647C1.51973 8.58155 1.52698 8.62382 1.51909 8.67531L2.6002 8.84108ZM2.12895 12.045L2.75629 12.9409C3.53421 12.3962 3.80315 11.4757 3.68129 10.6805L2.60016 10.8462L1.51904 11.0119C1.52693 11.0634 1.51967 11.1057 1.51018 11.1307C1.50187 11.1527 1.49592 11.153 1.5016 11.149L2.12895 12.045ZM1.29165 13.9665L2.18759 13.3391H2.18759L1.56024 12.4432L0.932896 11.5472C-0.0567416 12.2402 -0.297252 13.6042 0.3957 14.5938L1.29165 13.9665ZM4.06966 16.0269L3.44227 15.131V15.131L2.54632 15.7583L1.65037 16.3857C2.34335 17.3753 3.70741 17.6158 4.69705 16.9228L4.06966 16.0269ZM5.92715 15.597L6.4546 14.6389C5.74846 14.2501 4.78983 14.1873 4.01092 14.7328L4.63831 15.6287L5.2657 16.5246C5.26003 16.5286 5.26227 16.5231 5.28561 16.5228C5.31227 16.5225 5.35426 16.5302 5.39969 16.5552L5.92715 15.597ZM6.89908 16.8064H7.99283C7.99283 15.8562 7.39243 15.1078 6.67092 14.7517L6.18687 15.7325L5.70282 16.7133C5.74961 16.7364 5.78012 16.7666 5.79526 16.7888C5.80852 16.8083 5.80533 16.8133 5.80533 16.8064H6.89908ZM7.99283 18.5937V17.5V17.5H6.89908H5.80533C5.80533 18.7081 6.78471 19.6875 7.99283 19.6875V18.5937ZM11.2741 17.5H10.1803V17.5V18.5937V19.6875C11.3885 19.6875 12.3678 18.7081 12.3678 17.5H11.2741ZM11.9863 15.7325L11.5023 14.7517C10.7807 15.1078 10.1803 15.8562 10.1803 16.8064H11.2741H12.3678C12.3678 16.8133 12.3646 16.8083 12.3779 16.7888C12.393 16.7666 12.4236 16.7364 12.4703 16.7133L11.9863 15.7325ZM15.6269 15.7583L14.731 15.131V15.131L14.1036 16.0269L13.4762 16.9228C14.4658 17.6158 15.8299 17.3754 16.5229 16.3857L15.6269 15.7583ZM16.613 12.4432L15.9856 13.3391V13.3391L16.8816 13.9665L17.7775 14.5938C18.4705 13.6042 18.23 12.2402 17.2403 11.5472L16.613 12.4432ZM15.573 10.8462L14.4919 10.6805C14.37 11.4757 14.639 12.3962 15.4169 12.9409L16.0442 12.045L16.6716 11.149C16.6772 11.153 16.6713 11.1527 16.663 11.1307C16.6535 11.1056 16.6462 11.0634 16.6541 11.0119L15.573 10.8462ZM16.0442 7.64221L15.4169 6.74626C14.6389 7.29101 14.37 8.21166 14.4919 9.00679L15.573 8.84109L16.6541 8.67538C16.6462 8.62386 16.6535 8.58158 16.663 8.55648C16.6713 8.53448 16.6773 8.5342 16.6716 8.53817L16.0442 7.64221ZM16.8815 5.72074L15.9856 6.34809V6.34809L16.6129 7.24405L17.2402 8.14001C18.2299 7.44707 18.4704 6.08304 17.7775 5.09339L16.8815 5.72074ZM14.1035 3.66026L14.7309 4.55621V4.55621L15.6268 3.92886L16.5228 3.30151C15.8298 2.31187 14.4658 2.07136 13.4762 2.76432L14.1035 3.66026ZM12.2458 4.09028L11.7185 5.04851C12.4246 5.43706 13.3831 5.49994 14.162 4.95454L13.5346 4.0586L12.9073 3.16265C12.913 3.15868 12.9107 3.16414 12.8874 3.16441C12.8607 3.16472 12.8186 3.15707 12.7731 3.13204L12.2458 4.09028ZM11.2741 2.88115H10.1803C10.1803 3.83128 10.7807 4.57975 11.5024 4.93579L11.9863 3.95493L12.4702 2.97407C12.4235 2.951 12.393 2.92081 12.3779 2.89865C12.3646 2.87923 12.3678 2.87421 12.3678 2.88115H11.2741ZM4.63852 4.05858L4.01115 4.95452C4.79007 5.49994 5.74862 5.43706 6.45468 5.04851L5.92736 4.09027L5.40003 3.13203C5.35455 3.15707 5.31252 3.16471 5.28582 3.1644C5.26245 3.16413 5.26021 3.15867 5.26588 3.16264L4.63852 4.05858ZM7.99283 1.09375V1.19209e-07C6.78471 1.19209e-07 5.80533 0.979377 5.80533 2.1875H6.89908H7.99283H7.99283V1.09375ZM13.5349 15.6287L14.1622 14.7327C13.3833 14.1873 12.4247 14.2501 11.7186 14.6389L12.246 15.597L12.7735 16.5552C12.8189 16.5302 12.8609 16.5225 12.8876 16.5228C12.9109 16.5231 12.9131 16.5286 12.9075 16.5246L13.5349 15.6287ZM2.54641 3.92887L3.44235 4.55622L3.44235 4.55622L4.06972 3.66029L4.69708 2.76435C3.70744 2.07137 2.34342 2.31188 1.65046 3.30152L2.54641 3.92887ZM10.1803 1.09375V2.1875H10.1803H11.2741H12.3678C12.3678 0.979377 11.3885 1.19209e-07 10.1803 1.19209e-07V1.09375Z" fill="black" fill-opacity="0.1" mask="url(#path-1-outside-1_37010_2736)"/>
<rect x="8.75" y="1.09375" width="14.2187" height="9.84375" rx="1.09375" fill="#F58021"/>
<g filter="url(#filter0_d_37010_2736)">
<path d="M10.9375 3.28125H12.0312V5.46875H14.2187V3.28125H15.3125V8.75H14.2187V6.5625H12.0312V8.75H10.9375V3.28125Z" fill="#F1F2F1"/>
<path d="M16.4062 3.28125H19.6875V4.375H17.5V7.65625H19.6875V8.75H16.4062V3.28125Z" fill="#F1F2F1"/>
<path d="M19.6875 7.65625V4.375H20.7812V7.65625H19.6875Z" fill="#F1F2F1"/>
</g>
<defs>
<filter id="filter0_d_37010_2736" x="10.9375" y="3.28125" width="9.84375" height="6.5625" filterUnits="userSpaceOnUse" color-interpolation-filters="sRGB">
<feFlood flood-opacity="0" result="BackgroundImageFix"/>
<feColorMatrix in="SourceAlpha" type="matrix" values="0 0 0 0 0 0 0 0 0 0 0 0 0 0 0 0 0 0 127 0" result="hardAlpha"/>
<feOffset dy="1.09375"/>
<feColorMatrix type="matrix" values="0 0 0 0 0.337255 0 0 0 0 0.0392157 0 0 0 0 0.0588235 0 0 0 1 0"/>
<feBlend mode="normal" in2="BackgroundImageFix" result="effect1_dropShadow_37010_2736"/>
<feBlend mode="normal" in="SourceGraphic" in2="effect1_dropShadow_37010_2736" result="shape"/>
</filter>
</defs>
</svg>
