<svg width="59" height="44" viewBox="0 0 59 44" fill="none" xmlns="http://www.w3.org/2000/svg">
<path fill-rule="evenodd" clip-rule="evenodd" d="M21.0975 27.0633C18.6789 27.7851 16.2416 27.6741 13.7855 26.0639C13.597 26.2978 13.4039 26.5332 13.2089 26.771L13.2084 26.7716L13.2083 26.7716L13.2083 26.7716L13.2083 26.7717L13.2083 26.7717C12.7243 27.3617 12.2282 27.9665 11.7606 28.5994C11.4138 29.0899 11.0904 29.5988 10.767 30.1078L10.767 30.1078L10.7669 30.1079C10.4435 30.6168 10.1201 31.1258 9.77329 31.6162C9.0046 32.7081 8.72337 33.8926 8.79836 35.2067C8.8921 36.8909 8.21715 37.7422 6.54852 38.0383C3.11753 38.6491 0.042753 36.132 0.0240044 32.7081C0.0240044 32.3738 0.0179602 32.0394 0.0119377 31.7063C0.00295823 31.2096 -0.00597314 30.7155 0.0052489 30.2281C0.036773 28.9211 0.611598 27.7842 1.18384 26.6523C1.29227 26.4379 1.40061 26.2236 1.50514 26.0084C1.77559 25.4548 2.04858 24.902 2.32159 24.3492L2.32163 24.3491L2.32174 24.3489C3.33564 22.2959 4.34988 20.2423 5.23612 18.1426C6.53884 15.0655 8.49582 12.4189 10.4597 9.76289L10.4597 9.76288L10.4598 9.76287L10.4598 9.76286C10.8701 9.20798 11.2807 8.65269 11.6857 8.09298C11.7051 8.069 11.7258 8.04501 11.7468 8.0207L11.7468 8.02068L11.7469 8.0206C11.8068 7.95116 11.869 7.87909 11.9106 7.79686C14.1042 3.85474 18.0039 2.92936 22.0161 2.15204C23.0056 1.96355 23.987 1.72746 24.9678 1.49152C26.1057 1.21779 27.2428 0.944248 28.3907 0.74545C30.4905 0.375297 32.6466 0.079175 34.784 0.00514441C37.315 -0.0873937 39.4524 1.07859 41.346 2.68875C38.4774 1.24516 35.4027 0.745454 32.2154 0.819485C31.4092 0.837992 30.603 0.912023 29.7968 1.00456C28.6344 1.13411 28.1469 1.98546 27.8282 2.96637C27.0033 5.4649 27.172 7.92641 28.0532 10.4064C28.2656 11.0023 28.398 11.631 28.5299 12.2573L28.5299 12.2573C28.6192 12.6816 28.7083 13.1047 28.8219 13.5157C28.9667 14.028 29.1081 14.542 29.2495 15.0562L29.2495 15.0562L29.2495 15.0563L29.2496 15.0563L29.2496 15.0563C29.7673 16.9386 30.2859 18.8241 30.978 20.6412C31.2592 21.4 32.1966 22.1403 33.0028 22.4364C36.1714 23.5654 39.4149 24.1761 42.7709 23.0471C46.9893 21.6221 49.1642 17.1802 47.5705 13.053C47.0599 11.7455 46.4541 10.4783 45.8458 9.20559C45.7394 8.98303 45.633 8.7603 45.5269 8.53717C45.4298 8.33175 45.2301 8.16687 45.034 8.00503C44.9651 7.94815 44.8966 7.89164 44.8332 7.83388C44.5907 7.60679 44.338 7.3858 44.0844 7.16418C43.5734 6.71749 43.0595 6.2682 42.6209 5.76102C42.0022 5.03923 42.0209 4.13235 42.5646 3.35503C43.0896 2.59622 43.9333 2.41115 44.8145 2.55921C46.1831 2.7813 47.0643 3.61414 47.5143 4.85415C47.9455 6.05714 47.533 7.09357 46.4644 8.00044C47.8705 9.14792 48.3392 10.7951 48.7517 12.4238C48.9079 13.0404 48.9918 13.6769 49.0759 14.3149L49.0759 14.315L49.0759 14.315L49.0759 14.3151C49.1735 15.0556 49.2714 15.7981 49.4829 16.514C49.8361 17.6994 50.2599 18.8687 50.6841 20.0393C51.0481 21.0436 51.4124 22.0487 51.7327 23.0657C52.1487 24.3675 52.5317 25.6803 52.9144 26.9921L52.9144 26.9922L52.9145 26.9923L52.9145 26.9924C53.2391 28.1049 53.5634 29.2167 53.9076 30.3207C54.0993 30.9359 54.3448 31.5361 54.5899 32.1356L54.59 32.1357L54.5902 32.1362L54.5902 32.1363L54.5902 32.1364C54.7285 32.4743 54.8666 32.8121 54.995 33.1523C55.4059 34.2287 56.3363 34.7134 57.2585 35.1938C57.4303 35.2834 57.6019 35.3727 57.7698 35.4658C58.6322 35.947 59.0822 36.5762 58.8572 37.5756C58.651 38.5195 58.0323 39.1118 56.8886 39.0748C54.545 38.9822 52.2202 38.7601 49.8954 38.5195C49.5016 38.4825 49.0892 38.0754 48.8079 37.7422C47.2331 35.8729 45.6769 33.9852 44.1395 32.0974C43.0709 30.7833 42.2834 29.3398 41.8709 27.6926C41.6956 27.0148 41.3382 26.3707 40.9849 25.7341C40.8848 25.5537 40.785 25.3739 40.6898 25.194C40.596 25.009 40.3335 24.8424 40.1273 24.8054L39.9793 24.7764C38.7915 24.5433 37.6099 24.3115 36.5838 25.3421C36.3226 25.6184 35.8943 25.7663 35.5207 25.8954L35.5152 25.8973C34.859 26.1194 34.559 26.5266 34.8027 27.1558C35.6676 29.4449 35.6023 31.7837 35.5368 34.1278V34.1278C35.5044 35.2899 35.4719 36.4533 35.5527 37.6127C35.586 38.0568 35.6489 38.501 35.7119 38.9452C35.7906 39.5004 35.8693 40.0557 35.8901 40.6109C35.9089 41.0366 35.7214 41.6473 35.4214 41.8694C32.9278 43.7202 30.1343 44.0348 27.2658 43.0169C25.8409 42.4987 24.8847 41.4808 24.6597 39.741C24.2285 36.132 23.6473 32.5416 22.8973 28.9881C22.6273 27.6551 21.9773 26.3822 21.3442 25.1422C21.274 25.0048 21.2041 24.8679 21.135 24.7313C19.3351 21.1964 18.8289 17.5319 19.4663 13.6083C19.9913 10.3509 20.7037 7.24163 22.8973 4.66907C23.3498 4.14363 23.8872 3.69278 24.4225 3.24373L24.4226 3.24366C24.6415 3.06005 24.86 2.87674 25.0722 2.68875C25.1041 2.66171 25.1383 2.63576 25.1728 2.60957L25.173 2.60943L25.1732 2.60932L25.1732 2.60929C25.2803 2.52805 25.3905 2.44445 25.4471 2.3186C22.5599 2.35561 19.9538 3.15145 17.3852 4.33594C14.979 5.42523 13.6002 7.36786 12.204 9.33484C11.8922 9.7741 11.5796 10.2146 11.2544 10.647C11.1232 10.8321 11.1232 11.1467 11.1419 11.4059C11.4172 13.9967 12.4292 16.357 13.4391 18.7125L13.5043 18.8644C13.7051 19.3139 13.8104 19.8106 13.9156 20.3073L13.9156 20.3074L13.9156 20.3074L13.9156 20.3075C13.9577 20.5061 13.9998 20.7047 14.048 20.9003C14.1605 21.4 14.273 21.9182 14.3105 22.4364C14.3181 22.5418 14.3264 22.6478 14.3347 22.7543L14.3347 22.7543C14.388 23.4335 14.4427 24.1309 14.3292 24.7869C14.1042 25.9529 14.198 26.3045 15.4166 26.4896C15.8097 26.5284 16.206 26.5672 16.6042 26.6061C18.1049 26.7531 19.6305 26.9024 21.0975 27.0633ZM30.1344 9.68501C29.0469 9.24083 28.597 8.18588 28.447 6.94587C28.2782 5.59481 29.5157 3.91062 30.9593 3.41092C32.103 3.02226 33.7153 3.65151 34.3528 4.76197C34.7278 5.42825 34.8778 5.96498 34.0528 6.53871C33.1195 7.18368 32.2525 7.91289 31.317 8.69972L31.3169 8.69977L31.3169 8.69979C30.937 9.01929 30.5458 9.34829 30.1344 9.68501ZM33.6966 15.3662C33.3591 16.8283 34.3153 17.9943 35.4777 17.9018C35.5829 17.5706 35.6836 17.2463 35.7828 16.9264L35.7829 16.9263L35.783 16.926L35.783 16.9258C35.9666 16.3342 36.1455 15.7577 36.3401 15.1812C36.3917 15.037 36.4629 14.8966 36.534 14.7567C36.618 14.5912 36.7018 14.4262 36.7526 14.2558C36.9026 13.7191 37.0713 13.0158 36.3776 12.8492C35.8714 12.7382 35.0652 12.9047 34.7465 13.2564C34.2403 13.8116 33.8653 14.6074 33.6966 15.3662ZM40.3898 13.2934C40.4735 13.1832 40.5505 13.0631 40.6264 12.945C40.8054 12.6662 40.9777 12.3979 41.2147 12.2939C41.4584 12.1829 41.9834 12.405 42.2459 12.6271C42.3037 12.6762 42.3618 12.7254 42.4201 12.7747L42.4201 12.7747C43.0413 13.3003 43.6751 13.8364 44.1207 14.4964C44.3645 14.885 44.2707 15.6068 44.102 16.088C43.9707 16.4396 43.4833 16.8098 43.1083 16.8838C42.8646 16.9208 42.4708 16.4767 42.2271 16.1805C41.8146 15.6808 41.4584 15.1626 41.1022 14.6074C40.9207 14.3642 40.784 14.0856 40.6239 13.7594L40.6239 13.7593C40.5525 13.6139 40.4765 13.4589 40.3898 13.2934ZM41.3716 19.9449L41.3835 19.9377C41.3781 19.9061 41.3713 19.873 41.3642 19.8388C41.3464 19.7529 41.3272 19.6602 41.3272 19.5675C41.2272 19.5429 41.1272 19.51 41.0272 19.4771C40.8273 19.4112 40.6273 19.3454 40.4273 19.3454C39.6586 19.3454 38.8899 19.364 38.14 19.4565C37.84 19.4935 37.4838 19.6971 37.3525 19.9192C37.2775 20.0487 37.5213 20.4559 37.7275 20.641C37.837 20.7491 37.9977 20.7877 38.161 20.827C38.2773 20.855 38.3948 20.8832 38.4962 20.9371C38.7024 21.0481 39.0774 21.2702 39.0587 21.3628C38.9837 21.6219 38.7962 21.881 38.5712 22.0661C38.4623 22.1616 38.3065 22.1955 38.1139 22.2374C38.0081 22.2604 37.8913 22.2858 37.765 22.3252C38.4927 22.2781 39.1673 22.231 39.8418 22.1839C40.2274 22.1569 40.613 22.13 41.0085 22.1031C40.7871 22.006 40.5335 21.9765 40.2893 21.9482C39.7889 21.8901 39.3279 21.8366 39.2649 21.2147C40.0291 20.7547 40.7006 20.3496 41.3716 19.9449Z" fill="#20113D"/>
</svg>
