<svg width="67" height="50" viewBox="0 0 67 50" fill="none" xmlns="http://www.w3.org/2000/svg">
<path d="M39.3604 0.00590112C42.2244 -0.100244 44.6435 1.23712 46.7862 3.08403C43.5403 1.42818 40.0607 0.855554 36.4542 0.940471C35.542 0.961706 34.6299 1.04626 33.7178 1.15239C32.4026 1.30098 31.851 2.27738 31.4903 3.40239C30.5569 6.26823 30.7472 9.09195 31.7442 11.9366C32.1473 13.083 32.2961 14.3363 32.6143 15.5039C33.378 18.2424 34.0567 21.0233 35.0538 23.6768C35.372 24.5472 36.4335 25.3967 37.3458 25.7364C40.931 27.0313 44.6011 27.7315 48.3985 26.4366C53.172 24.8019 55.6335 19.7069 53.8301 14.9727C53.1513 13.2107 52.3238 11.5125 51.5176 9.79301C51.3692 9.47464 51.0083 9.24106 50.7325 8.98637C49.9051 8.20087 48.9711 7.47885 48.2286 6.60844C47.5286 5.78057 47.55 4.74022 48.1651 3.84867C48.7591 2.97831 49.7139 2.76581 50.711 2.93559C52.2597 3.19034 53.2575 4.14602 53.7667 5.5684C54.2544 6.94808 53.7872 8.13669 52.5782 9.1768C54.1693 10.493 54.6993 12.3828 55.1661 14.251C55.5479 15.7795 55.5487 17.414 55.9942 18.9424C56.7367 21.4687 57.7551 23.9317 58.5401 26.458C59.4099 29.2179 60.1524 32.0205 61.001 34.7803C61.3405 35.8841 61.8284 36.9458 62.2315 38.0284C62.7832 39.493 64.1619 40.0024 65.3711 40.6817C66.3469 41.2336 66.856 41.9555 66.6016 43.1016C66.3682 44.1843 65.6682 44.8638 64.3741 44.8213C61.7223 44.7152 59.0916 44.4606 56.461 44.1846C56.0155 44.1422 55.5488 43.6751 55.2305 43.293C53.4485 41.1489 51.687 38.9838 49.9473 36.8184C48.7381 35.3111 47.8467 33.6551 47.3799 31.7657C47.1254 30.7679 46.5319 29.8335 46.044 28.8995C45.9379 28.6872 45.6407 28.4956 45.4073 28.4532C44.0071 28.1772 42.6068 27.8381 41.3975 29.0694C41.1006 29.3877 40.6127 29.5575 40.1885 29.7061C39.4461 29.9608 39.1063 30.4278 39.3819 31.1495C40.8458 35.0769 39.9547 39.1322 40.2305 43.1446C40.3154 44.291 40.5699 45.4376 40.6124 46.584C40.6335 47.0723 40.4215 47.7727 40.0821 48.0274C37.2605 50.1502 34.0994 50.5113 30.8536 49.3438C29.2412 48.7494 28.1589 47.5815 27.9044 45.586C27.4164 41.4464 26.7588 37.3279 25.9102 33.252C25.5708 31.5538 24.701 29.94 23.9161 28.3692C21.8794 24.3143 21.3061 20.1101 22.0274 15.6094C22.6214 11.8731 23.428 8.30637 25.9102 5.35551C26.6315 4.50641 27.5438 3.82701 28.3711 3.08403C28.5196 2.95668 28.7111 2.85025 28.796 2.65922C25.5288 2.70168 22.5794 3.615 19.6729 4.97367C16.3421 6.50219 14.7509 9.49556 12.7354 12.2129C12.5869 12.4252 12.5873 12.7859 12.6085 13.083C12.9267 16.1188 14.1145 18.8789 15.2813 21.6387C15.5995 22.3605 15.7056 23.1892 15.8965 23.9747C16.0238 24.5477 16.151 25.1421 16.1934 25.7364C16.2571 26.628 16.3634 27.5623 16.2149 28.4327C15.9604 29.77 16.0664 30.1735 17.4454 30.3858C19.5667 30.5981 21.7729 30.8105 23.8731 31.044C21.1365 31.8718 18.3786 31.7442 15.5997 29.8975C14.8571 30.8316 14.0502 31.7867 13.3077 32.8057C12.5229 33.9307 11.8444 35.1407 11.0596 36.2657C10.1898 37.5182 9.87125 38.8775 9.95611 40.3848C10.0621 42.3166 9.29835 43.2932 7.41021 43.6329C3.52777 44.3334 0.0486124 41.4461 0.0273969 37.5186C0.0273948 36.5633 -0.0153025 35.6079 0.00591253 34.6739C0.0483511 32.8908 0.960675 31.3836 1.70318 29.834C3.14584 26.8407 4.65192 23.8677 5.92486 20.8106C7.70697 16.5435 10.5718 12.9984 13.2237 9.28324C13.3085 9.17717 13.414 9.07069 13.4776 8.9434C15.9598 4.42154 20.373 3.36043 24.9131 2.46879C27.3316 2.00176 29.7076 1.28011 32.126 0.85551C34.502 0.430944 36.942 0.0908454 39.3604 0.00590112ZM45.7461 22.1905C46.0856 22.1905 46.4253 22.3604 46.7647 22.4454C46.7647 22.594 46.807 22.7428 46.8282 22.8702C46.0644 23.3372 45.3006 23.8043 44.4307 24.335C44.5368 25.3962 45.6396 25.0143 46.4034 25.3536C45.173 25.4385 44.0275 25.5235 42.7335 25.6084C43.1364 25.4811 43.4546 25.4813 43.6456 25.3116C43.9001 25.0993 44.1124 24.8021 44.1973 24.5049C44.2185 24.3988 43.794 24.144 43.5606 24.0166C43.2849 23.8682 42.9036 23.8889 42.6915 23.6768C42.4581 23.4645 42.1818 22.9973 42.2667 22.8487C42.4152 22.594 42.8189 22.3609 43.1583 22.3184C44.0067 22.2123 44.8765 22.1905 45.7461 22.1905ZM39.3184 15.2071C39.6791 14.8037 40.5913 14.612 41.1641 14.7393C41.9491 14.9304 41.7586 15.7379 41.5889 16.3536C41.4828 16.7144 41.2494 17.0543 41.1221 17.4151C40.7827 18.434 40.485 19.4526 40.1456 20.5352C38.8303 20.6412 37.7482 19.304 38.1299 17.627C38.3209 16.7567 38.7457 15.844 39.3184 15.2071ZM46.6368 14.1026C46.9127 13.9754 47.5068 14.2307 47.8038 14.4854C48.5673 15.1433 49.3733 15.8013 49.9249 16.6289C50.2007 17.0748 50.0943 17.9032 49.9034 18.4551C49.7547 18.8584 49.2036 19.2833 48.7794 19.3682C48.5036 19.4105 48.0581 18.9012 47.7823 18.5616C47.3156 17.9885 46.9128 17.3936 46.5098 16.7569C46.2128 16.3535 46.0214 15.8647 45.7032 15.2491C46.0213 14.8245 46.2549 14.2724 46.6368 14.1026ZM35.0333 3.91508C36.3274 3.46926 38.1518 4.19111 38.8731 5.46489C39.2974 6.22907 39.4675 6.84491 38.5342 7.50297C37.0492 8.5432 35.712 9.77394 34.0997 11.1114C32.8693 10.6018 32.3602 9.39205 32.1905 7.96977C31.9995 6.42003 33.3997 4.48832 35.0333 3.91508Z" fill="#F58021"/>
</svg>
