<svg width="17" height="23" viewBox="0 0 17 23" fill="none" xmlns="http://www.w3.org/2000/svg">
<mask id="path-1-outside-1_37010_2748" maskUnits="userSpaceOnUse" x="-0.90625" y="-0.359375" width="18" height="24" fill="black">
<rect fill="white" x="-0.90625" y="-0.359375" width="18" height="24"/>
<path fill-rule="evenodd" clip-rule="evenodd" d="M1.09375 8.10937H5.46875L10.9375 2.64062V20.1406L5.46875 14.6719H1.09375V8.10937ZM13.125 7.01562V15.7656L14.9297 13.3594C15.8047 12.1927 15.8047 10.5885 14.9297 9.42187L13.125 7.01562Z"/>
</mask>
<path fill-rule="evenodd" clip-rule="evenodd" d="M1.09375 8.10937H5.46875L10.9375 2.64062V20.1406L5.46875 14.6719H1.09375V8.10937ZM13.125 7.01562V15.7656L14.9297 13.3594C15.8047 12.1927 15.8047 10.5885 14.9297 9.42187L13.125 7.01562Z" fill="#EAEAEA"/>
<path d="M5.46875 8.10937V9.20312H5.9218L6.24215 8.88277L5.46875 8.10937ZM1.09375 8.10937V7.01562H1.19209e-07V8.10937H1.09375ZM10.9375 2.64062H12.0312V7.93934e-05L10.1641 1.86723L10.9375 2.64062ZM10.9375 20.1406L10.1641 20.914L12.0312 22.7812V20.1406H10.9375ZM5.46875 14.6719L6.24215 13.8985L5.9218 13.5781H5.46875V14.6719ZM1.09375 14.6719H1.19209e-07V15.7656H1.09375V14.6719ZM13.125 15.7656H12.0312V19.0469L14 16.4219L13.125 15.7656ZM13.125 7.01562L14 6.35937L12.0312 3.73437V7.01562H13.125ZM14.9297 13.3594L14.0547 12.7031H14.0547L14.9297 13.3594ZM14.9297 9.42187L14.0547 10.0781V10.0781L14.9297 9.42187ZM5.46875 8.10937V7.01562H1.09375V8.10937V9.20312H5.46875V8.10937ZM10.9375 2.64062L10.1641 1.86723L4.69535 7.33598L5.46875 8.10937L6.24215 8.88277L11.7109 3.41402L10.9375 2.64062ZM10.9375 20.1406H12.0312V2.64062H10.9375H9.84375V20.1406H10.9375ZM5.46875 14.6719L4.69535 15.4453L10.1641 20.914L10.9375 20.1406L11.7109 19.3672L6.24215 13.8985L5.46875 14.6719ZM1.09375 14.6719V15.7656H5.46875V14.6719V13.5781H1.09375V14.6719ZM1.09375 8.10937H1.19209e-07V14.6719H1.09375H2.1875V8.10937H1.09375ZM13.125 15.7656H14.2187V7.01562H13.125H12.0312V15.7656H13.125ZM14.9297 13.3594L14.0547 12.7031L12.25 15.1094L13.125 15.7656L14 16.4219L15.8047 14.0156L14.9297 13.3594ZM14.9297 9.42187L14.0547 10.0781C14.638 10.8559 14.638 11.9253 14.0547 12.7031L14.9297 13.3594L15.8047 14.0156C16.9714 12.4601 16.9714 10.3212 15.8047 8.76562L14.9297 9.42187ZM13.125 7.01562L12.25 7.67187L14.0547 10.0781L14.9297 9.42187L15.8047 8.76562L14 6.35937L13.125 7.01562Z" fill="black" fill-opacity="0.1" mask="url(#path-1-outside-1_37010_2748)"/>
</svg>
