<svg width="16" height="18" viewBox="0 0 16 18" fill="none" xmlns="http://www.w3.org/2000/svg">
<mask id="path-1-outside-1_37010_2751" maskUnits="userSpaceOnUse" x="-0.90625" y="-0.8125" width="17" height="19" fill="black">
<rect fill="white" x="-0.90625" y="-0.8125" width="17" height="19"/>
<path fill-rule="evenodd" clip-rule="evenodd" d="M1.09375 2.1875L9.84375 8.75L1.09375 15.3125V2.1875ZM14.2187 2.1875H12.0312V15.3125H14.2187V2.1875Z"/>
</mask>
<path fill-rule="evenodd" clip-rule="evenodd" d="M1.09375 2.1875L9.84375 8.75L1.09375 15.3125V2.1875ZM14.2187 2.1875H12.0312V15.3125H14.2187V2.1875Z" fill="#EAEAEA"/>
<path d="M9.84375 8.75L10.5 9.625L11.6667 8.75L10.5 7.875L9.84375 8.75ZM1.09375 2.1875L1.75 1.3125L1.19209e-07 2.38419e-07V2.1875H1.09375ZM1.09375 15.3125H1.19209e-07V17.5L1.75 16.1875L1.09375 15.3125ZM12.0312 2.1875V1.09375H10.9375V2.1875H12.0312ZM14.2187 2.1875H15.3125V1.09375H14.2187V2.1875ZM12.0312 15.3125H10.9375V16.4062H12.0312V15.3125ZM14.2187 15.3125V16.4062H15.3125V15.3125H14.2187ZM9.84375 8.75L10.5 7.875L1.75 1.3125L1.09375 2.1875L0.4375 3.0625L9.1875 9.625L9.84375 8.75ZM1.09375 15.3125L1.75 16.1875L10.5 9.625L9.84375 8.75L9.1875 7.875L0.4375 14.4375L1.09375 15.3125ZM1.09375 2.1875H1.19209e-07V15.3125H1.09375H2.1875V2.1875H1.09375ZM12.0312 2.1875V3.28125H14.2187V2.1875V1.09375H12.0312V2.1875ZM12.0312 15.3125H13.125V2.1875H12.0312H10.9375V15.3125H12.0312ZM14.2187 15.3125V14.2187H12.0312V15.3125V16.4062H14.2187V15.3125ZM14.2187 2.1875H13.125V15.3125H14.2187H15.3125V2.1875H14.2187Z" fill="black" fill-opacity="0.1" mask="url(#path-1-outside-1_37010_2751)"/>
</svg>
