<svg width="43" height="16" viewBox="0 0 43 16" fill="none" xmlns="http://www.w3.org/2000/svg">
<mask id="path-1-outside-1_37010_2747" maskUnits="userSpaceOnUse" x="-0.150391" y="-0.125" width="43" height="17" fill="black">
<rect fill="white" x="-0.150391" y="-0.125" width="43" height="17"/>
<path d="M1.09398 14.875V1.09375H2.55086V13.615H10.2684V14.875H1.09398ZM12.6873 14.875V1.09375H14.1442V14.875H12.6873ZM22.3922 14.875L16.289 1.09375H17.864L23.5734 14.0678H22.7072L28.4559 1.09375H29.9325L23.8294 14.875H22.3922ZM33.232 7.25594H40.5164V8.49625H33.232V7.25594ZM33.3895 13.615H41.6779V14.875H31.9326V1.09375H41.3826V2.35375H33.3895V13.615Z"/>
</mask>
<path d="M1.09398 14.875V1.09375H2.55086V13.615H10.2684V14.875H1.09398ZM12.6873 14.875V1.09375H14.1442V14.875H12.6873ZM22.3922 14.875L16.289 1.09375H17.864L23.5734 14.0678H22.7072L28.4559 1.09375H29.9325L23.8294 14.875H22.3922ZM33.232 7.25594H40.5164V8.49625H33.232V7.25594ZM33.3895 13.615H41.6779V14.875H31.9326V1.09375H41.3826V2.35375H33.3895V13.615Z" fill="#EAEAEA"/>
<path d="M1.09398 14.875H0.000234365V15.9688H1.09398V14.875ZM1.09398 1.09375V9.53674e-07H0.000234365V1.09375H1.09398ZM2.55086 1.09375H3.64461V9.53674e-07H2.55086V1.09375ZM2.55086 13.615H1.45711V14.7087H2.55086V13.615ZM10.2684 13.615H11.3621V12.5212H10.2684V13.615ZM10.2684 14.875V15.9688H11.3621V14.875H10.2684ZM1.09398 14.875H2.18773V1.09375H1.09398H0.000234365V14.875H1.09398ZM1.09398 1.09375V2.1875H2.55086V1.09375V9.53674e-07H1.09398V1.09375ZM2.55086 1.09375H1.45711V13.615H2.55086H3.64461V1.09375H2.55086ZM2.55086 13.615V14.7087H10.2684V13.615V12.5212H2.55086V13.615ZM10.2684 13.615H9.17461V14.875H10.2684H11.3621V13.615H10.2684ZM10.2684 14.875V13.7812H1.09398V14.875V15.9688H10.2684V14.875ZM12.6873 14.875H11.5936V15.9688H12.6873V14.875ZM12.6873 1.09375V9.53674e-07H11.5936V1.09375H12.6873ZM14.1442 1.09375H15.2379V9.53674e-07H14.1442V1.09375ZM14.1442 14.875V15.9688H15.2379V14.875H14.1442ZM12.6873 14.875H13.7811V1.09375H12.6873H11.5936V14.875H12.6873ZM12.6873 1.09375V2.1875H14.1442V1.09375V9.53674e-07H12.6873V1.09375ZM14.1442 1.09375H13.0504V14.875H14.1442H15.2379V1.09375H14.1442ZM14.1442 14.875V13.7812H12.6873V14.875V15.9688H14.1442V14.875ZM22.3922 14.875L21.3921 15.3179L21.6803 15.9688H22.3922V14.875ZM16.289 1.09375V9.53674e-07H14.6085L15.289 1.53664L16.289 1.09375ZM17.864 1.09375L18.8651 0.653204L18.5777 9.53674e-07H17.864V1.09375ZM23.5734 14.0678V15.1616H25.2497L24.5745 13.6273L23.5734 14.0678ZM22.7072 14.0678L21.7072 13.6247L21.0262 15.1616H22.7072V14.0678ZM28.4559 1.09375V9.53674e-07H27.7442L27.4559 0.650663L28.4559 1.09375ZM29.9325 1.09375L30.9325 1.53664L31.6131 9.53674e-07H29.9325V1.09375ZM23.8294 14.875V15.9688H24.5412L24.8294 15.3179L23.8294 14.875ZM22.3922 14.875L23.3922 14.4321L17.2891 0.650863L16.289 1.09375L15.289 1.53664L21.3921 15.3179L22.3922 14.875ZM16.289 1.09375V2.1875H17.864V1.09375V9.53674e-07H16.289V1.09375ZM17.864 1.09375L16.8629 1.5343L22.5723 14.5084L23.5734 14.0678L24.5745 13.6273L18.8651 0.653204L17.864 1.09375ZM23.5734 14.0678V12.9741H22.7072V14.0678V15.1616H23.5734V14.0678ZM22.7072 14.0678L23.7071 14.5109L29.4559 1.53684L28.4559 1.09375L27.4559 0.650663L21.7072 13.6247L22.7072 14.0678ZM28.4559 1.09375V2.1875H29.9325V1.09375V9.53674e-07H28.4559V1.09375ZM29.9325 1.09375L28.9324 0.650863L22.8293 14.4321L23.8294 14.875L24.8294 15.3179L30.9325 1.53664L29.9325 1.09375ZM23.8294 14.875V13.7812H22.3922V14.875V15.9688H23.8294V14.875ZM33.232 7.25594V6.16219H32.1382V7.25594H33.232ZM40.5164 7.25594H41.6101V6.16219H40.5164V7.25594ZM40.5164 8.49625V9.59H41.6101V8.49625H40.5164ZM33.232 8.49625H32.1382V9.59H33.232V8.49625ZM33.3895 13.615H32.2957V14.7087H33.3895V13.615ZM41.6779 13.615H42.7717V12.5212H41.6779V13.615ZM41.6779 14.875V15.9688H42.7717V14.875H41.6779ZM31.9326 14.875H30.8389V15.9688H31.9326V14.875ZM31.9326 1.09375V9.53674e-07H30.8389V1.09375H31.9326ZM41.3826 1.09375H42.4764V9.53674e-07H41.3826V1.09375ZM41.3826 2.35375V3.4475H42.4764V2.35375H41.3826ZM33.3895 2.35375V1.26H32.2957V2.35375H33.3895ZM33.232 7.25594V8.34969H40.5164V7.25594V6.16219H33.232V7.25594ZM40.5164 7.25594H39.4226V8.49625H40.5164H41.6101V7.25594H40.5164ZM40.5164 8.49625V7.4025H33.232V8.49625V9.59H40.5164V8.49625ZM33.232 8.49625H34.3257V7.25594H33.232H32.1382V8.49625H33.232ZM33.3895 13.615V14.7087H41.6779V13.615V12.5212H33.3895V13.615ZM41.6779 13.615H40.5842V14.875H41.6779H42.7717V13.615H41.6779ZM41.6779 14.875V13.7812H31.9326V14.875V15.9688H41.6779V14.875ZM31.9326 14.875H33.0264V1.09375H31.9326H30.8389V14.875H31.9326ZM31.9326 1.09375V2.1875H41.3826V1.09375V9.53674e-07H31.9326V1.09375ZM41.3826 1.09375H40.2889V2.35375H41.3826H42.4764V1.09375H41.3826ZM41.3826 2.35375V1.26H33.3895V2.35375V3.4475H41.3826V2.35375ZM33.3895 2.35375H32.2957V13.615H33.3895H34.4832V2.35375H33.3895Z" fill="black" fill-opacity="0.1" mask="url(#path-1-outside-1_37010_2747)"/>
</svg>
