<svg width="67" height="50" viewBox="0 0 67 50" fill="none" xmlns="http://www.w3.org/2000/svg">
<path fill-rule="evenodd" clip-rule="evenodd" d="M23.8734 31.0436C21.1366 31.8715 18.3786 31.7442 15.5994 29.8972C15.3859 30.1657 15.1672 30.436 14.9462 30.7091C14.3986 31.3858 13.8372 32.0796 13.3081 32.8056C12.9156 33.3682 12.5496 33.952 12.1837 34.5359C11.8177 35.1197 11.4517 35.7035 11.0593 36.2661C10.1894 37.5186 9.87118 38.8773 9.95604 40.3846C10.0621 42.3165 9.29836 43.2931 7.41017 43.6328C3.52773 44.3333 0.0483784 41.4461 0.0271629 37.5186C0.0271629 37.1351 0.0203234 36.7516 0.0135085 36.3695C0.00334746 35.7997 -0.00675907 35.233 0.00593955 34.6739C0.0416116 33.1746 0.692071 31.8705 1.33961 30.5722C1.46231 30.3262 1.5849 30.0804 1.70318 29.8335C2.00922 29.1985 2.31812 28.5645 2.62705 27.9304L2.6271 27.9303L2.62722 27.93C3.77453 25.5751 4.92223 23.2194 5.92508 20.8109C7.39922 17.2812 9.61369 14.2454 11.836 11.1987C12.3003 10.5623 12.7649 9.92528 13.2232 9.28324C13.2453 9.2557 13.2687 9.22815 13.2925 9.20024L13.2925 9.20023L13.2925 9.20022L13.2925 9.20021L13.2925 9.20021C13.3603 9.12056 13.4307 9.03789 13.4778 8.94357C15.96 4.42167 20.3729 3.36019 24.913 2.46854C26.0326 2.25233 27.1432 1.98152 28.253 1.71088C29.5406 1.39689 30.8274 1.08312 32.1263 0.855085C34.5024 0.430493 36.9422 0.0908195 39.3608 0.00590102C42.2249 -0.100247 44.6435 1.23722 46.7862 3.08419C43.5403 1.42828 40.0609 0.855091 36.4543 0.940009C35.542 0.961239 34.6297 1.04616 33.7175 1.15231C32.4021 1.30091 31.8505 2.27747 31.4898 3.40264C30.5563 6.26864 30.7473 9.09218 31.7444 11.9369C31.9847 12.6204 32.1346 13.3416 32.2838 14.06L32.2838 14.0601C32.3849 14.5467 32.4857 15.032 32.6143 15.5035C32.778 16.0907 32.9378 16.6798 33.0978 17.2691L33.0979 17.2696L33.098 17.2701L33.0982 17.2706L33.0982 17.2707C33.684 19.4298 34.2709 21.5927 35.054 23.6769C35.3723 24.5473 36.433 25.3965 37.3453 25.7362C40.9307 27.0312 44.601 27.7318 48.3986 26.4368C53.1721 24.8021 55.6331 19.707 53.8298 14.9728C53.252 13.4731 52.5666 12.0195 51.8783 10.5597L51.8782 10.5596L51.8782 10.5595L51.8773 10.5578C51.7572 10.303 51.637 10.0481 51.5173 9.79276C51.4074 9.55713 51.1814 9.368 50.9595 9.18236C50.8815 9.11711 50.8041 9.05229 50.7323 8.98604C50.458 8.7256 50.172 8.47217 49.8852 8.218L49.8851 8.21795L49.8851 8.21789L49.885 8.21784C49.3068 7.70546 48.7252 7.19008 48.2289 6.60832C47.5288 5.78036 47.55 4.74011 48.1652 3.84847C48.7593 2.97805 49.714 2.76576 50.7111 2.9356C52.2599 3.19035 53.257 4.14568 53.7662 5.56806C54.2541 6.94799 53.7874 8.13684 52.5781 9.1771C54.1693 10.4933 54.6996 12.3828 55.1664 14.251C55.3431 14.9583 55.438 15.6885 55.5332 16.4202C55.6437 17.2698 55.7544 18.1216 55.9938 18.9427C56.3935 20.3025 56.873 21.6438 57.3531 22.9866C57.765 24.1385 58.1772 25.2915 58.5397 26.458C59.0104 27.9515 59.4438 29.4574 59.8769 30.9622L59.8769 30.9623L59.877 30.9626L59.8771 30.9628L59.8772 30.9631C60.2444 32.2389 60.6113 33.5139 61.0007 34.78C61.2177 35.4858 61.4954 36.1741 61.7728 36.8618L61.7728 36.8619L61.7729 36.8619L61.7729 36.862L61.7729 36.8621C61.9294 37.25 62.0858 37.6377 62.2312 38.0281C62.6961 39.2629 63.749 39.8188 64.7925 40.3699C64.987 40.4726 65.1811 40.5751 65.3711 40.6818C66.347 41.2338 66.8562 41.9556 66.6016 43.102C66.3682 44.1847 65.6681 44.8641 64.3739 44.8216C61.722 44.7155 59.0913 44.4607 56.4605 44.1847C56.015 44.1423 55.5483 43.6752 55.23 43.2931C53.4479 41.1489 51.687 38.9835 49.9474 36.8181C48.7381 35.3107 47.847 33.6548 47.3803 31.7654C47.1819 30.9879 46.7775 30.2492 46.3777 29.5189C46.2644 29.3119 46.1514 29.1057 46.0437 28.8994C45.9376 28.6871 45.6406 28.496 45.4072 28.4536L45.2397 28.4204C43.8956 28.153 42.5585 27.887 41.3975 29.0692C41.1019 29.3861 40.6173 29.5558 40.1945 29.7039L40.1945 29.7039L40.1882 29.7061C39.4457 29.9609 39.1062 30.4279 39.382 31.1497C40.3607 33.7755 40.2868 36.4582 40.2127 39.1471C40.176 40.4801 40.1392 41.8146 40.2306 43.1445C40.2684 43.654 40.3396 44.1635 40.4108 44.673L40.4109 44.6731C40.4999 45.31 40.5889 45.9468 40.6125 46.5837C40.6337 47.072 40.4216 47.7725 40.0821 48.0273C37.2605 50.1502 34.0993 50.5112 30.8534 49.3435C29.241 48.7491 28.159 47.5815 27.9044 45.5859C27.4164 41.4461 26.7588 37.3276 25.9101 33.2515C25.6045 31.7224 24.869 30.2622 24.1526 28.8399C24.0733 28.6824 23.9941 28.5253 23.9159 28.3687C21.8792 24.3138 21.3064 20.1103 22.0277 15.6097C22.6217 11.8733 23.4279 8.30668 25.9101 5.35577C26.4221 4.75305 27.0303 4.23589 27.636 3.72079L27.636 3.72074L27.6361 3.72072L27.6361 3.72071C27.8838 3.5101 28.131 3.29983 28.3711 3.08419C28.4074 3.05306 28.4463 3.0232 28.4855 2.99305C28.6067 2.89985 28.7313 2.80397 28.7955 2.6596C25.5283 2.70206 22.5793 3.61494 19.6728 4.97363C16.95 6.22313 15.3897 8.45147 13.8098 10.7077C13.457 11.2116 13.1032 11.7169 12.7353 12.2129C12.5868 12.4252 12.5868 12.7861 12.608 13.0833C12.9195 16.0553 14.0647 18.7627 15.2074 21.4646L15.2811 21.6389C15.5085 22.1545 15.6275 22.7242 15.7466 23.2939C15.7942 23.5218 15.8418 23.7497 15.8964 23.9741C16.0237 24.5473 16.151 25.1418 16.1934 25.7362C16.202 25.857 16.2115 25.9787 16.2209 26.1008V26.1008C16.2811 26.8799 16.343 27.6799 16.2146 28.4324C15.96 29.7698 16.0661 30.1732 17.4451 30.3855C17.89 30.43 18.3387 30.4745 18.7893 30.5192L18.7895 30.5193C20.4876 30.6878 22.2136 30.859 23.8734 31.0436ZM34.0997 11.1117C32.8692 10.6022 32.3601 9.3921 32.1903 7.96971C31.9994 6.41995 33.3996 4.48806 35.0332 3.91486C36.3274 3.46904 38.1519 4.19085 38.8732 5.46462C39.2976 6.22889 39.4673 6.84455 38.5338 7.50267C37.4776 8.24248 36.4966 9.07893 35.438 9.98147L35.4379 9.98152L35.4379 9.98157L35.4375 9.98188L35.4372 9.98217L35.4371 9.98222C35.0075 10.3485 34.5651 10.7257 34.0997 11.1117ZM38.1303 17.6269C37.7484 19.304 38.8304 20.6415 40.1457 20.5353C40.2648 20.1555 40.3787 19.7834 40.491 19.4165C40.6988 18.7376 40.9013 18.0761 41.1217 17.4146C41.18 17.2491 41.2606 17.0882 41.3411 16.9276L41.3411 16.9276C41.4361 16.7378 41.5309 16.5486 41.5884 16.3531C41.7581 15.7374 41.9491 14.9307 41.1641 14.7396C40.5913 14.6123 39.679 14.8033 39.3183 15.2067C38.7455 15.8436 38.3212 16.7564 38.1303 17.6269ZM45.9709 14.8497L45.9709 14.8497C46.1735 14.5299 46.3684 14.2222 46.6366 14.1029C46.9124 13.9755 47.5065 14.2303 47.8035 14.485C47.8689 14.5414 47.9347 14.5978 48.0006 14.6543C48.7035 15.2572 49.4207 15.8722 49.925 16.6292C50.2008 17.075 50.0947 17.903 49.9038 18.455C49.7553 18.8583 49.2037 19.2829 48.7794 19.3678C48.5036 19.4103 48.058 18.9008 47.7822 18.5611C47.3155 17.9879 46.9124 17.3935 46.5093 16.7566C46.3039 16.4776 46.1492 16.1581 45.9681 15.7839L45.9681 15.7838C45.8873 15.6169 45.8013 15.4391 45.7031 15.2493C45.7978 15.1229 45.885 14.9853 45.9709 14.8497ZM46.8162 22.8773L46.828 22.8701C46.822 22.8339 46.8142 22.7959 46.8062 22.7567C46.7861 22.6581 46.7644 22.5518 46.7644 22.4455C46.6512 22.4172 46.5381 22.3795 46.4249 22.3417C46.1986 22.2662 45.9723 22.1908 45.746 22.1908C44.8762 22.1908 44.0064 22.212 43.1577 22.3181C42.8183 22.3606 42.4152 22.5941 42.2667 22.8489C42.1818 22.9975 42.4576 23.4645 42.691 23.6768C42.8149 23.8008 42.9968 23.8452 43.1816 23.8902C43.3131 23.9223 43.4461 23.9547 43.5608 24.0165C43.7942 24.1439 44.2185 24.3986 44.1973 24.5048C44.1124 24.802 43.9003 25.0992 43.6457 25.3115C43.5224 25.4211 43.3461 25.46 43.1282 25.5081C43.0085 25.5344 42.8763 25.5636 42.7334 25.6087C43.557 25.5547 44.3204 25.5007 45.0838 25.4466C45.52 25.4157 45.9563 25.3849 46.4037 25.354C46.1532 25.2426 45.8662 25.2088 45.5899 25.1763C45.0236 25.1097 44.502 25.0483 44.4307 24.335C45.296 23.8069 46.0564 23.342 46.8162 22.8773Z" fill="white"/>
</svg>
