<svg width="75" height="53" viewBox="0 0 75 53" fill="none" xmlns="http://www.w3.org/2000/svg">
<g clip-path="url(#clip0_37010_2759)">
<path d="M73.439 11.0733C73.439 11.0733 72.7142 5.93068 70.4806 3.66364C67.6529 0.692613 64.4807 0.680682 63.0312 0.501705C52.6235 -0.25 37.0119 -0.25 37.0119 -0.25H36.9762C36.9762 -0.25 21.3646 -0.25 10.9569 0.501705C9.50739 0.680682 6.33516 0.692613 3.50749 3.66364C1.27386 5.93068 0.549121 11.0733 0.549121 11.0733C0.549121 11.0733 -0.1875 17.1108 -0.1875 23.1602V28.8278C-0.1875 34.8653 0.561002 40.9028 0.561002 40.9028C0.561002 40.9028 1.28574 46.0454 3.51937 48.3125C6.34704 51.2835 10.0658 51.1881 11.7173 51.4983C17.6577 52.071 37 52.25 37 52.25C37 52.25 52.6235 52.2261 63.0312 51.4744C64.4807 51.2954 67.6529 51.2835 70.4806 48.3125C72.7142 46.0454 73.439 40.9028 73.439 40.9028C73.439 40.9028 74.1875 34.8653 74.1875 28.8278V23.1602C74.1875 17.1108 73.439 11.0733 73.439 11.0733Z" fill="black" fill-opacity="0.5"/>
<path d="M29.325 14.7007V35.6768L49.4157 25.2245L29.325 14.7007Z" fill="#EAEAEA"/>
</g>
<defs>
<clipPath id="clip0_37010_2759">
<rect width="74.375" height="52.4667" fill="white"/>
</clipPath>
</defs>
</svg>
