<svg width="43" height="54" viewBox="0 0 43 54" fill="none" xmlns="http://www.w3.org/2000/svg">
<path fill-rule="evenodd" clip-rule="evenodd" d="M30.1512 22.5988C31.4063 21.0667 32.1262 19.3739 32.157 17.4093C32.1611 17.1956 32.3125 16.9847 32.4633 16.7748L32.4633 16.7747C32.5348 16.6751 32.6061 16.5758 32.6615 16.4765C32.9547 15.9443 33.2668 15.419 33.5792 14.8934C34.2893 13.6985 35.0003 12.502 35.4917 11.2191C36.5623 8.42049 35.9162 6.70303 33.5905 4.91762C33.7382 3.04571 34.4765 1.7607 36.5315 1.39003C37.5041 1.21594 38.4476 0.878433 39.4779 0.509877C39.9467 0.342189 40.4334 0.168074 40.9491 0C39.4048 4.67667 37.9404 9.10624 36.4084 13.7397L36.7662 13.6631L36.7683 13.6626C38.7617 13.2357 40.5855 12.8452 42.4257 12.4547C42.8933 13.2887 42.5303 13.7273 41.8228 14.1289L41.4004 14.3669L41.4003 14.3669C39.5895 15.387 37.7738 16.4099 36.027 17.5391C35.4425 17.9159 34.938 18.5955 34.6734 19.2442C34.2388 20.32 33.8855 21.429 33.5229 22.567L33.5227 22.5676C33.3669 23.0567 33.2094 23.5511 33.0429 24.0506L30.1512 22.5988ZM35.4978 22.3525C37.3005 23.6992 38.0573 26.5967 37.2328 28.8084C36.513 30.7297 34.8456 31.644 32.3599 31.3598C31.6451 31.2767 30.9417 31.1174 30.2385 30.9581L30.2385 30.9581L30.2385 30.9581L30.2385 30.958C29.7918 30.8569 29.3453 30.7557 28.896 30.6741C26.3365 30.1984 24.1462 30.5567 22.6572 31.7058C23.0018 31.7491 23.2971 31.7861 23.7463 31.8417C23.3617 32.5687 23.166 33.3564 22.9764 34.1199C22.702 35.2252 22.4401 36.2796 21.6359 37.025C22.0943 37.3468 22.5837 37.6635 23.0843 37.9875C24.2367 38.7332 25.4486 39.5174 26.478 40.4908C28.8714 42.7519 28.7237 46.1312 26.3734 48.6333C25.6684 48.3836 24.9622 48.1338 24.2553 47.8838L24.2535 47.8832C21.5681 46.9336 18.8714 45.9799 16.1785 45.0069C15.732 44.8446 15.306 44.6233 14.8803 44.4021C14.6901 44.3033 14.5 44.2045 14.3081 44.1111C11.521 42.7704 10.0751 40.5217 9.82901 37.4513C9.51523 33.5654 10.272 29.8216 11.1641 26.1148C11.2249 26.1031 11.2751 26.0878 11.3169 26.075C11.3851 26.0542 11.4313 26.0401 11.4656 26.0592C17.5075 29.1852 23.0695 27.7705 28.33 24.1502C29.2221 23.5386 29.8989 23.5077 30.7541 23.9587C31.2586 24.2244 31.7693 24.4777 32.2861 24.7124C33.7689 25.3858 34.4395 25.1202 35.0363 23.6128C35.1355 23.3601 35.2275 23.1027 35.3212 22.8405L35.3215 22.8399C35.3789 22.6792 35.437 22.5167 35.4978 22.3525ZM29.2925 35.5179C29.6879 34.3149 30.0994 33.0629 30.539 31.7227C30.0812 31.708 29.6374 31.6921 29.2044 31.6767L29.2034 31.6766L29.2026 31.6766C27.8262 31.6275 26.5572 31.5821 25.2847 31.5868C25.0139 31.5868 24.6017 31.9204 24.5033 32.1923C24.1034 33.3191 23.7439 34.4595 23.3973 35.5586C23.2746 35.9478 23.1535 36.3319 23.0328 36.7083L24.2466 37.5984L24.2469 37.5986C25.4242 38.4621 26.5702 39.3026 27.7642 40.1741C28.2635 38.6488 28.7628 37.1295 29.2909 35.5229L29.2915 35.521L29.2925 35.5179ZM16.9971 53.914C17.7723 51.6035 18.4922 49.4598 19.2551 47.1925C21.1563 47.7917 22.9529 48.3601 24.8725 48.9717C24.7685 49.2939 24.667 49.6109 24.5668 49.9237C24.1866 51.1107 23.8259 52.2371 23.4266 53.3518C23.3405 53.5866 22.9898 53.8831 22.756 53.8893C21.3384 53.9224 19.9136 53.9193 18.407 53.9161C17.9454 53.9151 17.4762 53.914 16.9971 53.914ZM8.54089 14.6574L8.54092 14.6574C9.10425 15.5281 9.65134 16.3736 10.0445 17.2862C10.7705 18.9852 11.0843 20.9003 9.65686 22.3583C8.19254 23.8472 6.37136 23.1861 4.74706 22.4695C3.7934 22.0494 2.8582 21.4748 2.07067 20.7891C-0.925663 18.1635 -0.630339 14.154 2.69823 11.9547C4.88857 10.5091 7.29425 10.2867 9.71839 11.1578C10.7705 11.5346 11.3611 11.2566 12.1856 10.6326C13.5699 9.58856 15.0589 8.59392 16.6462 7.92053C19.5503 6.68495 22.3866 7.0618 24.9708 8.95224C25.5429 9.37234 26.1213 9.78008 26.8596 10.0025C26.3551 9.39087 25.8506 8.78543 25.2784 8.09969C27.2103 6.33281 29.333 5.29492 31.9478 5.73355C33.7998 6.04245 34.7965 7.29038 34.7534 9.16846C34.7042 11.4358 33.5721 13.2521 32.3354 15.0684C29.9421 12.696 29.2468 9.90981 30.4528 7.8155C29.2838 8.06262 28.6808 8.78543 28.9331 10.0766C29.1792 11.3431 29.5852 12.6157 30.139 13.7772C31.7017 17.07 31.2157 20.3134 28.4162 22.6301C24.6201 25.7809 20.2209 26.6643 15.4588 25.4534C14.5421 25.2187 13.6684 24.6812 12.8747 24.1314C11.9333 23.4827 11.4965 22.6363 11.6442 21.3204C11.7918 19.9427 11.5949 18.46 11.2442 17.1009C10.7766 15.3217 9.5215 14.117 7.77415 13.4436C8.02443 13.8592 8.28434 14.2609 8.54089 14.6574ZM25.8245 23.1863C25.8374 23.1303 25.8488 23.0736 25.8589 23.0162C25.9097 22.7292 25.9292 22.4265 25.9482 22.1319L25.9482 22.1316C25.9561 22.0094 25.9638 21.8886 25.9737 21.7709C25.906 19.9608 25.3892 18.3484 24.048 17.1251C22.8666 16.0502 21.7038 16.4023 21.3223 17.953L21.3086 18.0103C21.2872 18.1013 21.268 18.1919 21.2509 18.2823C20.9409 19.9197 21.3288 21.4571 22.2575 22.8587L22.2885 22.9054C22.396 23.0675 22.5063 23.2339 22.6224 23.3952C23.1206 24.089 23.7239 24.6917 24.6546 24.4525C24.6838 24.4451 24.7133 24.4369 24.7431 24.4279C25.417 24.2228 25.6956 23.7455 25.8245 23.1863ZM19.1828 18.0563L19.1828 18.0563C18.901 17.7954 18.6851 17.5955 18.5228 17.6322C18.2736 17.6883 18.0694 17.9372 17.864 18.1875C17.7754 18.2956 17.6865 18.4039 17.5938 18.4971C17.6842 18.5803 17.7729 18.6815 17.8616 18.7828C18.0627 19.0122 18.2639 19.2417 18.4859 19.2632C18.6817 19.2836 18.899 19.1032 19.1829 18.8677L19.1829 18.8677C19.3272 18.7479 19.4888 18.6139 19.6733 18.4847C19.4912 18.3418 19.3282 18.1909 19.1828 18.0563ZM27.7333 16.0754L27.7329 16.0751L27.7334 16.0749C27.5123 15.9374 27.3286 15.8051 27.1699 15.6906L27.1698 15.6906C26.8648 15.4707 26.6517 15.3171 26.4413 15.3212C26.4359 15.3213 26.4304 15.3216 26.4249 15.3221C26.152 15.3401 25.6665 15.8244 25.7029 16.0074C25.7706 16.3348 26.1398 16.7796 26.4412 16.8352C26.4691 16.84 26.4976 16.8406 26.527 16.8374C26.661 16.8242 26.8139 16.7283 27.0052 16.5898C27.0552 16.5537 27.1078 16.5147 27.1633 16.4736C27.3254 16.3534 27.5124 16.2148 27.7333 16.0754Z" fill="#20113D"/>
</svg>
