<svg width="55" height="47" viewBox="0 0 55 47" fill="none" xmlns="http://www.w3.org/2000/svg">
<path fill-rule="evenodd" clip-rule="evenodd" d="M38.3457 20.5884L38.3471 20.5914C38.85 21.6289 39.3529 22.6665 39.8741 23.7499C39.7422 23.8542 39.6084 23.962 39.4727 24.0714L39.4726 24.0715C39.1661 24.3186 38.8494 24.5739 38.5196 24.8159C38.1529 25.0834 37.7893 25.3548 37.4259 25.6259L37.4258 25.626C36.5282 26.2958 35.6318 26.9647 34.6937 27.573C31.3164 29.7695 27.5913 30.6609 23.5824 30.3117C22.6031 30.229 21.5688 29.889 21.157 29.6041C21.3946 27.9522 21.6231 26.3462 21.8516 24.7402L21.8526 24.7332C21.8251 24.724 21.7954 24.7171 21.7657 24.7103L21.7656 24.7102C21.7359 24.7034 21.7061 24.6965 21.6787 24.6873C21.5895 24.869 21.501 25.0508 21.4127 25.2324C21.1928 25.6842 20.9736 26.1347 20.7451 26.5805C20.1515 27.7581 19.7535 29.0086 19.3547 30.262L19.3547 30.262C19.243 30.6128 19.1313 30.9638 19.0152 31.3134C18.283 33.4915 16.9742 35.1642 14.7501 35.9821C14.6403 36.028 14.5487 36.2118 14.503 36.3497C14.4133 36.6355 14.3336 36.9246 14.2539 37.2136C14.1466 37.6028 14.0394 37.9917 13.908 38.3716C13.4047 39.842 12.4619 40.9816 11.1897 41.8547C10.6222 42.2407 10.0548 42.6358 9.51477 43.0586C9.04799 43.417 9.06629 43.5732 9.52393 43.9317C9.61346 44.0018 9.70352 44.071 9.79336 44.1399C10.08 44.3599 10.3644 44.5782 10.6222 44.8231C11.0433 45.2275 11.2355 45.7422 11.0799 46.3303C11.0433 46.4682 10.8328 46.652 10.7046 46.652C7.70255 46.6704 4.69132 46.6704 1.68925 46.6612C1.57942 46.6612 1.42382 46.6244 1.35975 46.5509C1.26779 46.4385 1.17365 46.3265 1.07923 46.2142L1.07919 46.2142C0.741342 45.8123 0.399966 45.4063 0.142449 44.961C-0.0222987 44.6761 -0.0406044 44.1982 0.0692276 43.8765C1.13094 40.6324 2.49468 37.5536 5.06658 35.1917C5.17641 35.0906 5.24048 34.8701 5.24963 34.7138C5.3137 32.3795 5.58828 30.0636 6.18321 27.812C6.69575 25.8636 7.24491 23.9153 8.21509 22.1232C9.99986 18.8515 12.3063 16.1219 15.8484 14.6515C18.8963 13.3924 21.8709 13.5854 24.7723 15.0743C25.1706 15.2805 25.5308 15.5632 25.8817 15.8386C26.0469 15.9682 26.21 16.0962 26.374 16.2138C26.0445 15.497 25.4679 14.9088 24.8455 14.3666C25.4316 14.1427 26.0199 13.926 26.6072 13.7098C29.2021 12.754 31.7767 11.8058 34.0531 10.2769C34.1532 10.627 34.2517 10.9807 34.3507 11.3363L34.3508 11.3368C34.4778 11.7931 34.6058 12.2527 34.7395 12.7124C34.7761 12.8226 34.8493 12.9237 34.9409 13.0156C34.7578 11.876 34.7578 10.7365 35.188 9.68876C35.5907 8.69622 36.0758 7.69448 36.6982 6.83059C38.2267 4.73521 40.0664 2.91554 42.1166 1.32563L42.1167 1.32553C42.199 1.26123 42.2813 1.19693 42.3728 1.13263C42.5198 1.03844 42.6654 0.938074 42.8114 0.8375L42.8114 0.837455C43.5198 0.349276 44.2354 -0.143893 45.1461 0.0389901C46.6471 0.333078 47.901 1.12344 48.7614 2.41927C49.0085 2.78688 49.2922 3.04421 49.6858 3.18206C50.7109 3.54048 51.4797 4.15623 51.974 5.15797C52.1531 5.52397 52.4115 5.8481 52.6703 6.17276C52.795 6.32907 52.9197 6.4855 53.0357 6.64679C53.2736 6.97764 53.3194 7.25335 53.054 7.63934C52.8343 7.961 52.7245 8.39294 52.6604 8.78812C52.578 9.25682 52.7611 9.5601 53.2553 9.81743C54.5459 10.4791 55.2964 11.9588 54.5825 13.4568C54.4635 13.7049 54.3537 13.953 54.253 14.2104C53.777 15.4419 52.8709 15.8738 51.6262 15.4419C51.6134 15.4376 51.6004 15.4333 51.5873 15.429C51.5793 15.4264 51.5713 15.4238 51.5632 15.4212C51.4997 15.4005 51.4362 15.3798 51.3882 15.3592C51.1594 15.6808 50.9306 15.9933 50.6834 16.3241C50.6483 16.281 50.6182 16.2496 50.5952 16.2256C50.5642 16.1934 50.5462 16.1745 50.5462 16.1587C50.6194 15.3683 50.1434 14.8996 49.6126 14.4217C47.1322 12.1793 44.0935 12.5837 42.0159 13.8795C42.2495 13.832 42.4809 13.7801 42.7116 13.7283C43.1499 13.63 43.5857 13.5322 44.0295 13.466C46.6654 13.0984 48.9536 14.2839 50.1709 16.655C51.0129 18.2908 51.6079 20.0002 51.4614 21.8934L51.4598 21.9156V21.9156C51.4328 22.2864 51.4035 22.6903 51.2509 23.0146C50.7201 24.1542 50.8848 25.303 51.1777 26.4334L51.2317 26.6441L51.2317 26.6441C51.5065 27.7182 51.7886 28.8207 52.3126 29.7695C54.3354 33.418 54.5001 37.3606 54.3537 41.3584C54.2896 43.077 53.7404 44.6026 52.3309 45.7146C51.5438 46.3395 50.7017 46.7715 49.6492 46.6887C49.1641 46.652 48.6699 46.6428 48.1848 46.6887C47.2695 46.7898 46.638 46.3303 46.098 45.687C45.5122 44.9977 45.2468 44.1982 45.4115 43.2975C45.4573 43.0586 45.6312 42.7645 45.8325 42.6542C46.0855 42.5193 46.2701 42.7065 46.4573 42.8962C46.4868 42.9262 46.5165 42.9562 46.5464 42.9851C46.8285 43.2592 47.2011 43.4606 47.5562 43.6526L47.5562 43.6526L47.5624 43.656C47.8736 43.8214 48.0383 43.6835 48.0749 43.3343C48.1115 42.9207 47.9834 42.5715 47.6722 42.305C45.9241 40.807 44.8257 38.8495 43.8372 36.8184C43.0776 35.2469 42.5925 33.6018 42.4186 31.8557C42.2905 30.5415 42.5193 29.264 42.7664 27.9866C42.8854 27.4076 43.0044 26.8194 43.041 26.222C43.1233 25.0365 42.7115 24.0348 41.6955 23.4006C40.4416 22.6195 39.325 21.6821 38.428 20.5057C38.4372 20.5333 38.3914 20.5608 38.3457 20.5884ZM41.0273 24.7607C41.5582 25.1926 41.7504 25.6889 41.6406 26.3046C41.5729 26.7028 41.4983 27.0998 41.4238 27.497L41.4238 27.4971C41.2867 28.2273 41.1496 28.9577 41.0548 29.6958C40.7436 32.1864 41.3202 34.5391 42.2812 36.8091C42.4551 37.2226 42.4734 37.5535 42.2904 37.9671C41.4575 39.8603 40.5514 41.7075 39.3799 43.4261C37.8605 45.6501 35.7371 46.6794 33.0828 46.6794C32.926 46.6794 32.77 46.6819 32.6143 46.6844H32.6142C32.2521 46.6902 31.8917 46.696 31.5269 46.6702C31.3438 46.6611 31.115 46.5416 31.0143 46.3945C30.1631 45.2366 30.3096 42.8379 31.2889 41.781C31.3987 41.6615 31.6459 41.5513 31.7831 41.5972C31.8875 41.6346 31.9615 41.794 32.0299 41.9412C32.0455 41.9747 32.0607 42.0076 32.076 42.0383C32.1138 42.1142 32.1413 42.1978 32.1686 42.2809C32.2141 42.4193 32.2591 42.5565 32.3506 42.6541C32.5154 42.8471 32.7991 43.1228 32.9822 43.086C33.1744 43.0493 33.3666 42.7092 33.4489 42.4703C33.5313 42.2405 33.5038 41.9556 33.4581 41.7167C33.3917 41.3802 33.3085 41.0461 33.2255 40.7127C33.0795 40.1264 32.934 39.5422 32.8815 38.9504C32.6343 36.2944 32.8723 33.6844 34.0164 31.2306C34.2818 30.67 34.5839 30.1002 34.9774 29.6223C35.3893 29.1077 35.9018 28.6573 36.4235 28.253C36.9589 27.8306 37.5106 27.4311 38.063 27.0312C38.4361 26.761 38.8095 26.4906 39.1785 26.2127C39.59 25.8982 39.9973 25.5754 40.4117 25.2471L40.4117 25.2471L40.4121 25.2468C40.6151 25.0859 40.8197 24.9238 41.0273 24.7607ZM21.3562 31.2948C21.1211 31.2249 20.8849 31.1548 20.6444 31.0837C20.5629 31.2611 20.4838 31.441 20.4045 31.6216C20.2702 31.9275 20.135 32.2353 19.9854 32.5358C19.0793 34.3738 17.8894 35.973 16.0498 37.0023C15.9033 37.085 15.8026 37.2964 15.7477 37.471C15.3084 38.9506 14.7592 40.3659 13.7433 41.5606C13.6701 41.6525 13.606 41.818 13.6335 41.9191C13.9538 42.9392 14.2833 43.9593 14.6403 44.961C14.7043 45.1357 14.8965 45.3011 15.0704 45.4022C15.7203 45.7698 16.3701 46.1282 17.0382 46.4682C17.2579 46.5785 17.5142 46.6796 17.7522 46.6796C19.6875 46.6934 21.6177 46.6917 23.5505 46.69C24.1954 46.6894 24.8405 46.6888 25.4862 46.6888H26.0536C25.9921 46.5621 25.9419 46.4385 25.8944 46.3216C25.8007 46.0907 25.7174 45.8855 25.5777 45.733C25.2299 45.3562 24.8363 44.9978 24.4153 44.7129C24.0199 44.4458 23.5907 44.2241 23.163 44.0032C23.0462 43.9429 22.9295 43.8826 22.8136 43.8214C22.3559 43.5733 22.1546 43.2057 22.1912 42.691C22.1973 42.5685 22.2115 42.446 22.2258 42.3234C22.2329 42.2622 22.24 42.2009 22.2461 42.1396C22.2741 41.8614 22.3089 41.5823 22.3438 41.3028C22.423 40.6685 22.5024 40.0325 22.5024 39.4009C22.5024 38.0867 21.9166 36.9563 21.0837 35.9638C22.5298 34.8793 22.8136 33.3445 22.9509 31.7638C22.4008 31.6051 21.8813 31.4508 21.3562 31.2948Z" fill="#20113D"/>
</svg>
