<svg width="54" height="50" viewBox="0 0 54 50" fill="none" xmlns="http://www.w3.org/2000/svg">
<path d="M15.9928 45.0594C19.6049 44.2336 21.8885 41.9154 24.202 39.4523C23.8886 39.3654 23.6498 39.293 23.411 39.235C20.2318 38.4526 17.3063 37.1197 14.6197 35.3086C12.9629 34.193 11.6047 32.7876 10.5748 31.0779C10.4404 30.8606 10.336 30.6288 10.2315 30.397C10.2016 30.339 10.2016 30.2666 10.1718 30.0637C11.1867 30.368 12.142 30.6578 13.0823 30.9476C13.1122 30.9186 13.1271 30.9041 13.1569 30.8751C13.0525 30.7882 12.9629 30.7012 12.8584 30.6288C11.6345 29.8609 10.4404 29.064 9.2016 28.3396C7.78365 27.4993 6.29107 26.7748 4.91789 25.9055C3.08202 24.732 1.78347 23.0803 0.843147 21.1678C0.79837 21.0808 0.783444 20.9939 0.768518 20.907C0.753592 20.8635 0.768518 20.8056 0.768518 20.6752C2.29095 21.3127 3.7089 22.211 5.47015 22.0516C2.00736 20.1246 -0.141955 17.4297 0.00730314 13.3729C1.48496 14.9522 2.93276 16.517 4.38057 18.0817C4.41042 18.0527 4.45519 18.0093 4.48505 17.9803C3.88801 16.8502 3.1865 15.7491 2.73873 14.561C2.29095 13.3729 1.99244 12.0835 1.84318 10.8229C1.69392 9.56244 1.81332 8.27296 1.81332 6.99797C1.88795 6.98348 1.96258 6.98348 2.02229 6.96899C2.7238 8.50478 3.42531 10.0406 4.12683 11.5908C4.20145 11.5908 4.27608 11.5764 4.35071 11.5764C4.32086 8.78006 4.6343 6.04173 5.9627 3.53521C6.0224 3.53521 6.08211 3.53521 6.14181 3.5497C6.14181 4.1727 6.17166 4.78122 6.14181 5.40423C5.97763 8.46131 7.18662 11.0693 8.99264 13.4454C10.2016 15.0246 11.6942 16.3431 13.3062 17.5312C15.4257 19.0959 17.7989 20.2405 20.1721 21.3706C22.3811 22.4138 24.3214 23.8337 26.1424 25.4274C27.2469 26.3981 28.3962 27.3109 29.5306 28.2527C29.844 28.5135 30.1574 28.8032 30.5157 29.122C31.0978 27.818 31.6351 26.601 32.1724 25.3695C33.471 22.4428 35.4263 19.9797 37.8442 17.8499C39.7697 16.1547 41.7249 14.5175 43.6504 12.8369C46.2624 10.5477 47.8893 7.70791 48.4117 4.31759C48.6057 3.11504 48.5162 1.85453 48.561 0.637496C48.561 0.434656 48.561 0.217328 48.6356 0C49.5759 2.08635 49.8446 4.28861 50.0685 6.5778C50.9939 4.75224 51.9044 2.92669 52.8298 1.08664C52.9044 1.10113 52.979 1.11562 53.0387 1.13011C52.9342 2.99913 52.9193 4.86815 52.6954 6.72269C52.4715 8.56273 52.0387 10.3738 51.6954 12.1269C52.1581 11.4315 52.6954 10.6346 53.3223 9.72182C53.3671 11.5039 53.3074 13.1121 52.5312 14.6334C51.77 16.1402 50.5461 17.2704 49.2177 18.386C49.9491 18.5309 50.5312 18.2846 51.0984 18.0093C51.6506 17.7485 52.1581 17.4297 52.7999 17.0675C52.7402 17.3428 52.7103 17.5311 52.6506 17.705C51.8446 19.8203 50.5909 21.6459 48.7102 22.9933C47.5609 23.8337 46.337 24.5726 45.2027 25.4129C44.4862 25.949 43.9787 26.2822 43.9489 27.0212C44.4265 26.8618 44.8892 26.7169 45.4415 26.543C44.5161 29.6146 42.0682 31.4981 39.9338 33.7004C40.1428 33.7873 40.307 33.8453 40.4712 33.9177C41.5309 34.3379 42.4265 34.9754 43.0384 35.9316C43.5011 36.6416 43.6056 37.395 43.4116 38.2208C43.3519 38.4671 43.5011 38.8003 43.6653 39.0177C44.1728 39.7711 44.2474 40.539 43.7996 41.3214C43.3668 42.0892 42.6503 42.466 41.71 42.5239C42.4563 41.2199 42.4265 40.9302 41.4115 40.2347C41.307 40.7708 41.2025 41.2779 41.0981 41.814C40.4264 41.2779 39.8443 40.6404 39.1129 40.2637C38.3666 39.887 37.486 39.7856 36.5905 39.5393C36.6352 39.7276 36.6352 39.8435 36.68 39.9449C37.3368 41.5532 37.9487 43.1904 38.695 44.7696C38.9637 45.3492 39.501 45.8418 39.9936 46.2764C40.4563 46.6821 40.7846 46.5372 40.9637 45.9432C41.0831 45.523 41.1279 45.0884 41.2025 44.6682C41.2772 44.2915 41.4861 44.1321 41.7548 44.248C41.8145 44.5958 41.8891 44.8711 41.9041 45.1463C41.919 45.4361 41.919 45.7404 41.8593 46.0156C41.7996 46.262 41.6354 46.4938 41.516 46.7256C41.5458 46.769 41.5906 46.798 41.6205 46.8415C42.0235 46.5807 42.4414 46.3199 42.8295 46.0446C43.0235 45.8997 43.1727 45.7114 43.3519 45.552C44.0534 44.929 44.3967 44.9725 44.8892 45.7983C44.6206 45.7693 44.3817 45.7259 44.128 45.6969C44.0832 46.7691 42.919 46.7546 42.4414 47.479C43.0086 47.45 43.516 47.4065 44.0235 47.4065C44.7997 47.4065 45.1131 47.7543 44.9638 48.5222C44.74 48.0006 44.3668 48.073 44.0086 48.2179C43.2474 48.5222 42.4712 48.4207 41.6951 48.3193C40.8443 48.2034 40.0831 48.3193 39.3517 48.8119C38.8741 49.1452 38.3816 49.4639 37.695 49.319C37.5457 49.2901 37.2771 49.7682 37.083 50C36.7696 49.5943 36.7845 49.2031 37.3069 48.8844C37.6353 48.6815 38.0233 48.5801 38.3816 48.4352C38.6054 48.3483 38.8443 48.2759 39.0383 48.131C39.4711 47.8122 39.4711 47.6094 39.0532 47.2906C38.0233 46.4793 36.9935 45.6824 35.9636 44.871C35.874 44.7986 35.7695 44.7407 35.68 44.7262C34.3217 44.6103 33.5755 43.7409 33.0083 42.6833C32.8889 42.4515 32.7993 42.1327 32.4709 42.3356C32.2918 42.4515 32.0978 42.7992 32.1575 42.9731C32.4709 44.1176 33.1575 45.0159 34.2173 45.5955C34.68 45.523 34.7695 44.4219 35.4263 45.0884C35.3666 45.3347 35.3218 45.4796 35.2919 45.6245C35.471 45.6534 35.6651 45.7259 35.8442 45.7114C36.1427 45.7114 36.4412 45.6534 36.7397 45.6245C36.7547 45.6824 36.7696 45.7549 36.7845 45.8128C36.5755 45.9142 36.3666 46.0156 36.083 46.1605C37.5159 46.233 37.5159 46.233 37.5756 46.9719C37.1129 46.5372 36.6651 46.885 36.2173 46.9429C35.2024 47.0588 34.5009 47.5225 34.1277 48.4932C34.0083 48.7974 33.6799 49.0148 33.3814 49.348C33.3963 49.3915 33.4411 49.5364 33.471 49.6957C32.8292 49.4784 32.6799 49.1742 32.9933 48.6236C33.2322 48.2034 33.5456 47.8122 33.8292 47.4065C34.0829 47.0443 34.0829 46.7401 33.6053 46.5372C32.8292 46.204 32.1724 45.6679 31.262 45.581C30.9187 45.552 30.6201 45.1029 30.2768 44.8131C30.1127 45.0739 29.8888 45.3782 29.7097 45.7259C29.1873 46.7546 28.3066 47.3776 27.2021 47.6673C23.7244 48.5946 20.4407 48.073 17.3809 46.233C16.8735 45.9432 16.5003 45.4941 15.9928 45.0594Z" fill="#F58021"/>
</svg>
