<svg width="30" height="50" viewBox="0 0 30 50" fill="none" xmlns="http://www.w3.org/2000/svg">
<path d="M6.82593 20.2591C5.80937 21.0346 4.63327 21.3197 3.36987 21.3636C3.28282 21.3636 3.13798 21.4882 3.11596 21.5833C2.9199 22.5126 3.19512 23.3399 3.71069 24.1009C3.77606 24.196 3.93657 24.2177 4.08178 24.2982C3.99465 24.3567 3.91404 24.4149 3.8269 24.4661C2.50546 25.2636 1.43815 26.3101 0.806394 27.7366C-0.0214202 29.6171 -0.319445 31.5565 0.428464 33.554C0.675308 34.2124 0.886159 34.8927 1.12573 35.5511C1.48879 36.5608 1.51771 37.6 1.22729 38.6097C0.370421 41.5584 1.17706 44.2662 2.31714 46.9368C2.41877 47.1634 2.58525 47.3684 2.74487 47.5657C2.96272 47.8365 3.24635 47.924 3.58764 47.807C3.92876 47.6826 4.17519 47.4562 4.16089 47.098C4.14636 46.637 4.08915 46.1752 3.98022 45.7288C3.81321 45.0192 3.573 44.3242 3.406 43.6146C3.17369 42.6122 3.47164 41.7853 4.28491 41.1634C4.39377 41.0829 4.49537 40.9948 4.60425 40.929C5.83132 40.2193 6.58721 39.1078 7.21167 37.8714C7.46574 37.3594 7.8282 36.8981 8.14038 36.4154C8.16942 36.43 8.19922 36.4437 8.22827 36.4583C8.40255 37.2778 8.59085 38.0978 8.73608 38.9173C9.22259 41.5878 10.7909 43.5999 12.6062 45.473C12.7877 45.6631 13.0276 45.8022 13.2527 45.9339C13.5577 46.1168 13.8704 46.1168 14.1609 45.8753C14.4583 45.6266 14.5669 45.3123 14.4363 44.9613C14.3056 44.6247 14.1386 44.2954 13.9353 43.9954C13.5432 43.4248 13.0934 42.8976 12.6941 42.3343C11.83 41.1197 11.7937 40.2637 12.6433 39.0491C13.3186 38.0761 13.7831 37.0151 14.197 35.8665C14.5091 36.0128 14.8069 36.1294 15.0828 36.2757C16.8691 37.2562 17.9653 38.8006 18.6189 40.6956C18.9529 41.6467 19.2289 42.6196 19.5193 43.5853C19.7299 44.2877 20.0712 44.9101 20.5359 45.4661C21.5453 46.6661 22.5481 47.8658 23.572 49.0511C23.8116 49.3291 24.1016 49.5928 24.4138 49.7904C24.9802 50.1489 25.5326 50.0393 26.0554 49.5345C26.433 49.1687 26.4983 48.7141 26.157 48.1361C25.9247 47.7412 25.6123 47.3904 25.322 47.0394C25.1768 46.8638 25.009 46.6955 24.8347 46.5491C23.3607 45.2833 22.9979 43.6073 23.0632 41.7708C23.0778 41.3465 23.1437 40.9222 23.1873 40.5198C23.8334 40.3955 24.4578 40.2707 25.0095 40.1683C25.438 41.1195 25.7788 42.137 26.3162 43.0296C26.9842 44.1418 27.8053 45.1586 28.5896 46.1976C28.8437 46.534 29.1846 46.8042 29.6492 46.6947C29.8961 46.6361 30.0851 45.9632 29.9617 45.4876C29.8455 45.0414 29.7072 44.5877 29.4822 44.1927C28.4802 42.4148 28.0956 40.4607 27.8269 38.4779C27.6888 37.4684 27.0934 37.0148 26.0916 37.2122C24.2181 37.5854 22.3373 37.7682 20.4275 37.5999C20.2968 37.5853 20.1656 37.556 20.0349 37.5267C18.6846 37.2046 18.1475 35.9467 18.8445 34.7249C18.8663 34.681 18.8883 34.6365 18.9246 34.5999C19.8029 33.7073 20.1367 32.522 20.6667 31.432C20.9426 30.876 21.4656 30.408 21.9666 29.9984C22.5837 29.5009 23.3391 29.2516 24.116 29.0833C24.2248 29.0614 24.385 28.9592 24.407 28.8714C24.4287 28.7691 24.3417 28.5787 24.2546 28.5345C23.8699 28.3516 23.4702 28.1327 23.0564 28.0814C22.4755 28.0082 21.8721 28.0228 21.2839 28.0814C20.6306 28.1471 20.0501 27.9414 19.5056 27.6781C18.9247 27.4 18.3722 27.0204 17.8494 26.64C16.4188 25.5937 14.9739 24.5763 13.3328 23.8812C11.5755 23.1276 9.75292 22.8786 7.86499 23.1566C7.72702 23.1419 7.574 23.1493 7.40698 23.1712C7.98791 21.9273 7.80625 21.0347 6.82593 20.2591ZM19.9177 34.6663C19.7654 34.8564 19.5915 35.032 19.4753 35.2366C19.2067 35.7049 19.337 36.2178 19.8308 36.43C20.2229 36.5983 20.6587 36.7074 21.0798 36.7513C22.2054 36.8757 23.3168 36.7661 24.406 36.4368C24.3334 35.9247 24.1008 35.6902 23.5925 35.639C23.1859 35.6024 22.7716 35.6023 22.365 35.5804C21.3777 35.5218 21.2183 35.3684 21.0222 34.4027C20.9714 34.1612 20.8475 33.9272 20.7458 33.6566C20.4191 34.0589 20.1646 34.3591 19.9177 34.6663ZM24.2029 30.0423C23.9125 30.0935 23.6074 30.1885 23.3533 30.3421C22.6126 30.7957 21.9661 31.3591 21.574 32.1566C21.4651 32.3833 21.3705 32.6247 21.3269 32.8734C21.2035 33.5538 21.4868 34.0157 22.1404 34.2132C22.4379 34.3083 22.7502 34.3295 23.0623 34.388C23.6432 34.3734 23.8684 34.2053 23.9773 33.6419C24.0354 33.3348 24.0643 33.013 24.0789 32.6986C24.1152 31.9816 24.2389 31.3009 24.6599 30.6937C24.7615 30.5474 24.7688 30.3204 24.8123 30.1302C24.6091 30.0936 24.3915 30.0058 24.2029 30.0423ZM22.6345 32.5736C22.8079 32.5736 22.963 32.6519 23.071 32.7738C22.963 32.6526 22.8082 32.5757 22.6355 32.5755C22.316 32.5755 22.0398 32.861 22.0398 33.1829C22.0407 33.2241 22.0455 33.2643 22.0544 33.3031C22.0453 33.2637 22.0397 33.2229 22.0388 33.181C22.0316 32.8591 22.315 32.5736 22.6345 32.5736ZM26.6873 29.9115C26.5638 29.7359 26.4549 29.6628 26.2517 29.8089C25.4094 30.4308 24.8866 31.2141 24.8503 32.1068C24.8504 32.8674 24.9736 32.9919 25.5544 32.8822C25.794 32.8382 26.0479 32.7355 26.2439 32.5892C26.999 32.0258 27.2099 30.6651 26.6873 29.9115ZM12.5837 18.4554C12.4967 18.4482 12.3738 18.4703 12.323 18.5286C11.9309 19.0042 11.4875 19.4506 11.197 19.9847C10.8557 20.6213 11.0815 21.2796 11.6697 21.7259C12.1997 22.1355 12.8238 22.2674 13.4773 22.2894C14.1599 22.2894 14.7919 22.1289 15.3728 21.763C15.6415 21.5947 15.7355 21.4111 15.6628 21.0745C15.3795 19.6992 14.1593 18.609 12.5837 18.4554ZM19.0984 19.4407C18.3647 18.1238 15.1703 16.8658 14.3425 17.5755C14.3425 17.5975 14.3427 17.6337 14.3572 17.6409C15.3446 18.5043 16.056 19.5948 16.7458 20.6995C16.9128 20.9702 17.0802 20.9846 17.3416 20.8968C17.9515 20.6918 18.6482 20.1211 19.0984 19.4407ZM7.05932 17.0413C6.97219 16.1122 6.79747 15.98 5.89721 16.1116C5.19284 16.2141 4.48776 16.3236 3.77612 16.3822C3.37701 16.4113 2.96344 16.3382 2.52807 16.3089C2.31023 17.465 2.48374 18.5556 2.89038 19.6165C2.92663 19.7042 3.02113 19.799 3.10815 19.8284C4.8219 20.4065 6.75353 19.2502 7.02221 17.6917C7.05845 17.4798 7.07379 17.2533 7.05932 17.0413ZM17.9226 15.4183C17.3055 15.4037 16.7536 15.5643 16.405 16.2445C17.8571 16.742 18.8518 17.8835 20.1804 18.681C20.5217 18.1396 20.8565 17.6199 21.1687 17.0931C21.2046 17.0341 21.1827 16.8664 21.1248 16.8226C20.1808 16.0763 19.1642 15.4769 17.9226 15.4183ZM19.781 13.1409C18.808 13.0166 18.1905 13.4339 18.0017 14.3704C19.3161 14.6338 20.5 15.1606 21.6619 15.7679C21.7562 15.8188 22.0092 15.7675 22.0535 15.6947C22.2641 15.3069 22.4318 14.8896 22.5916 14.4798C22.6133 14.4213 22.5113 14.2893 22.4314 14.2308C21.6327 13.6674 20.7613 13.258 19.781 13.1409ZM2.94116 11.3841C2.85403 11.8669 2.73782 12.394 2.65796 12.9281C2.57814 13.4546 2.54162 13.9885 2.47632 14.5443C3.62365 15.1223 4.80078 15.2838 5.96264 14.6107C6.79024 14.1424 7.11656 13.3665 7.073 12.43C5.70064 12.0861 4.37161 11.7499 2.94116 11.3841ZM20.282 10.4925C19.4834 10.5219 19.0111 10.9464 18.9167 11.6341C18.8805 11.8826 18.939 12.014 19.1999 12.0726C19.897 12.2262 20.5873 12.3946 21.2771 12.5775C21.8144 12.7311 22.3444 12.9219 22.8962 13.1048C23.2811 12.5999 23.2958 11.9851 23.3103 11.3851C23.3103 11.3266 23.2379 11.2319 23.1726 11.2025C22.2504 10.7927 21.3059 10.4486 20.282 10.4925ZM4.91772 6.61458C4.77975 6.78286 4.58286 6.94438 4.4812 7.15657C4.16176 7.79303 3.87903 8.45177 3.58862 9.10286C3.55238 9.17607 3.57394 9.3373 3.62475 9.38118C4.54693 10.1274 5.57133 10.6247 6.78393 10.5003C7.66234 10.4051 8.11258 9.92946 8.28686 9.08821C7.14681 8.2541 6.05051 7.44137 4.91772 6.61458ZM22.9041 7.92317C21.9963 7.33782 20.3764 7.44047 19.5486 8.1429C19.1276 8.49406 18.9459 8.94042 19.033 9.46711C20.4343 9.58417 21.7924 9.6943 23.1501 9.81868C23.4697 9.84794 23.5713 9.72316 23.6003 9.42317C23.6584 8.77941 23.4413 8.27436 22.9041 7.92317ZM21.3494 4.14387C20.4635 4.28291 19.6433 4.59024 18.9099 5.10969C18.8228 5.17554 18.7349 5.24063 18.655 5.31379C17.8999 6.01617 17.9512 6.81396 18.8152 7.43586C19.5485 6.79944 20.4778 6.80626 21.3708 6.66731C21.7485 6.60877 22.1269 6.49922 22.49 6.38215C22.5697 6.35261 22.6855 6.20733 22.6716 6.13411C22.5627 5.40974 22.3368 4.72836 21.7341 4.26008C21.6324 4.17978 21.4654 4.12926 21.3494 4.14387ZM5.81616 4.91145C6.78922 5.95045 7.71202 6.91628 9.05542 7.34797C9.31669 7.42837 9.49868 7.37739 9.65112 7.16536C9.84718 6.89463 10.0505 6.63773 10.2683 6.35969C9.4768 5.00611 8.31486 3.57194 7.48706 2.9427C6.93517 3.5939 6.38257 4.24561 5.81616 4.91145ZM18.3796 1.04524C17.6971 1.98166 17.0001 2.88885 16.6443 3.99348C16.47 4.52761 16.4994 4.7839 16.739 5.16438C18.0314 4.38888 19.3239 3.62053 20.6599 2.8304C20.079 2.00364 19.251 1.52082 18.3796 1.04524ZM12.1345 0.102857C11.0236 0.380915 10.0503 0.929809 9.12085 1.66145C9.77439 2.6346 10.3921 3.57839 11.0457 4.50032C11.2272 4.76371 11.4744 4.9982 11.8738 4.83723C12.4835 4.60316 12.6353 4.44187 12.4539 3.79817C12.2142 2.93483 12.4034 2.10783 12.5486 1.27375C12.5994 0.995808 12.5924 0.68844 12.5271 0.410474C12.4981 0.27877 12.2362 0.0809059 12.1345 0.102857ZM14.4949 0.00715343C14.415 0.0144703 14.2906 0.110247 14.2761 0.176099C14.1164 1.06132 13.9354 1.94665 13.8337 2.83918C13.7902 3.22697 13.9065 3.62963 13.9646 4.02473C14.001 4.27321 14.1531 4.38313 14.407 4.41243C14.9661 4.47828 14.9593 4.49247 15.199 3.97297C15.6418 3.01469 16.0989 2.05626 16.5417 1.09797C16.6434 0.878467 16.7095 0.643623 16.7966 0.394849C16.0271 0.124182 15.2789 -0.0366514 14.4949 0.00715343Z" fill="#F58021"/>
</svg>
