<svg width="25" height="18" viewBox="0 0 25 18" fill="none" xmlns="http://www.w3.org/2000/svg">
<mask id="path-1-outside-1_37010_2733" maskUnits="userSpaceOnUse" x="-0.90625" y="-0.90625" width="25" height="19" fill="black">
<rect fill="white" x="-0.90625" y="-0.90625" width="25" height="19"/>
<path fill-rule="evenodd" clip-rule="evenodd" d="M22.9687 1.09375H1.09375V16.4062H22.9687V1.09375ZM20.7812 3.28125H3.28125V14.2187H20.7812V3.28125Z"/>
</mask>
<path fill-rule="evenodd" clip-rule="evenodd" d="M22.9687 1.09375H1.09375V16.4062H22.9687V1.09375ZM20.7812 3.28125H3.28125V14.2187H20.7812V3.28125Z" fill="#EAEAEA"/>
<path d="M1.09375 1.09375V1.19209e-07H1.19209e-07V1.09375H1.09375ZM22.9687 1.09375H24.0625V1.19209e-07H22.9687V1.09375ZM1.09375 16.4062H1.19209e-07V17.5H1.09375V16.4062ZM22.9687 16.4062V17.5H24.0625V16.4062H22.9687ZM3.28125 3.28125V2.1875H2.1875V3.28125H3.28125ZM20.7812 3.28125H21.875V2.1875H20.7812V3.28125ZM3.28125 14.2187H2.1875V15.3125H3.28125V14.2187ZM20.7812 14.2187V15.3125H21.875V14.2187H20.7812ZM1.09375 1.09375V2.1875H22.9687V1.09375V1.19209e-07H1.09375V1.09375ZM1.09375 16.4062H2.1875V1.09375H1.09375H1.19209e-07V16.4062H1.09375ZM22.9687 16.4062V15.3125H1.09375V16.4062V17.5H22.9687V16.4062ZM22.9687 1.09375H21.875V16.4062H22.9687H24.0625V1.09375H22.9687ZM3.28125 3.28125V4.375H20.7812V3.28125V2.1875H3.28125V3.28125ZM3.28125 14.2187H4.375V3.28125H3.28125H2.1875V14.2187H3.28125ZM20.7812 14.2187V13.125H3.28125V14.2187V15.3125H20.7812V14.2187ZM20.7812 3.28125H19.6875V14.2187H20.7812H21.875V3.28125H20.7812Z" fill="black" fill-opacity="0.1" mask="url(#path-1-outside-1_37010_2733)"/>
</svg>
