<svg width="59" height="45" viewBox="0 0 59 45" fill="none" xmlns="http://www.w3.org/2000/svg">
<path d="M20.2798 19.56C22.5198 20.6 24.2398 22.16 25.4398 24.24C26.7198 26.24 27.3598 28.6 27.3598 31.32C27.3598 35.32 26.0798 38.56 23.5198 41.04C20.9598 43.52 17.6798 44.76 13.6798 44.76C9.67977 44.76 6.39977 43.52 3.83977 41.04C1.27977 38.56 -0.000234291 35.32 -0.000234291 31.32C-0.000234291 29.48 0.239766 27.64 0.719766 25.8C1.19977 23.96 2.27977 21.24 3.95977 17.64L11.6398 -2.71797e-05H25.9198L20.2798 19.56ZM51.7198 19.56C53.9598 20.6 55.6798 22.16 56.8798 24.24C58.1598 26.24 58.7998 28.6 58.7998 31.32C58.7998 35.32 57.5198 38.56 54.9598 41.04C52.3998 43.52 49.1198 44.76 45.1198 44.76C41.1198 44.76 37.8398 43.52 35.2798 41.04C32.7198 38.56 31.4398 35.32 31.4398 31.32C31.4398 29.48 31.6798 27.64 32.1598 25.8C32.6398 23.96 33.7198 21.24 35.3998 17.64L43.0798 -2.71797e-05H57.3598L51.7198 19.56Z" fill="#00A092"/>
</svg>
