<svg width="27" height="22" viewBox="0 0 27 22" fill="none" xmlns="http://www.w3.org/2000/svg">
<mask id="path-1-outside-1_37010_2730" maskUnits="userSpaceOnUse" x="-0.90625" y="-0.90625" width="28" height="23" fill="black">
<rect fill="white" x="-0.90625" y="-0.90625" width="28" height="23"/>
<path fill-rule="evenodd" clip-rule="evenodd" d="M2.1875 1.09375C1.58341 1.09375 1.09375 1.58348 1.09375 2.1875V5.46875C1.09375 6.07281 1.58344 6.5625 2.1875 6.5625C2.79156 6.5625 3.28125 6.07281 3.28125 5.46875V4.375C3.28125 3.77094 3.77094 3.28125 4.375 3.28125H21.875C22.4791 3.28125 22.9687 3.77094 22.9687 4.375V17.5C22.9687 18.1041 22.4791 18.5937 21.875 18.5937H16.4062C15.8022 18.5937 15.3125 19.0834 15.3125 19.6875C15.3125 20.2916 15.8022 20.7812 16.4062 20.7812H24.0625C24.6666 20.7812 25.1562 20.2915 25.1562 19.6875V2.1875C25.1562 1.58348 24.6666 1.09375 24.0625 1.09375H2.1875ZM10.8776 19.6893C10.9439 20.2897 11.4272 20.7812 12.0312 20.7812C12.6353 20.7812 13.1302 20.2899 13.076 19.6883C12.5562 13.9157 7.95921 9.31876 2.18669 8.79897C1.58506 8.7448 1.09375 9.23969 1.09375 9.84375C1.09375 10.4478 1.58533 10.9311 2.18575 10.9974C6.74987 11.5011 10.3739 15.1252 10.8776 19.6893ZM7.65625 20.7812C8.26031 20.7812 8.75821 20.2888 8.67293 19.6907C8.19439 16.335 5.53995 13.6806 2.18425 13.2021C1.58624 13.1168 1.09375 13.6147 1.09375 14.2187C1.09375 14.8228 1.58837 15.3011 2.18052 15.4205C4.32896 15.8537 6.02134 17.546 6.45452 19.6945C6.57391 20.2866 7.05219 20.7812 7.65625 20.7812ZM1.09375 18.5937C1.09375 17.9897 1.59688 17.4822 2.16769 17.6798C3.11595 18.0081 3.86689 18.7591 4.1952 19.7073C4.39284 20.2781 3.88531 20.7812 3.28125 20.7812H2.1875C1.58344 20.7812 1.09375 20.2916 1.09375 19.6875V18.5937Z"/>
</mask>
<path fill-rule="evenodd" clip-rule="evenodd" d="M2.1875 1.09375C1.58341 1.09375 1.09375 1.58348 1.09375 2.1875V5.46875C1.09375 6.07281 1.58344 6.5625 2.1875 6.5625C2.79156 6.5625 3.28125 6.07281 3.28125 5.46875V4.375C3.28125 3.77094 3.77094 3.28125 4.375 3.28125H21.875C22.4791 3.28125 22.9687 3.77094 22.9687 4.375V17.5C22.9687 18.1041 22.4791 18.5937 21.875 18.5937H16.4062C15.8022 18.5937 15.3125 19.0834 15.3125 19.6875C15.3125 20.2916 15.8022 20.7812 16.4062 20.7812H24.0625C24.6666 20.7812 25.1562 20.2915 25.1562 19.6875V2.1875C25.1562 1.58348 24.6666 1.09375 24.0625 1.09375H2.1875ZM10.8776 19.6893C10.9439 20.2897 11.4272 20.7812 12.0312 20.7812C12.6353 20.7812 13.1302 20.2899 13.076 19.6883C12.5562 13.9157 7.95921 9.31876 2.18669 8.79897C1.58506 8.7448 1.09375 9.23969 1.09375 9.84375C1.09375 10.4478 1.58533 10.9311 2.18575 10.9974C6.74987 11.5011 10.3739 15.1252 10.8776 19.6893ZM7.65625 20.7812C8.26031 20.7812 8.75821 20.2888 8.67293 19.6907C8.19439 16.335 5.53995 13.6806 2.18425 13.2021C1.58624 13.1168 1.09375 13.6147 1.09375 14.2187C1.09375 14.8228 1.58837 15.3011 2.18052 15.4205C4.32896 15.8537 6.02134 17.546 6.45452 19.6945C6.57391 20.2866 7.05219 20.7812 7.65625 20.7812ZM1.09375 18.5937C1.09375 17.9897 1.59688 17.4822 2.16769 17.6798C3.11595 18.0081 3.86689 18.7591 4.1952 19.7073C4.39284 20.2781 3.88531 20.7812 3.28125 20.7812H2.1875C1.58344 20.7812 1.09375 20.2916 1.09375 19.6875V18.5937Z" fill="#EAEAEA"/>
<path d="M2.16769 17.6798L1.80984 18.7133L2.16769 17.6798ZM6.45452 19.6945L5.38235 19.9107L6.45452 19.6945ZM2.18425 13.2021L2.33866 12.1193L2.18425 13.2021ZM1.09375 2.1875H2.1875V1.09375V1.19209e-07C0.979309 1.19209e-07 1.19209e-07 0.979463 1.19209e-07 2.1875H1.09375ZM1.09375 5.46875H2.1875V2.1875H1.09375H1.19209e-07V5.46875H1.09375ZM3.28125 4.375H2.1875V5.46875H3.28125H4.375V4.375H3.28125ZM21.875 3.28125V2.1875H4.375V3.28125V4.375H21.875V3.28125ZM22.9687 17.5H24.0625V4.375H22.9687H21.875V17.5H22.9687ZM16.4062 18.5937V19.6875H21.875V18.5937V17.5H16.4062V18.5937ZM24.0625 20.7812V19.6875H16.4062V20.7812V21.875H24.0625V20.7812ZM25.1562 19.6875H24.0625V19.6875V20.7812V21.875C25.2707 21.875 26.25 20.8955 26.25 19.6875H25.1562ZM25.1562 2.1875H24.0625V19.6875H25.1562H26.25V2.1875H25.1562ZM24.0625 1.09375V2.1875V2.1875H25.1562H26.25C26.25 0.979463 25.2707 1.19209e-07 24.0625 1.19209e-07V1.09375ZM2.1875 1.09375V2.1875H24.0625V1.09375V1.19209e-07H2.1875V1.09375ZM2.18669 8.79897L2.0886 9.88832C7.33456 10.3607 11.5143 14.5404 11.9867 19.7864L13.076 19.6883L14.1654 19.5902C13.5982 13.2911 8.58387 8.27683 2.28478 7.70963L2.18669 8.79897ZM10.8776 19.6893L11.9648 19.5693C11.4049 14.4962 7.37893 10.4701 2.30573 9.91024L2.18575 10.9974L2.06576 12.0845C6.12081 12.5321 9.34293 15.7543 9.79046 19.8092L10.8776 19.6893ZM2.18425 13.2021L2.02984 14.2849C4.9041 14.6947 7.18025 16.9709 7.59013 19.8452L8.67293 19.6907L9.75572 19.5363C9.20853 15.6992 6.1758 12.6665 2.33866 12.1193L2.18425 13.2021ZM6.45452 19.6945L7.52669 19.4783C7.00649 16.8982 4.97675 14.8685 2.39669 14.3483L2.18052 15.4205L1.96434 16.4927C3.68117 16.8388 5.03619 18.1938 5.38235 19.9107L6.45452 19.6945ZM4.1952 19.7073L5.22875 19.3494C4.79071 18.0843 3.79073 17.0843 2.52555 16.6462L2.16769 17.6798L1.80984 18.7133C2.44118 18.9319 2.94306 19.4338 3.16165 20.0652L4.1952 19.7073ZM2.1875 20.7812V21.875H3.28125V20.7812V19.6875H2.1875V20.7812ZM1.09375 18.5937H1.19209e-07V19.6875H1.09375H2.1875V18.5937H1.09375ZM2.1875 20.7812V19.6875V19.6875H1.09375H1.19209e-07C1.19209e-07 20.8956 0.979377 21.875 2.1875 21.875V20.7812ZM2.16769 17.6798L2.52555 16.6462C1.82396 16.4033 1.14496 16.6086 0.684383 17.0237C0.245735 17.4191 1.19209e-07 17.9976 1.19209e-07 18.5937H1.09375H2.1875C2.1875 18.5941 2.18755 18.597 2.18487 18.6032C2.18257 18.6085 2.17399 18.626 2.14895 18.6486C2.12298 18.672 2.07498 18.704 2.00357 18.7203C1.92762 18.7378 1.85745 18.7298 1.80984 18.7133L2.16769 17.6798ZM4.1952 19.7073L3.16165 20.0652C3.14517 20.0176 3.13723 19.9474 3.15465 19.8714C3.17103 19.8 3.20302 19.752 3.22643 19.726C3.24899 19.701 3.26652 19.6924 3.27182 19.6901C3.27802 19.6874 3.28091 19.6875 3.28125 19.6875V20.7812V21.875C3.87736 21.875 4.45593 21.6293 4.8513 21.1906C5.26644 20.73 5.47167 20.051 5.22875 19.3494L4.1952 19.7073ZM6.45452 19.6945L5.38235 19.9107C5.57779 20.88 6.40658 21.875 7.65625 21.875V20.7812V19.6875C7.65571 19.6875 7.65624 19.6875 7.65719 19.6877C7.65805 19.6878 7.65778 19.6879 7.65611 19.6872C7.65273 19.6858 7.64074 19.6799 7.6233 19.6635C7.58478 19.6272 7.54338 19.5611 7.52669 19.4783L6.45452 19.6945ZM1.09375 14.2187H1.19209e-07C1.19209e-07 15.4684 0.994977 16.2972 1.96434 16.4927L2.18052 15.4205L2.39669 14.3483C2.31392 14.3316 2.24776 14.2902 2.2115 14.2517C2.19509 14.2343 2.18923 14.2223 2.1878 14.2189C2.1871 14.2172 2.18715 14.2169 2.18733 14.2178C2.18752 14.2188 2.1875 14.2193 2.1875 14.2187H1.09375ZM8.67293 19.6907L7.59013 19.8452C7.58701 19.8233 7.58868 19.7932 7.59906 19.7625C7.6088 19.7338 7.62266 19.7147 7.6328 19.7041C7.65086 19.6853 7.66133 19.6875 7.65625 19.6875V20.7812V21.875C8.81509 21.875 9.94993 20.8982 9.75572 19.5363L8.67293 19.6907ZM2.18425 13.2021L2.33866 12.1193C0.976758 11.9251 1.19209e-07 13.0599 1.19209e-07 14.2187H1.09375H2.1875C2.1875 14.2137 2.18975 14.2241 2.17088 14.2422C2.16028 14.2523 2.14124 14.2662 2.11247 14.2759C2.08183 14.2863 2.05171 14.288 2.02984 14.2849L2.18425 13.2021ZM15.3125 19.6875H14.2187C14.2187 20.8956 15.1981 21.875 16.4062 21.875V20.7812V19.6875V19.6875H15.3125ZM16.4062 18.5937V17.5C15.1981 17.5 14.2187 18.4794 14.2187 19.6875H15.3125H16.4062V19.6875V18.5937ZM22.9687 17.5H21.875V17.5V18.5937V19.6875C23.0831 19.6875 24.0625 18.7081 24.0625 17.5H22.9687ZM1.09375 9.84375H1.19209e-07C1.19209e-07 11.079 0.987378 11.9655 2.06576 12.0845L2.18575 10.9974L2.30573 9.91024C2.25941 9.90512 2.22184 9.88362 2.2007 9.86176C2.1912 9.85194 2.18803 9.84521 2.18747 9.84387C2.18733 9.84354 2.1875 9.84454 2.1875 9.84375H1.09375ZM21.875 3.28125V4.375V4.375H22.9687H24.0625C24.0625 3.16688 23.0831 2.1875 21.875 2.1875V3.28125ZM2.18669 8.79897L2.28478 7.70963C0.977937 7.59195 1.19209e-07 8.66403 1.19209e-07 9.84375H1.09375H2.1875C2.1875 9.84043 2.18845 9.84765 2.17689 9.85888C2.17051 9.86508 2.15883 9.87386 2.14075 9.88054C2.12129 9.88771 2.10207 9.88953 2.0886 9.88832L2.18669 8.79897ZM3.28125 4.375H4.375H4.375V3.28125V2.1875C3.16688 2.1875 2.1875 3.16688 2.1875 4.375H3.28125ZM12.0312 20.7812V19.6875C12.0305 19.6875 12.0315 19.6877 12.0311 19.6875C12.0298 19.687 12.0231 19.6838 12.0132 19.6743C11.9914 19.6532 11.9699 19.6156 11.9648 19.5693L10.8776 19.6893L9.79046 19.8092C9.90948 20.8876 10.796 21.875 12.0312 21.875V20.7812ZM2.1875 6.5625V7.65625C3.39562 7.65625 4.375 6.67687 4.375 5.46875H3.28125H2.1875V5.46875V6.5625ZM12.0312 20.7812V21.875C13.211 21.875 14.283 20.8971 14.1654 19.5902L13.076 19.6883L11.9867 19.7864C11.9855 19.7729 11.9873 19.7537 11.9945 19.7342C12.0011 19.7162 12.0099 19.7045 12.0161 19.6981C12.0274 19.6866 12.0346 19.6875 12.0312 19.6875V20.7812ZM1.09375 5.46875H1.19209e-07C1.19209e-07 6.67687 0.979377 7.65625 2.1875 7.65625V6.5625V5.46875H2.1875H1.09375Z" fill="black" fill-opacity="0.1" mask="url(#path-1-outside-1_37010_2730)"/>
</svg>
