<svg width="20" height="20" viewBox="0 0 20 20" fill="none" xmlns="http://www.w3.org/2000/svg">
<path d="M18.5937 1.09375H12.0312V3.28125H16.4062V7.65625H18.5937V1.09375Z" fill="#EAEAEA"/>
<path d="M18.5937 12.0312H16.4062V16.4062H12.0312V18.5937H18.5937V12.0312Z" fill="#EAEAEA"/>
<path d="M3.28125 7.65625V3.28125H7.65625V1.09375H1.09375V7.65625H3.28125Z" fill="#EAEAEA"/>
<path d="M1.09375 12.0312V18.5937H7.65625V16.4062H3.28125V12.0312H1.09375Z" fill="#EAEAEA"/>
<path d="M3.82812 11.4844V15.8594H8.20312V19.1406H0.546875V11.4844H3.82812ZM19.1406 11.4844V19.1406H11.4844V15.8594H15.8594V11.4844H19.1406ZM8.20312 0.546875V3.82812H3.82812V8.20312H0.546875V0.546875H8.20312ZM19.1406 0.546875V8.20312H15.8594V3.82812H11.4844V0.546875H19.1406Z" stroke="black" stroke-opacity="0.1" stroke-width="1.09375"/>
</svg>
