<svg width="58" height="47" viewBox="0 0 58 47" fill="none" xmlns="http://www.w3.org/2000/svg">
<path d="M19.132 40.1147C19.3563 40.6065 19.7006 40.3727 20.061 40.3646C20.6376 40.3485 20.99 39.9615 21.5105 39.7357C21.054 39.5987 20.6696 39.4777 20.2612 39.3487C20.1331 39.6148 19.9969 39.905 19.8528 40.2034C19.8127 40.2034 19.7647 40.2034 19.7246 40.2034C19.6766 39.9857 19.6125 39.768 19.5965 39.5503C19.5805 39.2923 19.4924 39.1633 19.2201 39.1552C19.068 39.1471 18.9158 39.0504 18.7076 38.9698C18.5554 39.3729 18.3792 39.8244 18.171 40.3807C17.8186 39.768 17.8827 39.1955 17.9147 38.6392C17.4503 38.3731 17.4503 38.3731 17.162 39.252C17.1059 39.1149 17.0098 38.9778 17.0018 38.8408C16.9698 38.5021 16.8336 38.2925 16.4732 38.1957C16.1849 38.1071 16.0888 38.1393 16.0808 38.4537C16.0728 38.8246 16.0328 39.2036 15.9687 39.5745C15.9447 39.7438 15.8406 39.905 15.7765 40.0744C15.7365 40.0744 15.6964 40.0744 15.6644 40.0744C15.6163 39.9212 15.5603 39.768 15.5122 39.6148C15.3761 39.1552 15.256 38.6876 15.1118 38.228C15.0558 38.0425 14.9677 37.9377 14.7274 38.0184C14.5672 38.0748 14.375 38.0264 14.1108 38.0264C14.0467 38.2199 13.9506 38.486 13.8545 38.7521C13.8145 38.7601 13.7664 38.7682 13.7264 38.7763C13.6463 38.5424 13.5742 38.3086 13.4781 38.0748C13.422 37.9377 13.342 37.8168 13.2699 37.6878C13.1818 37.8168 13.1017 37.9539 13.0136 38.0829C12.9816 38.1393 12.9496 38.1957 12.8695 38.3489C12.7093 38.0345 12.5892 37.7845 12.453 37.5185C11.3639 37.4782 11.7243 38.4538 11.476 39.002C11.436 39.0101 11.3959 39.0181 11.3479 39.0262C11.2598 38.7763 11.1316 38.5424 11.0996 38.2844C11.0596 37.9781 11.1236 37.6717 11.1156 37.3572C11.1156 37.2524 11.0436 37.1557 11.0035 37.0508C10.8914 37.1073 10.7232 37.1315 10.6832 37.2121C10.5871 37.454 10.539 37.72 10.3869 38.0022C10.3308 37.7765 10.2507 37.5507 10.2347 37.325C10.1867 36.6316 10.1466 35.9463 10.1226 35.2529C10.0906 34.5111 10.3468 34.1563 11.0516 33.8903C11.3158 33.7854 11.5561 33.6 11.8284 33.4952C12.0526 33.4065 12.3329 33.2936 12.5491 33.3501C13.1257 33.4871 13.6943 33.6726 14.2389 33.9064C14.6874 34.0999 15.1198 34.2128 15.6163 34.2208C16.0808 34.2289 16.5453 34.3982 16.9938 34.5595C17.3221 34.6804 17.5944 34.7691 17.9388 34.5837C18.115 34.495 18.4193 34.5272 18.6195 34.6159C19.1 34.8175 19.5725 34.7772 20.069 34.7046C20.8458 34.5998 21.6226 34.5595 22.4074 34.4708C22.6397 34.4466 22.8799 34.3902 23.0882 34.2934C23.4325 34.1321 23.7689 33.9386 24.0892 33.729C24.2894 33.5919 24.4496 33.3823 24.6418 33.2291C25.0903 32.8582 25.5948 32.8179 26.1474 32.9711C26.3396 33.0276 26.5718 32.9389 26.788 32.9227C26.9162 32.9147 27.0523 32.8985 27.1804 32.8905C27.5809 32.8582 27.9813 32.826 28.3897 32.8018C28.7341 32.7776 29.0864 32.6889 29.4068 32.7615C30.1035 32.9227 30.584 32.5277 31.0725 32.181C31.1686 32.1165 31.1926 31.7295 31.0965 31.6327C30.616 31.1409 30.6561 30.6087 30.8403 30.0282C31.0485 29.3671 31.4089 28.843 32.0736 28.5931C32.6422 28.3754 32.8183 28.0448 32.6822 27.4562C32.6662 27.3998 32.6261 27.3434 32.5781 27.303C32.3298 27.0773 32.0896 26.8354 31.8173 26.6419C31.7212 26.5774 31.537 26.5935 31.4089 26.6419C31.3288 26.6661 31.2247 26.8193 31.2407 26.8999C31.3368 27.4885 30.8723 27.8594 30.6961 28.3512C30.5199 27.9722 30.2557 27.6175 30.3518 27.1821C30.4158 26.8838 30.2797 26.7225 30.0394 26.6983C29.8873 26.6822 29.7031 26.8193 29.5589 26.916C29.4068 27.0208 29.2546 27.1418 29.1345 27.2869C29.0144 27.432 28.9263 27.6094 28.7901 27.8271C28.6059 27.4643 28.7421 27.1176 28.7741 26.7951C28.7981 26.5774 28.9423 26.3678 28.9823 26.1501C29.0063 26.013 28.9743 25.8356 28.8942 25.7228C28.8542 25.6663 28.654 25.7066 28.5339 25.7389C28.2776 25.8114 28.0293 25.9001 27.749 25.9969C27.5969 25.5212 27.9332 25.2309 28.2055 24.9487C28.4858 24.6585 28.8302 24.4247 29.2306 24.1021C29.0784 24.0215 28.9583 23.9651 28.7581 23.8603C29.1665 23.7474 29.4308 23.6345 29.7111 23.6103C30.0875 23.5861 30.1756 23.3362 30.2236 23.0621C30.4158 21.8768 30.9123 20.8368 31.6091 19.8854C31.8573 19.5467 32.2097 19.2887 32.498 18.9823C32.6341 18.8453 32.7943 18.684 32.8424 18.5147C33.1947 17.1844 34.1157 16.3861 35.2769 15.7895C35.3089 15.7734 35.349 15.7573 35.365 15.7492C35.2529 14.7091 35.1488 13.6771 35.0367 12.6289C34.372 12.2742 34.0596 11.5485 33.6112 10.9358C33.5711 10.8793 33.5311 10.8068 33.475 10.7745C32.9144 10.4198 32.2658 10.1456 31.8013 9.69411C31.3528 9.25872 30.8162 9.12166 30.2957 8.8959C29.8552 8.7024 29.4148 8.50889 28.9903 8.28314C28.8061 8.18639 28.662 8.00901 28.4618 7.83163C28.1895 7.751 27.8371 7.67037 27.5088 7.54137C26.8921 7.29949 26.3075 6.99311 25.6829 6.79154C25.2104 6.63835 24.6898 6.62222 24.2013 6.50935C24.0011 6.46097 23.8169 6.34003 23.6327 6.24328C23.5687 6.21103 23.5046 6.15459 23.4405 6.15459C22.7678 6.1304 22.0391 6.2594 21.4224 6.05783C20.6216 5.79176 19.7727 6.04171 19.0279 5.68695C18.123 5.25157 17.186 5.49345 16.265 5.42894C16.1609 5.42088 16.0408 5.46119 15.9447 5.42894C14.8555 5.05 13.8305 5.5257 12.7734 5.63051C12.5011 5.6547 12.2208 5.63858 11.9405 5.64664C11.8364 5.64664 11.7323 5.66276 11.6282 5.67889C10.7553 5.83208 9.87433 5.98527 9.00943 6.15459C8.72913 6.21103 8.44884 6.31584 8.17656 6.41259C7.51987 6.63835 6.83115 6.76735 6.19048 7.0818C5.10134 7.622 3.9161 7.96869 2.85899 8.58952C2.17027 8.99266 1.4335 9.3071 0.696729 9.62155C0.496519 9.71024 0.232243 9.64573 0 9.64573C0.0880922 9.4361 0.136143 9.1781 0.288302 9.03297C0.472495 8.84753 0.752787 8.75077 0.977022 8.59758C1.08113 8.52502 1.20126 8.42021 1.2413 8.30733C1.35342 8.00095 1.5296 7.80744 1.87396 7.77519C1.98608 7.76713 2.11421 7.65425 2.17828 7.5575C2.3865 7.2108 2.62675 6.95279 2.97912 7.00923C3.20335 6.80767 3.38754 6.65447 3.56373 6.49322C3.65182 6.41259 3.7239 6.3239 3.80398 6.23521C3.85203 6.17877 3.88406 6.07396 3.94813 6.04977C4.47668 5.80789 5.00524 5.58213 5.53379 5.34025C5.64591 5.28381 5.76603 5.21931 5.86213 5.14675C6.30259 4.81618 6.84716 4.64686 7.20754 4.1631C7.30364 4.02603 7.68004 4.07441 7.9283 4.08247C8.17656 4.08247 8.32071 4.00185 8.48888 3.80028C8.65706 3.59871 8.94536 3.43746 9.20163 3.38102C9.56201 3.30846 9.93039 3.44552 10.2187 3.01014C10.3388 2.82469 10.7793 2.86501 11.0756 2.77632C11.2277 2.736 11.46 2.68763 11.508 2.57475C11.7243 2.10711 12.1087 2.17161 12.4931 2.15549C12.7253 2.14743 12.9656 2.0668 13.1978 2.01842C13.4781 1.96198 13.7664 1.83298 14.0387 1.84911C14.311 1.8733 14.5032 1.84911 14.6714 1.63141C14.7114 1.58304 14.7755 1.51854 14.8315 1.51854C15.5042 1.49435 16.0648 0.889646 16.8016 1.13153C16.8817 1.15571 16.9938 1.08315 17.0819 1.0509C17.6985 0.825144 18.3072 0.583263 18.9238 0.381695C19.092 0.325256 19.3082 0.341383 19.4764 0.397822C19.9008 0.534888 20.2452 0.397821 20.6296 0.228505C20.8458 0.131752 21.1261 0.172066 21.3744 0.155941C21.6146 0.139815 21.8549 0.139815 22.0951 0.123689C22.1432 0.123689 22.1992 0.0672512 22.2473 0.0753139C23.1042 0.309132 24.0331 -0.360073 24.866 0.301068C24.9621 0.381695 25.2024 0.341383 25.3465 0.276881C25.6829 0.131753 25.9712 0.0188746 26.3075 0.309132C26.4036 0.389759 26.6279 0.317194 26.796 0.325257C27.0443 0.341382 27.2845 0.357508 27.5328 0.389759C27.8531 0.430072 28.1735 0.534887 28.4938 0.526824C28.8542 0.518761 29.1585 0.551012 29.4468 0.809019C29.615 0.954147 29.9033 1.01059 30.1435 1.01865C30.552 1.02671 30.9364 1.00252 31.2327 1.36535C31.2647 1.40566 31.3528 1.41372 31.4169 1.40566C31.4809 1.40566 31.577 1.34116 31.6091 1.36535C32.0015 1.69592 32.514 1.61529 32.9545 1.78461C33.2428 1.89748 33.491 2.09905 33.7633 2.24418C33.8354 2.28449 33.9475 2.27643 34.0276 2.24418C34.38 2.12324 34.5962 2.28449 34.7323 2.59088C34.8605 2.88113 35.0447 3.0182 35.373 3.02626C35.5332 3.03432 35.7894 3.13914 35.8375 3.26814C35.9736 3.61484 36.2059 3.67934 36.5262 3.67934C36.6223 3.67934 36.7264 3.74384 36.8225 3.79222C38.1679 4.52592 39.5133 5.26769 40.8668 5.98527C42.3403 6.76735 43.4615 7.9445 44.5506 9.17003C45.1673 9.87149 45.7599 10.5891 46.4406 11.2583C46.3045 11.0164 46.1363 10.7906 46.0322 10.5326C45.9521 10.3472 45.864 10.0731 45.9441 9.93599C46.2484 9.41192 46.5847 8.8959 46.9691 8.42827C47.1854 8.17026 47.5137 8.12188 47.8421 8.3557C47.9622 8.44439 48.1384 8.46858 48.2985 8.49277C48.6349 8.54921 48.9472 8.58146 49.0834 8.99266C49.1234 9.1136 49.4197 9.17003 49.6039 9.21035C50.1405 9.31516 50.3086 9.40385 50.4688 9.73442C49.8361 10.0166 49.8682 10.0247 50.3407 10.6052C51.2296 11.6937 51.8062 12.9111 51.566 14.3785C51.5499 14.4914 51.614 14.6365 51.6701 14.7494C52.0625 15.4831 52.0545 16.2168 51.638 16.9344C51.3097 17.4988 51.0374 18.1196 50.3086 18.3212C51.614 21.9091 51.606 25.4728 50.3407 29.0688C51.2777 29.23 51.9904 29.7218 52.599 30.3911C52.6151 30.4072 52.6391 30.4314 52.6551 30.4475C53.1436 31.1812 53.6642 31.8746 54.2648 32.5277C54.5611 32.8502 54.6572 33.4307 54.7132 33.9064C54.7853 34.5675 54.7373 35.2448 54.7293 35.9221C54.7213 36.5106 54.9375 36.8331 55.466 37.0428C55.7704 37.1637 56.0667 37.3169 56.347 37.4862C56.4991 37.583 56.6112 37.7604 56.7394 37.8974C56.7153 37.9216 56.6993 37.9539 56.6753 37.9781C56.5151 37.9458 56.363 37.9216 56.1548 37.8813C56.1868 37.97 56.1868 38.0345 56.2188 38.0506C56.5632 38.3086 56.9075 38.5666 57.2679 38.8085C57.7564 39.1471 57.6363 39.6954 57.7644 40.1872C57.348 39.8163 56.6753 40.155 56.355 39.5906C56.3149 39.518 56.0506 39.5825 55.9866 39.5825C55.9385 40.3001 55.8985 40.9693 55.8584 41.6305C55.8264 41.6466 55.7864 41.6546 55.7543 41.6708C55.4981 41.3644 55.2418 41.058 54.9775 40.7597C54.8974 40.671 54.7213 40.5501 54.6972 40.5742C54.5851 40.6629 54.441 40.8161 54.457 40.9209C54.497 41.1951 54.3769 41.2999 54.1607 41.4128C54.0325 41.4773 53.9444 41.6305 53.8403 41.7514C53.7442 41.8643 53.6561 41.9933 53.5681 42.1142C53.528 42.1062 53.488 42.0981 53.4479 42.09C53.4319 41.8885 53.3999 41.6869 53.3919 41.4853C53.3759 41.1951 53.3919 40.9048 53.3759 40.6146C53.3518 40.292 53.1596 40.2114 52.8953 40.3969C52.8313 40.4452 52.7672 40.5097 52.6951 40.5178C52.2467 40.5984 52.2387 40.5984 52.0865 41.058C52.0064 40.9129 51.9423 40.8322 51.9103 40.7274C51.7822 40.2517 52.0224 39.5906 52.4389 39.3326C52.8793 39.0665 52.9434 38.2925 52.7192 37.9297C52.4629 37.5185 52.1906 37.1234 51.9423 36.7122C51.7341 36.3655 51.638 36.0188 51.7742 35.5996C51.9183 35.148 51.6701 34.8013 51.2136 34.6804C50.4928 34.495 49.7801 34.3015 49.0273 34.0918C48.731 34.5192 48.4107 34.9949 48.0743 35.4625C47.2174 36.6477 46.1523 37.5427 44.6948 37.8894C44.5106 37.9297 44.3424 38.0748 44.1822 38.1796C43.926 38.3489 43.6857 38.5586 43.3414 38.4215C43.2853 38.3973 43.1652 38.4618 43.1171 38.5263C41.107 41.2193 38.5764 43.2511 35.4131 44.3879C34.0837 44.8636 32.7142 45.2103 31.3368 45.5247C30.8563 45.6295 30.3117 45.4844 29.8072 45.3957C29.599 45.3554 29.4468 45.3151 29.2626 45.4602C27.6529 46.6938 25.8831 46.9357 23.9611 46.3874C22.7598 46.0488 21.5586 45.9843 20.3333 46.3391C19.9649 46.4439 19.5404 46.3471 19.148 46.3471C18.3872 46.3391 17.6345 46.331 16.8737 46.331C16.8096 46.331 16.7375 46.3471 16.6815 46.3794C15.7445 46.9438 14.7274 46.589 13.7424 46.6293C12.6372 46.6777 11.7723 46.073 10.9875 45.3554C10.6912 45.0813 10.7312 44.6943 11.0756 44.3315C11.1557 44.2428 11.2117 44.1057 11.2277 43.9848C11.2838 43.5978 11.3158 43.2027 11.3559 42.8076C11.4119 42.7995 11.468 42.7915 11.516 42.7834C11.5721 42.9527 11.6122 43.1382 11.6922 43.2994C11.7803 43.4687 11.9085 43.7509 12.0286 43.759C12.2608 43.7671 12.5651 43.6945 12.5651 43.3156C12.5651 43.1704 12.6612 43.0253 12.8134 42.856C12.8935 43.0334 12.9656 43.2107 13.0456 43.4042C13.382 43.1462 13.7424 42.9205 14.0307 42.6222C14.1668 42.477 14.1588 42.1948 14.2149 41.9771C14.303 41.6546 14.311 41.2918 14.7114 41.0177C14.7514 41.5901 14.7835 42.0981 14.8235 42.598C14.8796 42.6141 14.9276 42.6302 14.9837 42.6383C15.1038 42.4125 15.2159 42.1787 15.3761 41.8723C15.4802 42.1223 15.5523 42.2997 15.6324 42.4851C15.7765 42.4851 15.9126 42.4851 16.0488 42.4851C16.1369 42.2271 16.217 41.9852 16.3371 41.6143C16.4492 41.8401 16.4812 41.9771 16.5613 42.0658C16.6494 42.1626 16.7856 42.2755 16.9057 42.2755C17.1059 42.2835 17.2581 42.1787 17.25 41.9288C17.242 41.7675 17.2821 41.5982 17.2981 41.3724C17.5223 41.5095 17.6745 41.6063 17.8347 41.7111C17.9228 41.5498 18.0108 41.3966 18.115 41.2112C18.8357 41.5901 18.4033 40.8322 18.5314 40.6791C18.7877 40.6952 18.9879 40.7113 19.1801 40.7194C19.1 40.5501 19.116 40.3324 19.132 40.1147ZM33.427 23.6506C33.3949 23.6426 33.3629 23.6345 33.3389 23.6184C32.8744 23.949 32.4099 24.2876 31.8974 24.6504C32.0095 24.9729 32.0976 25.3277 32.2658 25.6421C32.45 25.9969 32.7062 26.3113 32.5701 26.7548C32.5461 26.8435 32.6021 26.9644 32.6261 27.0692C32.8904 25.9163 33.1547 24.7875 33.427 23.6506Z" fill="#20113D"/>
</svg>
