<svg width="22" height="18" viewBox="0 0 22 18" fill="none" xmlns="http://www.w3.org/2000/svg">
<mask id="path-1-outside-1_37010_2742" maskUnits="userSpaceOnUse" x="-0.90625" y="-0.90625" width="23" height="19" fill="black">
<rect fill="white" x="-0.90625" y="-0.90625" width="23" height="19"/>
<path fill-rule="evenodd" clip-rule="evenodd" d="M1.09375 3.28125C1.09375 2.07313 2.07313 1.09375 3.28125 1.09375H18.5937C19.8019 1.09375 20.7812 2.07313 20.7812 3.28125V14.2187C20.7812 15.4269 19.8019 16.4062 18.5937 16.4062H3.28125C2.07313 16.4062 1.09375 15.4269 1.09375 14.2187V3.28125ZM14.2187 5.46875H16.4062C17.0103 5.46875 17.5 5.95844 17.5 6.5625C17.5 7.16656 17.0103 7.65625 16.4062 7.65625H15.3125C14.7084 7.65625 14.2187 8.14594 14.2187 8.75C14.2187 9.35406 14.7084 9.84375 15.3125 9.84375H16.4062C17.0103 9.84375 17.5 10.3334 17.5 10.9375C17.5 11.5416 17.0103 12.0312 16.4062 12.0312H14.2187C13.0106 12.0312 12.0312 11.0519 12.0312 9.84375V7.65625C12.0312 6.44813 13.0106 5.46875 14.2187 5.46875ZM8.75 5.46875H6.5625C5.35438 5.46875 4.375 6.44813 4.375 7.65625V9.84375C4.375 11.0519 5.35438 12.0312 6.5625 12.0312H8.75C9.35406 12.0312 9.84375 11.5416 9.84375 10.9375C9.84375 10.3334 9.35406 9.84375 8.75 9.84375H7.65625C7.05219 9.84375 6.5625 9.35406 6.5625 8.75C6.5625 8.14594 7.05219 7.65625 7.65625 7.65625H8.75C9.35406 7.65625 9.84375 7.16656 9.84375 6.5625C9.84375 5.95844 9.35406 5.46875 8.75 5.46875Z"/>
</mask>
<path fill-rule="evenodd" clip-rule="evenodd" d="M1.09375 3.28125C1.09375 2.07313 2.07313 1.09375 3.28125 1.09375H18.5937C19.8019 1.09375 20.7812 2.07313 20.7812 3.28125V14.2187C20.7812 15.4269 19.8019 16.4062 18.5937 16.4062H3.28125C2.07313 16.4062 1.09375 15.4269 1.09375 14.2187V3.28125ZM14.2187 5.46875H16.4062C17.0103 5.46875 17.5 5.95844 17.5 6.5625C17.5 7.16656 17.0103 7.65625 16.4062 7.65625H15.3125C14.7084 7.65625 14.2187 8.14594 14.2187 8.75C14.2187 9.35406 14.7084 9.84375 15.3125 9.84375H16.4062C17.0103 9.84375 17.5 10.3334 17.5 10.9375C17.5 11.5416 17.0103 12.0312 16.4062 12.0312H14.2187C13.0106 12.0312 12.0312 11.0519 12.0312 9.84375V7.65625C12.0312 6.44813 13.0106 5.46875 14.2187 5.46875ZM8.75 5.46875H6.5625C5.35438 5.46875 4.375 6.44813 4.375 7.65625V9.84375C4.375 11.0519 5.35438 12.0312 6.5625 12.0312H8.75C9.35406 12.0312 9.84375 11.5416 9.84375 10.9375C9.84375 10.3334 9.35406 9.84375 8.75 9.84375H7.65625C7.05219 9.84375 6.5625 9.35406 6.5625 8.75C6.5625 8.14594 7.05219 7.65625 7.65625 7.65625H8.75C9.35406 7.65625 9.84375 7.16656 9.84375 6.5625C9.84375 5.95844 9.35406 5.46875 8.75 5.46875Z" fill="#EAEAEA"/>
<path d="M3.28125 1.09375V1.19209e-07C1.46907 1.19209e-07 1.19209e-07 1.46907 1.19209e-07 3.28125H1.09375H2.1875C2.1875 2.67719 2.67719 2.1875 3.28125 2.1875V1.09375ZM18.5937 1.09375V1.19209e-07H3.28125V1.09375V2.1875H18.5937V1.09375ZM20.7812 3.28125H21.875C21.875 1.46907 20.4059 1.19209e-07 18.5937 1.19209e-07V1.09375V2.1875C19.1978 2.1875 19.6875 2.67719 19.6875 3.28125H20.7812ZM20.7812 14.2187H21.875V3.28125H20.7812H19.6875V14.2187H20.7812ZM18.5937 16.4062V17.5C20.4059 17.5 21.875 16.0309 21.875 14.2187H20.7812H19.6875C19.6875 14.8228 19.1978 15.3125 18.5937 15.3125V16.4062ZM3.28125 16.4062V17.5H18.5937V16.4062V15.3125H3.28125V16.4062ZM1.09375 14.2187H1.19209e-07C1.19209e-07 16.0309 1.46907 17.5 3.28125 17.5V16.4062V15.3125C2.67719 15.3125 2.1875 14.8228 2.1875 14.2187H1.09375ZM1.09375 3.28125H1.19209e-07V14.2187H1.09375H2.1875V3.28125H1.09375ZM16.4062 5.46875V4.375H14.2187V5.46875V6.5625H16.4062V5.46875ZM17.5 6.5625H18.5937C18.5937 5.35438 17.6144 4.375 16.4062 4.375V5.46875V6.5625V6.5625H17.5ZM16.4062 7.65625V8.75C17.6144 8.75 18.5937 7.77062 18.5937 6.5625H17.5H16.4062V6.5625V7.65625ZM15.3125 7.65625V8.75H16.4062V7.65625V6.5625H15.3125V7.65625ZM14.2187 8.75H15.3125H15.3125V7.65625V6.5625C14.1044 6.5625 13.125 7.54188 13.125 8.75H14.2187ZM15.3125 9.84375V8.75L15.3125 8.75H14.2187H13.125C13.125 9.95812 14.1044 10.9375 15.3125 10.9375V9.84375ZM16.4062 9.84375V8.75H15.3125V9.84375V10.9375H16.4062V9.84375ZM17.5 10.9375H18.5937C18.5937 9.72938 17.6144 8.75 16.4062 8.75V9.84375V10.9375V10.9375H17.5ZM16.4062 12.0312V13.125C17.6144 13.125 18.5937 12.1456 18.5937 10.9375H17.5H16.4062V10.9375V12.0312ZM14.2187 12.0312V13.125H16.4062V12.0312V10.9375H14.2187V12.0312ZM12.0312 9.84375H10.9375C10.9375 11.6559 12.4066 13.125 14.2187 13.125V12.0312V10.9375C13.6147 10.9375 13.125 10.4478 13.125 9.84375H12.0312ZM12.0312 7.65625H10.9375V9.84375H12.0312H13.125V7.65625H12.0312ZM14.2187 5.46875V4.375C12.4066 4.375 10.9375 5.84407 10.9375 7.65625H12.0312H13.125C13.125 7.05219 13.6147 6.5625 14.2187 6.5625V5.46875ZM6.5625 5.46875V6.5625H8.75V5.46875V4.375H6.5625V5.46875ZM4.375 7.65625H5.46875C5.46875 7.05219 5.95844 6.5625 6.5625 6.5625V5.46875V4.375C4.75032 4.375 3.28125 5.84407 3.28125 7.65625H4.375ZM4.375 9.84375H5.46875V7.65625H4.375H3.28125V9.84375H4.375ZM6.5625 12.0312V10.9375C5.95844 10.9375 5.46875 10.4478 5.46875 9.84375H4.375H3.28125C3.28125 11.6559 4.75032 13.125 6.5625 13.125V12.0312ZM8.75 12.0312V10.9375H6.5625V12.0312V13.125H8.75V12.0312ZM9.84375 10.9375H8.75V10.9375V12.0312V13.125C9.95812 13.125 10.9375 12.1456 10.9375 10.9375H9.84375ZM8.75 9.84375V10.9375V10.9375H9.84375H10.9375C10.9375 9.72938 9.95812 8.75 8.75 8.75V9.84375ZM7.65625 9.84375V10.9375H8.75V9.84375V8.75H7.65625V9.84375ZM6.5625 8.75H5.46875C5.46875 9.95812 6.44813 10.9375 7.65625 10.9375V9.84375V8.75L7.65625 8.75H6.5625ZM7.65625 7.65625V6.5625C6.44813 6.5625 5.46875 7.54188 5.46875 8.75H6.5625H7.65625H7.65625V7.65625ZM8.75 7.65625V6.5625H7.65625V7.65625V8.75H8.75V7.65625ZM9.84375 6.5625H8.75V6.5625V7.65625V8.75C9.95812 8.75 10.9375 7.77062 10.9375 6.5625H9.84375ZM8.75 5.46875V6.5625V6.5625H9.84375H10.9375C10.9375 5.35438 9.95812 4.375 8.75 4.375V5.46875Z" fill="black" fill-opacity="0.1" mask="url(#path-1-outside-1_37010_2742)"/>
</svg>
