<svg width="63" height="53" viewBox="0 0 63 53" fill="none" xmlns="http://www.w3.org/2000/svg">
<path d="M16.5184 37.0303C16.4837 37.0917 16.4547 37.1619 16.3852 37.2846C15.6108 35.9827 15.3861 34.5428 15.112 33.1231C15.0624 33.1053 15.0042 33.0933 14.9605 33.0843C14.7928 33.5142 14.5697 33.9175 14.469 34.3537C14.1204 35.782 14.2258 37.2126 14.5669 38.6384C14.9843 40.3313 15.4017 42.0242 15.758 43.7197C16.023 44.9927 16.1776 46.2887 15.8985 47.5943C15.5936 49.0317 14.9563 50.1949 13.5085 50.7417C12.863 50.9817 12.2284 50.8966 11.6427 50.5626C11.0715 50.2316 10.9973 49.6452 11.4909 49.2139C11.7842 48.9545 12.1182 48.6807 12.4787 48.5418C13.191 48.2698 13.5564 47.7587 13.6128 47.0469C13.6665 46.3879 13.688 45.6993 13.573 45.0511C13.2544 43.3177 12.8718 41.6016 12.466 39.8882C12.0102 37.9666 11.7436 36.0459 12.0763 34.0812C12.3659 32.3742 13.1044 30.9273 14.4578 29.8203C14.5565 29.7417 14.6465 29.6688 14.7453 29.5902C14.8063 29.5495 14.8644 29.5234 14.9749 29.4624C15.0601 29.7998 15.1278 30.1107 15.2042 30.4159C15.6586 28.2555 15.7927 25.9909 17.5929 24.344C20.233 25.825 21.6966 28.1296 22.2859 31.0687C22.816 27.713 20.8169 25.3971 18.8641 22.9993C19.3523 22.7116 19.8143 22.4413 20.2764 22.171C20.6687 21.9473 21.061 21.7235 21.4561 21.4852C22.3453 20.9679 22.3715 20.9504 22.9731 21.8208C23.5368 22.6528 24.0308 23.5314 24.545 24.3837C24.6415 24.5483 24.7292 24.7187 24.875 24.863C24.7781 23.3123 24.1461 21.9408 23.3744 20.548C24.2579 20.06 25.118 19.5748 26.0016 19.1249C26.1207 19.0581 26.3626 19.1765 26.5112 19.268C28.1929 20.3077 29.1774 21.8891 29.86 23.6975C30.065 24.2348 30.2439 24.7895 30.4809 25.3181C30.4771 22.5987 29.1097 20.3825 27.7101 18.0988C28.7124 17.4297 29.6886 16.778 30.7258 16.0856C31.709 17.1336 32.2915 18.4874 32.9292 19.8297C32.9906 18.7838 32.7089 17.8272 32.2032 16.9309C32.0249 16.6048 31.8379 16.2845 31.6247 15.9816C31.3648 15.6082 31.3698 15.2741 31.692 14.9446C32.3422 14.2942 32.9808 13.6263 33.631 12.976C36.2164 14.6589 37.7644 16.958 38.345 19.9411C38.4867 18.3711 38.0727 16.8921 37.5046 15.4652C36.9394 14.0236 36.0197 12.8059 34.8646 11.6692C36.1827 10.4712 37.4545 9.31695 38.7611 8.13944C39.9663 9.52259 40.9591 10.8696 41.4346 12.5363C41.3079 10.713 40.716 9.06031 39.5569 7.51914C40.176 7.22032 40.7194 6.92114 41.2863 6.69533C41.4084 6.65196 41.6328 6.78199 41.7873 6.88238C42.4664 7.31939 43.1916 7.56028 44.018 7.51742C43.0659 7.31352 42.5317 6.63985 42.1107 5.85246C41.8096 5.30301 42.0096 4.97871 42.6031 4.92592C43.5923 4.82524 44.5726 4.69229 45.55 4.53587C46.2219 4.43072 46.8703 4.2141 47.5423 4.10895C48.5575 3.95272 49.4893 4.1829 50.4304 4.63584C51.1354 4.9792 51.9622 5.08872 52.7511 5.23615C53.2315 5.33519 53.6749 5.73881 53.6935 6.22242C53.7031 6.55946 53.7214 6.89069 53.7629 7.21909C53.8845 8.14276 53.6041 8.91502 52.9744 9.61525C52.916 9.52706 52.8664 9.47114 52.8342 9.40358C52.5473 8.70475 52.5531 8.71357 51.8318 8.87709C51.1484 9.04079 50.4913 9.26323 50.0213 9.84409C49.4788 10.5242 49.4197 11.3269 49.9013 11.9212C50.2895 12.4124 51.3608 12.5495 51.9972 12.201C52.1163 12.1341 52.2355 12.0673 52.3546 12.0005C52.6736 12.7288 52.5644 13.285 51.9923 13.7687C51.5393 14.1475 51.0425 14.4791 50.5255 14.8751C49.931 14.5088 49.2985 14.1043 48.6487 13.7495C47.9843 13.3917 47.294 13.1275 46.4187 13.3811C46.7567 13.5498 47.0102 13.6858 47.3598 13.8722C45.9179 14.4659 44.9483 15.393 44.4105 16.8204C44.2259 16.295 44.0471 15.7784 43.8273 15.1619C43.588 18.3871 46.0751 22.7303 50.9647 24.2106C50.7379 24.2857 50.5606 24.3405 50.3803 24.4099C50.3863 24.4568 50.3835 24.5096 50.3894 24.5565C50.596 24.5458 50.7968 24.5643 50.9946 24.5213C51.6752 24.3723 52.347 24.1909 53.0334 24.0507C53.6965 23.9132 54.2964 24.0979 54.9203 24.5463C54.04 25.134 53.2295 25.6751 52.4276 26.2104C51.7419 26.6554 51.0621 27.1092 50.3648 27.5366C50.2282 27.615 49.9955 27.6432 49.8643 27.5781C47.114 26.2343 44.1967 25.6633 41.1731 25.6339C40.1895 25.6292 39.313 25.3875 38.5113 24.8034C38.2985 24.6529 38.0509 24.5638 37.754 24.533C38.0837 24.898 38.4048 25.2688 38.7958 25.7073C35.1334 26.2316 31.8074 27.4726 28.751 29.5002C28.3623 28.8184 27.997 28.172 27.6374 27.5343C27.6055 27.543 27.5822 27.5458 27.5502 27.5544C27.6031 27.7481 27.6385 27.9534 27.7146 28.1442C28.0895 29.1277 28.0134 30.0944 27.7044 31.0892C26.9971 33.3422 25.52 35.0405 23.9382 36.6943C23.0616 37.6102 22.2784 38.6291 21.5068 39.6275C20.918 40.3895 20.6117 41.2935 20.5938 42.2721C20.5942 42.4245 20.548 42.5825 20.5165 42.7817C20.3591 42.6959 20.228 42.6308 20.0648 42.5362C20.0796 42.6154 20.0768 42.6682 20.0943 42.6946C20.8536 43.765 21.7894 44.4758 23.1944 44.2247C23.7121 44.1335 24.2041 44.2121 24.6216 44.7474C24.4298 44.8754 24.2468 44.9976 24.0725 45.114C22.7216 46.0158 21.3648 46.9089 20.0342 47.8225C19.7292 48.0262 19.5458 47.996 19.2601 47.7924C18.2514 47.0666 17.6262 46.0467 17.0532 44.9919C16.8427 44.5982 16.7861 44.0763 16.7937 43.6133C16.8016 42.1072 16.8939 40.5955 16.896 39.0805C16.903 38.389 16.7587 37.6967 16.6901 37.0048C16.6319 37.0309 16.5795 37.0277 16.5184 37.0303ZM47.7787 5.56651C47.7702 5.64852 47.7704 5.72471 47.7619 5.80672C48.2132 5.93785 48.6618 6.12172 49.1247 6.19431C49.2935 6.22151 49.5024 5.96758 49.6942 5.83957C49.5251 5.69809 49.3585 5.42768 49.1926 5.42394C48.7183 5.40991 48.2442 5.51017 47.7787 5.56651Z" fill="#20113D"/>
<path d="M29.9701 36.1053C29.8944 36.105 29.7226 36.0924 29.4578 36.0912C30.2219 36.7516 31.034 36.7819 31.8459 36.6978C32.8119 36.5998 33.772 36.4168 34.738 36.3188C35.3084 36.2687 35.8588 36.3975 36.2182 36.9973C36.0933 37.0935 35.9829 37.1927 35.8609 37.2742C34.4137 38.2407 32.9724 39.2161 31.5049 40.1708C31.3044 40.3048 30.9872 40.3384 30.7456 40.2962C30.0205 40.1696 29.3129 39.9932 28.5965 39.8226C27.7577 39.6192 27.2444 39.1476 27.1752 38.2266C27.1541 37.9098 26.9816 37.5923 26.8179 37.3071C26.4935 36.7601 26.1256 36.2423 25.7575 35.6864C27.1079 34.4408 27.6773 32.7751 28.3021 31.1361C28.5769 30.4307 29.0182 29.9578 29.7218 29.6533C30.2967 30.3129 30.7757 30.9984 30.5655 31.9533C30.4762 32.3311 30.381 32.7001 30.3267 33.0928C30.2039 34.0657 30.0927 35.0562 29.9701 36.1053Z" fill="#20113D"/>
<path d="M34.4422 27.3036C36.2081 26.9514 37.8315 26.6308 39.5102 26.2987C39.7646 28.0124 39.2798 29.7489 40.0463 31.3625C39.7845 31.4609 39.5489 31.5419 39.3105 31.6375C39.3136 31.6991 39.3253 31.7549 39.3284 31.8165C39.7009 31.8095 40.0881 31.8436 40.4518 31.7661C41.0453 31.637 41.6065 31.4022 42.197 31.2496C42.866 31.0827 43.3848 31.3726 43.8606 31.9203C43.2939 32.2988 42.7447 32.6656 42.2041 33.0267C41.219 33.6846 40.2455 34.3603 39.2428 34.9918C39.0626 35.0994 38.7483 35.1184 38.5415 35.0529C37.7114 34.8056 37.151 34.1871 36.8378 33.4291C36.0093 31.4369 35.2564 29.4071 34.4422 27.3036Z" fill="#20113D"/>
</svg>
